<svg width="56" height="56" viewBox="0 0 56 56" fill="none" xmlns="http://www.w3.org/2000/svg">
<path d="M37.6521 20.5897H18.3472V13.909C18.3481 13.1378 18.6548 12.3984 19.2001 11.8531C19.7455 11.3078 20.4848 11.001 21.256 11.0001H34.7432C35.5144 11.001 36.2538 11.3078 36.7991 11.8531C37.3445 12.3984 37.6512 13.1378 37.6521 13.909V20.5897ZM20.529 18.4074H35.4703V13.9073C35.47 13.7146 35.3933 13.5298 35.257 13.3935C35.1207 13.2573 34.936 13.1806 34.7432 13.1803H21.256C21.0633 13.1806 20.8785 13.2573 20.7422 13.3935C20.606 13.5298 20.5293 13.7146 20.529 13.9073V18.4074Z" fill="#575B6D"/>
<path d="M9.5 24.4991H46.4998V27.9536H9.5V24.4991Z" fill="#414451"/>
<path d="M46.5453 26.7709H9.45472C8.6513 26.7709 8 27.4222 8 28.2257V44.3451C8 45.1485 8.6513 45.7998 9.45472 45.7998H46.5453C47.3487 45.7998 48 45.1485 48 44.3451V28.2257C48 27.4222 47.3487 26.7709 46.5453 26.7709Z" fill="#EF5261"/>
<path d="M46.5453 16.8318H9.45472C8.6513 16.8318 8 17.4832 8 18.2866V24.2246C8 25.028 8.6513 25.6793 9.45472 25.6793H46.5453C47.3487 25.6793 48 25.028 48 24.2246V18.2866C48 17.4832 47.3487 16.8318 46.5453 16.8318Z" fill="#EF5261"/>
<path d="M29.444 23.082H26.5552C26.1536 23.082 25.8281 23.4075 25.8281 23.8091V28.6425C25.8281 29.0441 26.1536 29.3696 26.5552 29.3696H29.444C29.8456 29.3696 30.1711 29.0441 30.1711 28.6425V23.8091C30.1711 23.4075 29.8456 23.082 29.444 23.082Z" fill="#F6C863"/>
<path d="M29.2285 24.1711V28.2826H26.7717V24.1711H29.2285Z" fill="#EAB54E"/>
<path d="M32.8781 36.0191V39.281H29.6307V42.5278H26.3694V39.281H23.1221V36.0191H26.3694V32.7717H29.6307V36.0191H32.8781Z" fill="#EEEFEE"/>
</svg>
