<svg width="56" height="56" viewBox="0 0 56 56" fill="none" xmlns="http://www.w3.org/2000/svg">
<path d="M10.5049 23.1696H45.2819V48H10.5049V23.1696Z" fill="#EAECF5"/>
<path d="M47.7872 24.2222H8L14.7786 13.3615H41.0087L47.7872 24.2222Z" fill="#344D5B"/>
<path d="M12.5312 25.9207H17.8915V28.4074H12.5312V25.9207Z" fill="#6895F8"/>
<path d="M20.9858 25.9207H26.3461V28.4074H20.9858V25.9207Z" fill="#EF5261"/>
<path d="M29.4409 25.9207H34.8011V28.4074H29.4409V25.9207Z" fill="#FCD462"/>
<path d="M37.8955 25.9207H43.2557V28.4074H37.8955V25.9207Z" fill="#2CBFAE"/>
<path d="M27.8935 32.6008C25.0857 32.6008 22.8096 34.877 22.8096 37.6847V47.9999H32.9774V37.6847C32.9774 34.877 30.7013 32.6008 27.8935 32.6008Z" fill="#EAA14E"/>
<path d="M12.6777 33.8538H20.9863V40.7305H12.6777V33.8538Z" fill="#EBF0F3"/>
<path d="M20.4141 34.4933V40.0902H13.2488V34.4933H20.4141Z" fill="#6895F8"/>
<path d="M16.4775 33.8535H17.1866V40.7303H16.4775V33.8535Z" fill="#EBF0F3"/>
<path d="M20.4888 36.9371V37.6462H13.176V36.9371H20.4888Z" fill="#EBF0F3"/>
<path d="M34.8008 33.8535H43.1094V40.7303H34.8008V33.8535Z" fill="#EBF0F3"/>
<path d="M42.5376 34.494V40.0908H35.3724V34.494H42.5376Z" fill="#6895F8"/>
<path d="M38.6006 33.8538H39.3097V40.7305H38.6006V33.8538Z" fill="#EBF0F3"/>
<path d="M42.7168 36.9374V37.6465H35.1942V36.9374H42.7168Z" fill="#EBF0F3"/>
<path d="M38.9644 19.1111H16.982C16.6953 19.1111 16.4629 19.3435 16.4629 19.6302C16.4629 19.9169 16.6953 20.1493 16.982 20.1493H38.9644C39.2511 20.1493 39.4836 19.9169 39.4836 19.6302C39.4836 19.3435 39.2511 19.1111 38.9644 19.1111Z" fill="#19282F"/>
<path d="M33.5944 19.6301C34.6688 18.3964 35.3242 16.7883 35.3242 15.0239C35.3242 11.1447 32.1795 8 28.3002 8C24.421 8 21.2764 11.1447 21.2764 15.0239C21.2764 16.7883 21.9317 18.3964 23.0061 19.6301H33.5944Z" fill="#FEDA6F"/>
<path d="M25.3477 19.6297H31.2528C32.7689 18.6545 33.7777 16.9562 33.7777 15.0235C33.7777 12.0032 31.3205 9.54602 28.3002 9.54602C25.28 9.54602 22.8228 12.0032 22.8228 15.0235C22.8228 16.9562 23.8316 18.6545 25.3477 19.6297Z" fill="#EAA14E"/>
<path d="M28.086 19.0702V18.2662C27.6841 18.2156 27.3573 18.1255 27.1057 17.996C26.8541 17.8665 26.6367 17.6573 26.4536 17.3685C26.2705 17.0797 26.1641 16.7269 26.1343 16.31L26.9427 16.1581C27.0052 16.5899 27.1154 16.907 27.2732 17.1095C27.4995 17.3953 27.7704 17.5546 28.086 17.5874V15.0282C27.7555 14.9657 27.4176 14.8376 27.0722 14.6441C26.8161 14.5012 26.6189 14.3032 26.4804 14.0501C26.342 13.797 26.2727 13.5097 26.2727 13.1881C26.2727 12.6164 26.4752 12.1534 26.8801 11.7991C27.1511 11.5609 27.5531 11.415 28.086 11.3614V10.9773H28.5595V11.3614C29.0269 11.4061 29.3976 11.543 29.6716 11.7723C30.0229 12.0641 30.2343 12.4646 30.3058 12.9737L29.475 13.0988C29.4274 12.7832 29.3284 12.5412 29.178 12.373C29.0277 12.2048 28.8215 12.0939 28.5595 12.0403V14.3583C28.9644 14.4595 29.2324 14.5384 29.3634 14.595C29.6135 14.7051 29.8174 14.8391 29.9753 14.9969C30.1331 15.1547 30.2544 15.3423 30.3393 15.5597C30.4241 15.777 30.4665 16.0123 30.4665 16.2653C30.4665 16.8221 30.2894 17.2866 29.9351 17.6588C29.5807 18.031 29.1222 18.2305 28.5595 18.2573V19.0702H28.086ZM28.086 12.0313C27.7734 12.079 27.527 12.204 27.3469 12.4065C27.1667 12.609 27.0767 12.8487 27.0767 13.1256C27.0767 13.3995 27.1533 13.6288 27.3067 13.8134C27.46 13.998 27.7198 14.1454 28.086 14.2555V12.0313ZM28.5595 17.5874C28.8721 17.5486 29.1304 17.4132 29.3343 17.1809C29.5383 16.9487 29.6403 16.6613 29.6403 16.3189C29.6403 16.0271 29.5681 15.7927 29.4237 15.6155C29.2793 15.4383 28.9912 15.2798 28.5595 15.1398V17.5874Z" fill="#FED35B"/>
</svg>
