<svg width="56" height="56" viewBox="0 0 56 56" fill="none" xmlns="http://www.w3.org/2000/svg">
<path d="M35.1432 23.6059C34.8135 21.7883 35.6798 19.905 35.9271 19.4186C35.9616 19.3486 36.0448 19.318 36.1164 19.3489L36.8867 19.6586C36.9631 19.685 37.0036 19.7682 36.9774 19.8447C36.9698 19.8666 36.9571 19.8865 36.9404 19.9025C35.8601 20.9606 35.4146 22.5081 35.7667 23.9787" fill="#EAA14E"/>
<path d="M35.385 23.4147C35.385 23.4147 35.0923 19.3922 31.6592 19.7102C31.6592 19.7102 32.2334 20.9854 32.5987 21.759C33.1509 22.9297 34.9074 23.4273 34.9074 23.4273L35.385 23.4147Z" fill="#2CBFAE"/>
<path d="M35.2685 23.2893C34.9735 22.72 34.5954 22.1979 34.1465 21.74C33.7313 21.2457 33.2398 20.8209 32.6904 20.4819L33.9807 21.8839C34.408 22.3483 34.8226 22.8234 35.2685 23.2893Z" fill="#16A897"/>
<path d="M33.7293 31.3508C34.0916 31.6069 34.5273 31.7383 34.9708 31.7249C35.1978 31.7226 35.418 31.6474 35.599 31.5103C36.1252 31.0016 36.916 30.8824 37.5688 31.2132C37.7821 31.2907 38.0147 31.2975 38.2323 31.2328C38.6598 31.1147 39.0374 30.8608 39.3079 30.5094C40.683 28.8586 41.1876 26.6506 40.666 24.5664C40.4753 23.8366 40.0226 23.2024 39.3943 22.785C38.7292 22.3286 37.881 22.2321 37.1304 22.5275C36.9233 22.6052 36.7236 22.7017 36.5338 22.8157C36.2109 23.0035 35.8453 23.1054 35.4719 23.1118L35.2134 23.1509C34.8546 23.2546 34.4753 23.2649 34.1115 23.1806C33.8965 23.1283 33.6772 23.0956 33.4563 23.083C32.6521 23.022 31.87 23.3642 31.369 23.9962C30.8914 24.5804 30.6457 25.32 30.6787 26.0737C30.7951 28.2187 31.9286 30.1793 33.7293 31.3508Z" fill="#EF5261"/>
<path d="M39.8422 26.6767C40.1037 25.5027 39.7104 24.279 38.814 23.4771C38.7701 23.4418 38.7084 23.4388 38.6613 23.4698L38.2033 23.7625C38.1795 23.7751 38.1703 23.8046 38.1829 23.8284C38.1875 23.8371 38.1946 23.8443 38.2033 23.8488C39.2448 24.401 39.8808 25.4984 39.8422 26.6767Z" fill="#EEEFEE"/>
<path d="M23.9248 26.1283C23.8565 26.8453 23.7639 27.6113 23.637 28.4357C23.5199 29.1918 23.3785 29.9917 23.2126 30.8406C21.5248 39.3772 19.0565 41.7674 16.6613 41.2942C14.9248 40.9527 13.7345 39.0894 13.8467 34.8747C13.8564 34.4405 13.8808 33.982 13.9247 33.4991C13.949 33.2064 13.9832 32.9089 14.0174 32.5967C14.1344 31.5528 14.3101 30.4065 14.5588 29.1381L14.5929 28.9674C14.6271 28.7869 14.6661 28.6113 14.7003 28.4357C14.7295 28.2943 14.7637 28.1528 14.793 28.0113C14.8905 27.5528 14.993 27.1138 15.0906 26.6894C15.1394 26.4991 15.1881 26.3089 15.2369 26.1284C15.2613 26.0308 15.2857 25.9332 15.3101 25.8406C15.4906 25.1625 15.6759 24.5284 15.8662 23.9382C16.115 23.1626 16.3735 22.465 16.6369 21.8406V21.8357C18.1003 18.3918 19.7589 17.2406 21.3345 17.5528C23.2565 17.9283 24.4614 20.4551 23.9248 26.1283Z" fill="#F6C863"/>
<path d="M16.6341 21.8376C18.2141 22.5498 19.5024 23.7822 20.2838 25.3293C20.3198 25.3953 20.2955 25.478 20.2294 25.5139C20.1769 25.5425 20.1119 25.5335 20.0692 25.4917C18.8326 24.3283 16.9018 24.0176 15.8613 23.9391C16.113 23.1595 16.3696 22.463 16.6341 21.8376Z" fill="#EAB54E"/>
<path d="M14.0136 32.5956C16.1931 33.261 17.4931 35.0639 18.135 36.2542C18.1709 36.3201 18.1466 36.4028 18.0805 36.4387C18.0281 36.4674 17.9631 36.4583 17.9203 36.4166C16.734 35.3005 14.9081 34.9698 13.8452 34.8771C13.8628 34.1796 13.9174 33.4215 14.0136 32.5956Z" fill="#EAA14E"/>
<path d="M23.9251 26.4454C23.8568 27.0639 23.7642 27.7244 23.6373 28.4357H14.7007C14.7299 28.3137 14.7641 28.1917 14.7934 28.0698C14.8909 27.6742 14.93 27.2957 15.028 26.9293C15.0767 26.7654 15.105 26.601 15.1538 26.4454H23.9251Z" fill="#EAB54E"/>
<path d="M30.6977 27.0245L27.527 36.7674C27.3495 37.313 26.7634 37.6116 26.2177 37.4342L20.4338 35.5513C19.8893 35.3736 19.5913 34.789 19.7674 34.244L22.9382 24.5011C23.4363 22.9694 24.5731 21.7284 26.0553 21.0982C26.4229 20.942 26.7049 20.6342 26.8284 20.2543L27.1406 19.2943L30.362 20.3415L30.0499 21.3016C29.9264 21.6814 29.9733 22.0961 30.1787 22.4386C31.0067 23.8203 31.1959 25.4927 30.6977 27.0245Z" fill="#EEEFEE"/>
<path d="M31.0906 19.7561L30.6965 20.9688C30.6682 21.0561 30.5743 21.104 30.487 21.0757C30.4869 21.0757 30.4868 21.0756 30.4868 21.0756L26.6043 19.8132C26.517 19.7848 26.4691 19.691 26.4974 19.6036C26.4974 19.6035 26.4975 19.6034 26.4975 19.6034L26.8916 18.3908C27.01 18.0272 27.4006 17.8282 27.7643 17.9464L30.6457 18.8834C31.0096 19.0016 31.2087 19.3923 31.0906 19.7561Z" fill="#EF5261"/>
<path d="M44.9318 27.6985H42.9806C42.9806 18.2927 35.9914 10.1546 28.0001 10.1546C20.0089 10.1546 13.0195 18.2927 13.0195 27.6985H11.0684C11.0684 16.9487 18.6635 8.20337 27.9996 8.20337C37.3357 8.20337 44.9318 16.9488 44.9318 27.6985Z" fill="#EAA14E"/>
<path d="M8.97564 27.2776H47.0244C47.5633 27.2776 48.0001 27.7144 48.0001 28.2532V30.6C48.0001 31.1388 47.5633 31.5757 47.0244 31.5757H8.97564C8.43681 31.5757 8 31.1388 8 30.6V28.2532C8 27.7144 8.43681 27.2776 8.97564 27.2776Z" fill="#F6B863"/>
<path d="M46.5152 30.1722L46.2811 31.5722V31.5771L45.9493 33.5478L45.4761 36.3576L45.1005 38.6113L44.5981 41.6015L44.2224 43.8552L43.8419 46.1138C43.6817 47.0833 42.8441 47.7951 41.8614 47.7967H14.1348C13.152 47.7953 12.3143 47.0834 12.1542 46.1138L11.7737 43.8552L11.3981 41.6015L10.8957 38.6113L10.52 36.3576L10.0468 33.5478L9.71511 31.5771V31.5722L9.48096 30.1722H46.5152Z" fill="#F6B863"/>
<path d="M46.2831 31.5732L45.9514 33.5489H10.0489L9.71729 31.5732H46.2831Z" fill="#EAA14E"/>
<path d="M45.4761 36.3576L45.1005 38.6113H10.8956L10.52 36.3576H45.4761Z" fill="#EAA14E"/>
<path d="M44.598 41.6016L44.2224 43.8552H11.7736L11.3979 41.6016H44.598Z" fill="#EAA14E"/>
</svg>
