<svg width="56" height="56" viewBox="0 0 56 56" fill="none" xmlns="http://www.w3.org/2000/svg">
<g clip-path="url(#clip0_14556_1284)">
<path d="M40.2048 19.1971C40.7442 18.677 41.0804 17.9476 41.0804 17.1392C41.0804 15.6157 39.8887 14.371 38.3868 14.2853C38.4052 14.1842 38.4163 14.0805 38.4163 13.9741C38.4163 13.0201 37.6428 12.2466 36.6888 12.2466C36.6506 12.2466 36.6132 12.2499 36.5755 12.2523C36.4291 11.1841 35.5134 10.3609 34.405 10.3609C33.2859 10.3609 32.3633 11.2 32.2306 12.2831C32.2233 12.3424 32.1672 12.382 32.108 12.3745C31.9916 12.3597 31.8732 12.3518 31.7528 12.3518C31.7411 12.3518 31.7297 12.3525 31.7181 12.3527C31.7402 12.1865 31.7528 12.0173 31.7528 11.8451C31.7528 9.74105 30.0471 8.0354 27.943 8.0354C25.9077 8.0354 24.2454 9.63149 24.1389 11.6402C23.7041 10.5912 22.6476 9.86514 21.4289 9.92221C20.0054 9.98891 18.8468 11.1474 18.7787 12.5707C18.7564 13.034 18.8484 13.4733 19.0273 13.8645C18.8853 13.8051 18.7293 13.772 18.5656 13.772C17.9046 13.772 17.3687 14.3079 17.3687 14.9688C17.3687 14.9804 17.3702 14.9916 17.3705 15.0032C17.2461 14.981 17.1184 14.9688 16.9878 14.9688C15.7891 14.9688 14.8174 15.9405 14.8174 17.1392C14.8174 18.0287 15.3526 18.7927 16.1184 19.1279L18.9944 26.0447H37.1001L40.2048 19.1971Z" fill="#FCD89F"/>
<path d="M40.2048 19.1971C40.7442 18.677 41.0804 17.9476 41.0804 17.1392C41.0804 15.6157 39.8887 14.371 38.3868 14.2853C38.4052 14.1842 38.4163 14.0805 38.4163 13.9741C38.4163 13.0201 37.6428 12.2466 36.6888 12.2466C36.6506 12.2466 36.6132 12.2499 36.5755 12.2523C36.4291 11.1841 35.5134 10.3609 34.405 10.3609C33.2859 10.3609 32.3633 11.2 32.2306 12.2831C32.2233 12.3424 32.1672 12.382 32.108 12.3745C31.9916 12.3597 31.8732 12.3518 31.7528 12.3518C31.7411 12.3518 31.7297 12.3525 31.7181 12.3527C31.7402 12.1865 31.7528 12.0173 31.7528 11.8451C31.7528 9.74105 30.0471 8.0354 27.943 8.0354C25.9077 8.0354 24.2454 9.63149 24.1389 11.6402C23.7041 10.5912 22.6476 9.86514 21.4289 9.92221C20.0054 9.98891 18.8468 11.1474 18.7787 12.5707C18.7564 13.034 18.8484 13.4733 19.0273 13.8645C18.8853 13.8051 18.7293 13.772 18.5656 13.772C17.9046 13.772 17.3687 14.3079 17.3687 14.9688C17.3687 14.9804 17.3702 14.9916 17.3705 15.0032C17.2461 14.981 17.1184 14.9688 16.9878 14.9688C15.7891 14.9688 14.8174 15.9405 14.8174 17.1392C14.8174 18.0287 15.3526 18.7927 16.1184 19.1279L18.9944 26.0447H37.1001L40.2048 19.1971Z" fill="#FCD89F"/>
<path d="M15.6025 18.7649C15.6025 17.5662 16.5742 16.5945 17.7729 16.5945C17.8232 16.5945 17.873 16.5963 17.9224 16.5998C18.0618 16.6096 18.1935 16.5372 18.2588 16.4136C18.4449 16.0606 18.8634 15.3978 19.3508 15.3978C19.3781 15.3978 19.4051 15.3987 19.4319 15.4005C19.5918 15.4113 19.7123 15.2541 19.6682 15.1001C19.5864 14.815 19.5488 14.5113 19.5638 14.1966C19.632 12.7732 20.7905 11.6148 22.2139 11.548C23.0785 11.5074 23.8614 11.861 24.3986 12.4444C24.617 12.6816 25.0051 12.5975 25.1049 12.2909C25.6016 10.7644 27.036 9.66109 28.7282 9.66109C29.9123 9.66109 30.9707 10.2012 31.6695 11.0486C31.3032 9.32687 29.774 8.03531 27.9431 8.03531C25.9078 8.03531 24.2455 9.6314 24.139 11.6401C23.7042 10.5911 22.6477 9.86497 21.4288 9.92212C20.0054 9.9889 18.8468 11.1474 18.7787 12.5707C18.7565 13.0339 18.8484 13.4733 19.0273 13.8645C18.8853 13.805 18.7293 13.7719 18.5656 13.7719C17.9046 13.7719 17.3687 14.3078 17.3687 14.9688C17.3687 14.9803 17.3702 14.9915 17.3705 15.0031C17.2461 14.981 17.1184 14.9688 16.9878 14.9688C15.7891 14.9688 14.8174 15.9404 14.8174 17.1391C14.8174 17.8117 15.123 18.4122 15.6033 18.8102C15.6031 18.795 15.6025 18.7802 15.6025 18.7649Z" fill="#FBC773"/>
<path d="M38.6168 44.9916L37.113 42.869H18.6134L17.4819 44.9916L17.7677 47.2784C17.8166 47.6701 18.1497 47.9647 18.5447 47.9647H37.5821C37.977 47.9647 38.3101 47.6701 38.3591 47.2784L38.6448 44.9949L38.6168 44.9916Z" fill="#E43E54"/>
<path d="M21.6456 19.8431C21.492 19.8431 21.3385 19.7848 21.221 19.668C20.5825 19.033 20.231 18.1874 20.231 17.2868C20.231 15.4351 21.7375 13.9286 23.5892 13.9286C23.9217 13.9286 24.1912 14.1981 24.1912 14.5306C24.1912 14.863 23.9217 15.1326 23.5892 15.1326C22.4013 15.1326 21.4349 16.099 21.4349 17.2868C21.4349 17.8645 21.6605 18.4069 22.0701 18.8143C22.3058 19.0487 22.3069 19.4298 22.0724 19.6656C21.9547 19.784 21.8002 19.8431 21.6456 19.8431Z" fill="#FBCE85"/>
<path d="M41.4625 19.9543C39.8933 18.6596 38.0978 18.5256 35.9499 20.2007H33.3135V44.9916H33.9721H38.6163L38.6444 44.9949L41.7001 20.5475C41.7282 20.3219 41.6375 20.0988 41.4625 19.9543Z" fill="#F9F7F8"/>
<path d="M30.5676 20.2007H27.9487V44.9916H30.0354H33.9724L35.9502 20.2007C34.1137 18.5914 32.3174 18.5103 30.5676 20.2007Z" fill="#E43E54"/>
<path d="M20.1762 20.2007C18.0283 18.5256 16.2327 18.6596 14.6635 19.9543C14.4885 20.0988 14.3978 20.3219 14.4259 20.5475L17.4817 44.9916H22.1539V20.6727L20.1762 20.2007Z" fill="#F9F7F8"/>
<path d="M25.5589 20.2007C23.8091 18.5103 22.0128 18.5914 20.1763 20.2007L22.154 44.9916H26.0911H27.5617V20.2007H25.5589Z" fill="#E43E54"/>
<path d="M30.035 44.9916L30.5672 20.2007C28.7829 18.6741 27.0949 18.4269 25.5586 20.2007L26.0908 44.9916H30.035Z" fill="#F9F7F8"/>
<path d="M38.6167 44.9916L38.6448 44.9948L38.6452 44.9916H38.6167Z" fill="#EFEDEF"/>
<path d="M18.2696 19.9543C18.5091 19.7566 18.754 19.5863 19.0046 19.4451C17.3631 18.6166 15.9386 18.9022 14.6635 19.9543C14.4885 20.0988 14.3978 20.3219 14.4259 20.5475L17.4817 44.9916H21.0876L18.0319 20.5475C18.0039 20.3219 18.0946 20.0988 18.2696 19.9543Z" fill="#EFEDEF"/>
<path d="M30.5737 20.1947C30.5759 20.1968 30.578 20.1987 30.5802 20.2007C30.6026 20.1747 30.6253 20.1506 30.6478 20.1255C30.6232 20.1487 30.5985 20.171 30.5737 20.1947Z" fill="#EFEDEF"/>
<path d="M27.9931 18.9646C27.7015 18.9512 27.4137 18.9883 27.1299 19.0786C27.4187 18.999 27.7064 18.9608 27.9931 18.9646Z" fill="#EFEDEF"/>
<path d="M38.6162 44.9916L38.6443 44.9948L38.6447 44.9916H38.6162Z" fill="#EFEDEF"/>
<path d="M28.9057 14.6353C28.5732 14.6353 28.3037 14.3657 28.3037 14.0333C28.3037 13.6267 27.9729 13.2959 27.5663 13.2959C27.2339 13.2959 26.9644 13.0264 26.9644 12.6939C26.9644 12.3615 27.2339 12.0919 27.5663 12.0919C28.6368 12.0919 29.5077 12.9628 29.5077 14.0333C29.5077 14.3657 29.2381 14.6353 28.9057 14.6353Z" fill="#FBCE85"/>
<path d="M32.2861 17.2115C31.9536 17.2115 31.6841 16.9419 31.6841 16.6095C31.6841 15.3967 32.6707 14.41 33.8835 14.41C34.216 14.41 34.4855 14.6796 34.4855 15.012C34.4855 15.3445 34.216 15.614 33.8835 15.614C33.3346 15.614 32.8881 16.0605 32.8881 16.6095C32.8881 16.9419 32.6185 17.2115 32.2861 17.2115Z" fill="#FBCE85"/>
<path d="M47.9998 33.6492C47.9998 32.8624 47.362 32.2246 46.5753 32.2246C45.9747 32.2246 45.462 32.5967 45.2524 33.1226C45.0744 33.0426 44.8775 32.9971 44.6697 32.9971C43.8829 32.9971 43.2451 33.6349 43.2451 34.4216C43.2451 35.2084 43.8829 35.8462 44.6697 35.8462C44.8091 35.8462 44.9435 35.8253 45.0708 35.7879C45.1883 36.4563 45.7704 36.9647 46.4724 36.9647C47.2592 36.9647 47.897 36.3269 47.897 35.5402C47.897 35.2044 47.7801 34.8963 47.5858 34.6529C47.8416 34.3953 47.9998 34.0408 47.9998 33.6492Z" fill="#FCD89F"/>
<path d="M47.7172 36.0051C47.0151 36.0051 46.433 35.4968 46.3156 34.8283C46.1882 34.8656 46.0539 34.8866 45.9144 34.8866C45.1277 34.8866 44.4899 34.2488 44.4899 33.462C44.4899 33.3009 44.5179 33.1467 44.5672 33.0023C43.8285 33.055 43.2451 33.6695 43.2451 34.4216C43.2451 35.2084 43.8829 35.8462 44.6697 35.8462C44.8091 35.8462 44.9435 35.8252 45.0708 35.7879C45.1883 36.4563 45.7704 36.9647 46.4724 36.9647C47.0981 36.9647 47.6283 36.5608 47.8197 35.9999C47.7857 36.0024 47.7518 36.0051 47.7172 36.0051Z" fill="#FBCE85"/>
<path d="M12.1845 25.0808C11.8756 24.3572 11.0387 24.021 10.3151 24.3298C9.7627 24.5655 9.43722 25.1091 9.45095 25.6749C9.25582 25.6713 9.05684 25.7066 8.86573 25.7882C8.14213 26.0971 7.8059 26.934 8.11468 27.6576C8.42354 28.3812 9.26047 28.7174 9.98407 28.4086C10.1123 28.3539 10.2277 28.2819 10.3302 28.1975C10.7006 28.7662 11.4355 29.0053 12.0812 28.7297C12.8048 28.4208 13.141 27.5839 12.8322 26.8603C12.7004 26.5515 12.472 26.3141 12.1977 26.1664C12.3318 25.8291 12.3382 25.441 12.1845 25.0808Z" fill="#FCD89F"/>
<path d="M9.21777 28.4647C8.90891 27.7411 9.24514 26.9041 9.96882 26.5953C10.1599 26.5138 10.3589 26.4784 10.554 26.4821C10.5403 25.9162 10.8659 25.3726 11.4182 25.1369C11.6618 25.0329 11.9178 25.0036 12.1626 25.036C11.8386 24.3441 11.0233 24.0275 10.3151 24.3297C9.7627 24.5655 9.43722 25.109 9.45095 25.6749C9.25582 25.6712 9.05684 25.7066 8.86573 25.7882C8.14213 26.097 7.8059 26.934 8.11468 27.6576C8.31952 28.1376 8.75713 28.4456 9.23961 28.5094C9.23254 28.4944 9.22435 28.4801 9.21777 28.4647Z" fill="#FBCE85"/>
</g>
<defs>
<clipPath id="clip0_14556_1284">
<rect width="40" height="40" fill="white" transform="translate(8 8)"/>
</clipPath>
</defs>
</svg>
