<svg width="56" height="56" viewBox="0 0 56 56" fill="none" xmlns="http://www.w3.org/2000/svg">
<g clip-path="url(#clip0_15017_6923)">
<path d="M20.8908 13.3683L18.834 11.3115L21.753 8.39254C22.0451 8.10043 22.5187 8.10043 22.8108 8.39254L23.8097 9.39145C24.1018 9.68356 24.1018 10.1571 23.8097 10.4493L20.8908 13.3683Z" fill="#283B48"/>
<path d="M26.3595 15.9472L24.3027 13.8904L27.2217 10.9714C27.5138 10.6793 27.9874 10.6793 28.2795 10.9714L29.2784 11.9703C29.5705 12.2624 29.5705 12.736 29.2784 13.0281L26.3595 15.9472Z" fill="#283B48"/>
<path d="M42.8052 35.2829L44.862 37.3397L47.7809 34.4207C48.0731 34.1286 48.0731 33.655 47.7809 33.3629L46.782 32.3639C46.4899 32.0718 46.0163 32.0718 45.7242 32.3639L42.8052 35.2829Z" fill="#283B48"/>
<path d="M39.8794 29.8143L41.9362 31.8711L44.8552 28.9521C45.1473 28.66 45.1473 28.1864 44.8552 27.8943L43.8563 26.8954C43.5642 26.6033 43.0906 26.6033 42.7985 26.8954L39.8794 29.8143Z" fill="#283B48"/>
<path d="M42.639 43.8464L29.583 26.3552L12.0917 13.2992C11.4788 12.8417 11.4141 11.9469 11.955 11.406L13.7482 9.61277C14.5511 8.80988 15.7586 8.5698 16.8074 9.00456L38.1063 17.8318L46.9335 39.1307C47.3682 40.1797 47.1281 41.3871 46.3253 42.1899L44.5321 43.9831C43.9913 44.5241 43.0965 44.4595 42.639 43.8464Z" fill="#EAECF5"/>
<path d="M22.2019 47.6115L16.1976 39.6287L8.21481 33.6244C7.95317 33.4277 7.92621 33.0448 8.15777 32.8134L9.07824 31.8929C9.69847 31.2727 10.638 31.1016 11.4371 31.4633L20.3351 35.4912L24.3631 44.3893C24.7248 45.1883 24.5536 46.1279 23.9334 46.7481L23.0129 47.6686C22.7814 47.9 22.3986 47.8732 22.2019 47.6115Z" fill="#EAECF5"/>
<path d="M24.3631 44.3893L22.9837 41.3422L22.125 42.2008C21.3769 42.9489 20.14 42.8618 19.5042 42.0164L17.0598 38.7665L17.0522 38.774L8.5749 32.3962L8.15772 32.8134C7.92623 33.0449 7.95319 33.4276 8.21475 33.6244L16.1976 39.6287L22.2019 47.6116C22.3986 47.8732 22.7814 47.9002 23.0129 47.6686L23.9335 46.7481C24.5536 46.1279 24.7248 45.1883 24.3631 44.3893Z" fill="#B7CDFC"/>
<path d="M46.8864 41.3836C46.9225 41.3055 46.9563 41.2266 46.9849 41.1457C47.0438 40.9801 47.0852 40.8091 47.1121 40.6357C47.1895 40.1373 47.1349 39.6171 46.9333 39.1306L45.6502 36.0345L45.5687 35.8379C45.4927 36.4443 45.2194 37.023 44.7685 37.4739L42.9753 39.2671C42.4344 39.808 41.5397 39.7434 41.0821 39.1304L30.7069 25.231L12.0902 11.2704L11.9547 11.406C11.5993 11.7614 11.507 12.269 11.6582 12.7055C11.7371 12.9334 11.8813 13.1422 12.0914 13.299L23.4558 21.7818L29.5827 26.3551L34.1561 32.482L42.6388 43.8464C42.7956 44.0566 43.0045 44.2007 43.2323 44.2796C43.6688 44.4308 44.1765 44.3385 44.5319 43.9831L46.3251 42.1899C46.5631 41.9521 46.7502 41.678 46.8864 41.3836Z" fill="#B7CDFC"/>
<path d="M16.1965 41.772C14.8298 42.4242 13.4023 40.9966 14.0544 39.6299C15.504 36.5922 17.3554 33.7631 19.5591 31.2189L34.7025 13.7357C36.9428 11.1491 40.0974 9.53006 43.505 9.21764L44.4335 9.13256C45.7279 9.01389 46.8127 10.0986 46.6941 11.393L46.609 12.3215C46.2966 15.7291 44.6774 18.8836 42.0909 21.124L24.6076 36.2674C22.0633 38.471 19.2344 40.3226 16.1965 41.772Z" fill="#6895F8"/>
<path d="M46.6087 12.3215L46.6937 11.393C46.8124 10.0986 45.7276 9.01389 44.4332 9.13256L43.5047 9.21763C43.4926 9.21873 43.4805 9.22029 43.4684 9.22138C43.1479 12.615 41.5315 15.7552 38.9541 17.9876L14.376 41.4653C14.8225 41.9062 15.5168 42.0963 16.1963 41.772C19.234 40.3226 22.0631 38.471 24.6073 36.2674L42.0905 21.124C44.6771 18.8836 46.2962 15.7292 46.6087 12.3215Z" fill="#2F61F3"/>
<path d="M39.3194 12.3953C38.9901 12.3671 38.7004 12.6113 38.6721 12.9404C38.644 13.2696 38.8881 13.5595 39.2173 13.5877C41.0117 13.7413 42.0846 14.8143 42.2381 16.6085C42.2507 16.7547 42.3148 16.8842 42.411 16.9804C42.5315 17.1009 42.7024 17.1693 42.8853 17.1537C43.2146 17.1255 43.4587 16.8357 43.4305 16.5064C43.2278 14.1352 41.6908 12.5981 39.3194 12.3953Z" fill="white"/>
<path d="M42.8858 17.1538C43.2151 17.1256 43.4591 16.8359 43.4309 16.5066C43.3316 15.3465 42.9124 14.3869 42.2332 13.6846C42.0488 14.0707 41.8459 14.4478 41.625 14.8143C41.9681 15.2886 42.1771 15.8907 42.2385 16.6086C42.2511 16.7548 42.3152 16.8842 42.4114 16.9805C42.532 17.101 42.7028 17.1695 42.8858 17.1538Z" fill="#EAECF5"/>
</g>
<defs>
<clipPath id="clip0_15017_6923">
<rect width="40" height="40" fill="white" transform="translate(8 7.99997)"/>
</clipPath>
</defs>
</svg>
