<svg width="56" height="56" viewBox="0 0 56 56" fill="none" xmlns="http://www.w3.org/2000/svg">
<g clip-path="url(#clip0_15017_6924)">
<path d="M28.0002 9.66669H14.6668C12.8285 9.66669 11.3335 11.1617 11.3335 13V44.6667C11.3335 46.505 12.8285 48 14.6668 48H28.0002C29.8385 48 31.3335 46.505 31.3335 44.6667V13C31.3335 11.1617 29.8385 9.66669 28.0002 9.66669Z" fill="#283B48"/>
<path d="M20.5 16.3334H15.5C14.125 16.3334 13 15.2084 13 13.8334C13 12.4584 14.125 11.3334 15.5 11.3334H20.5C21.875 11.3334 23 12.4584 23 13.8334C23 15.2084 21.875 16.3334 20.5 16.3334Z" fill="#575B6D"/>
<path d="M15.5003 14.6667C15.9606 14.6667 16.3337 14.2936 16.3337 13.8333C16.3337 13.3731 15.9606 13 15.5003 13C15.0401 13 14.667 13.3731 14.667 13.8333C14.667 14.2936 15.0401 14.6667 15.5003 14.6667Z" fill="#B7CDFC"/>
<path d="M19.6668 14.6667C20.1271 14.6667 20.5002 14.2936 20.5002 13.8333C20.5002 13.3731 20.1271 13 19.6668 13C19.2066 13 18.8335 13.3731 18.8335 13.8333C18.8335 14.2936 19.2066 14.6667 19.6668 14.6667Z" fill="#B7CDFC"/>
<path d="M41.3337 8H28.0003C26.162 8 24.667 9.495 24.667 11.3333V43C24.667 44.8383 26.162 46.3333 28.0003 46.3333H41.3337C43.172 46.3333 44.667 44.8383 44.667 43V11.3333C44.667 9.495 43.172 8 41.3337 8Z" fill="#575B6D"/>
<path d="M26.3335 13H43.0002V39.6667H26.3335V13Z" fill="#B7CDFC"/>
<path d="M34.6672 44.6666C35.5876 44.6666 36.3338 43.9205 36.3338 43C36.3338 42.0795 35.5876 41.3333 34.6672 41.3333C33.7467 41.3333 33.0005 42.0795 33.0005 43C33.0005 43.9205 33.7467 44.6666 34.6672 44.6666Z" fill="#ECEFF1"/>
</g>
<defs>
<clipPath id="clip0_15017_6924">
<rect width="40" height="40" fill="white" transform="translate(8 8)"/>
</clipPath>
</defs>
</svg>
