<svg width="56" height="56" viewBox="0 0 56 56" fill="none" xmlns="http://www.w3.org/2000/svg">
<g clip-path="url(#clip0_14568_9936)">
<path d="M20.6719 45.9922V28.4297H18.8047L17.7891 28.9219C17.7969 29.5234 17.8516 30.0313 17.8984 30.3984V30.4141V30.4219C17.875 30.3984 17.8437 30.375 17.8125 30.3516C17.6562 30.2266 17.4922 30.0703 17.3359 29.8984C17.1719 29.7344 17.0156 29.5547 16.8672 29.375L14.5078 30.5234V46C14.5078 47.1094 15.4062 48.0078 16.5156 48.0078H22.6797C21.5703 48 20.6719 47.1016 20.6719 45.9922Z" fill="#FCA121"/>
<path d="M31.1172 48H25.6094V28.4297H20.6719V45.9922C20.6719 47.1016 21.5703 48 22.6797 48H40.2109C41.3203 48 42.2188 47.1016 42.2188 45.9922V28.4297H31.1172V48Z" fill="#FFB22A"/>
<path d="M31.1172 48V28.4297H25.6094V48H31.1172Z" fill="#F2F2F2"/>
<path d="M15.1171 28.9219C14.5312 29.3281 13.8827 29.7031 13.3671 29.9219C13.3046 29.0234 13.3905 28.0547 13.6249 27.0703C13.7499 26.5 13.9218 25.8984 14.1796 25.2656C13.3202 25.5625 12.4999 25.6094 11.7577 25.5156L8.77334 26.9688C8.1874 27.25 7.94521 27.9531 8.22646 28.5312L9.70303 31.5625C9.98428 32.1406 10.6874 32.3828 11.2733 32.0937L16.8749 29.3672C16.7733 29.2422 16.6796 29.1172 16.5937 29C16.3749 28.7031 16.1874 28.4141 16.0702 28.1719C15.8046 28.4141 15.4765 28.6719 15.1171 28.9219Z" fill="#FCA121"/>
<path d="M18.4375 25.0391C18.0156 26.2656 17.8047 27.5234 17.7812 28.6484C17.7812 28.7422 17.7891 28.8359 17.7891 28.9219L20.7891 27.4609L18.9844 23.7422C18.7734 24.1641 18.5938 24.6016 18.4375 25.0391Z" fill="#FFB22A"/>
<path d="M28.2187 19.2578L30.0234 22.9688L25.4062 25.2109L33.0234 21.5078C32.4922 21.0781 31.8203 20.6172 31.0234 20.2109C30.1641 19.7969 29.1953 19.4609 28.2187 19.2578Z" fill="#FFB22A"/>
<path d="M27.5078 19.125C27.4609 19.1172 27.4141 19.1172 27.375 19.1094C27.4219 19.1172 27.4766 19.1172 27.5234 19.125C27.5156 19.125 27.5078 19.125 27.5078 19.125Z" fill="#FFB22A"/>
<path d="M20.4688 21.5234L20.4609 21.5156C20.2734 21.7188 20.0937 21.9375 19.9297 22.1562C19.7109 22.4531 19.5 22.7812 19.3125 23.1172C19.6875 22.4844 20.0938 21.9531 20.4688 21.5234Z" fill="#FFB22A"/>
<path d="M33.4375 15.5156C33.1406 15.8438 32.7969 16.1485 32.3828 16.4141C33.0703 16.6172 33.6875 16.8672 34.2266 17.1328C35.1016 17.5469 35.8906 18.0625 36.5391 18.6485C36.5 18.6719 36.4531 18.6953 36.4141 18.7188C35.6172 19.1328 34.3672 19.5547 33.5078 19.6875C33.5234 19.7266 33.5391 19.7656 33.5547 19.8125C33.625 19.9766 33.6953 20.1641 33.7578 20.3672C33.8281 20.5781 33.8906 20.8125 33.9453 21.0625L39.5547 18.336C40.1328 18.0547 40.375 17.3594 40.0937 16.7813L38.6172 13.75C38.3359 13.1719 37.6328 12.9297 37.0625 13.211L34.0703 14.6641C33.9141 14.9219 33.7344 15.1797 33.5234 15.4219C33.4922 15.4531 33.4688 15.4844 33.4375 15.5156Z" fill="#FFB22A"/>
<path d="M20.8047 21.1641C20.8281 21.1719 20.8594 21.1797 20.8828 21.1875C20.7812 21.1563 20.6953 21.1094 20.6094 21.0469C20.6719 21.0938 20.7344 21.1328 20.8047 21.1641C20.6875 21.2812 20.5781 21.3984 20.4688 21.5156L20.4766 21.5234C20.5859 21.3984 20.6953 21.2734 20.8047 21.1641Z" fill="#231F20"/>
<path d="M28.2187 19.2578L28.2109 19.25C27.9766 19.2031 27.7422 19.1641 27.5234 19.1328C27.4766 19.125 27.4219 19.1172 27.375 19.1172C27.3359 19.1094 27.2969 19.1094 27.2656 19.1016C27.25 19.1016 27.2266 19.1016 27.2109 19.0938C26.3906 19.0156 25.6641 19.0391 25.0625 19.0938C25.0625 19.0781 25.0703 19.0625 25.0703 19.0469C25.0625 19.0625 25.0625 19.0781 25.0547 19.0938C24.9609 19.4219 24.6953 19.7266 24.3828 19.9844C24.0703 20.2578 23.6797 20.5156 23.2578 20.7188C23.25 20.7266 23.2422 20.7266 23.2266 20.7344C23.2109 20.7422 23.1953 20.7422 23.1875 20.75C22.8203 20.9219 22.4375 21.0625 22.0781 21.1406C21.6641 21.25 21.2266 21.2969 20.8828 21.1797C20.8594 21.1719 20.8281 21.1641 20.8047 21.1563C20.6953 21.2656 20.5859 21.3906 20.4766 21.5156C20.0937 21.9453 19.6953 22.4766 19.3203 23.1094C19.2187 23.2891 19.1094 23.4688 19.0156 23.6641C19.0078 23.6875 19 23.7031 18.9844 23.7266L18.9922 23.7344L20.7969 27.4531L25.4141 25.211L30.0312 22.9688L28.2187 19.2578Z" fill="#F2F2F2"/>
<path d="M26.8672 16.2578C27 16.2188 27.1562 16.1875 27.3281 16.1562C28.2734 15.9688 29.2656 15.9375 30.2578 16.0313C31.0156 16.0859 31.7656 16.2109 32.375 16.4141C32.7891 16.1484 33.1406 15.8438 33.4297 15.5234C33.4609 15.4922 33.4844 15.4609 33.5156 15.4297C35.0156 13.6875 34.9844 11.4219 34.9844 11.4219C32.6484 12.2109 29.6016 13.6406 26.8359 16.2734C26.8516 16.2578 26.8594 16.2578 26.8672 16.2578Z" fill="#C62D37"/>
<path d="M33.5 19.6953C33.5 19.6875 33.5 19.6875 33.5 19.6953C34.3672 19.5547 35.6094 19.1406 36.4141 18.7188C36.4531 18.6953 36.5 18.6719 36.5391 18.6485C35.8906 18.0625 35.1016 17.5469 34.2266 17.1328C33.0156 16.5547 31.6406 16.1641 30.2578 16.0235C29.2656 15.9219 28.2734 15.961 27.3281 16.1485C27.1719 16.1797 27.0156 16.211 26.8672 16.25C26.8594 16.25 26.8438 16.2578 26.8359 16.2578H26.8281C26.7656 16.3203 26.7031 16.3828 26.6406 16.4453C26.6016 16.4844 26.5625 16.5235 26.5234 16.5625C26.4531 16.6328 26.3828 16.7031 26.3125 16.7735C26.0703 17.0156 25.8359 17.2735 25.6094 17.5235C25.5937 17.5391 25.5781 17.5625 25.5625 17.5781C25.5156 17.6328 25.4687 17.6875 25.4141 17.7422C25.3828 17.7813 25.3516 17.8203 25.3125 17.8594C25.2891 17.8906 25.2656 17.9219 25.2344 17.9453C25.125 18.0703 25.0234 18.1953 24.9219 18.3281C24.9453 18.3594 24.9609 18.3906 24.9766 18.4297C24.9844 18.4375 24.9844 18.4453 24.9922 18.461C25 18.4844 25.0078 18.5 25.0156 18.5235C25.0547 18.6172 25.0703 18.711 25.0781 18.8047V18.8125V18.8672C25.0781 18.9297 25.0703 19 25.0547 19.0625C25.0547 19.0781 25.0469 19.0938 25.0469 19.1094C25.6484 19.0469 26.375 19.0235 27.1953 19.1094C27.2109 19.1094 27.2344 19.1094 27.25 19.1172C27.2891 19.1172 27.3203 19.125 27.3594 19.1328C27.4062 19.1406 27.4531 19.1406 27.4922 19.1485C27.7812 19.1875 28.0859 19.2344 28.3984 19.3047C29.3828 19.5156 30.2578 19.8516 31.0078 20.2344C31.8047 20.6406 32.4766 21.1016 33.0078 21.5313C33.4844 21.9141 33.8516 22.2735 34.1094 22.5469C34.1094 21.9531 33.9531 21.086 33.7344 20.3906C33.6719 20.1875 33.6016 20 33.5312 19.836C33.5391 19.7735 33.5156 19.7266 33.5 19.6953Z" fill="#E64C3C"/>
<path d="M24.2344 17.3281C24.4922 17.6719 24.7188 18.0234 24.9375 18.3359C25.0391 18.2109 25.1406 18.0859 25.25 17.9531C25.2734 17.9219 25.2969 17.8906 25.3281 17.8672C25.3594 17.8281 25.3906 17.7891 25.4297 17.75C25.4766 17.6953 25.5234 17.6406 25.5781 17.5859C25.5937 17.5703 25.6094 17.5469 25.625 17.5312C25.8438 17.2812 26.0781 17.0312 26.3281 16.7812C26.3984 16.7109 26.4688 16.6406 26.5391 16.5703C26.5781 16.5312 26.6172 16.4922 26.6562 16.4531C26.7188 16.3906 26.7812 16.3281 26.8437 16.2656H26.8516C29.625 13.625 32.6641 12.2031 35 11.414C33.9453 10.2734 31.2344 9.01561 28.9375 9.42186C28.3203 9.49999 27.7578 9.79686 27.3516 10.2656C26.7109 11 26.0625 11.7969 25.4062 12.6562C24.5 13.8359 23.7109 14.9844 23.0234 16.0703V16.0781C23.4766 16.375 23.875 16.8437 24.2344 17.3281Z" fill="#E64C3C"/>
<path d="M20.2813 20.5937C20.2969 20.6328 20.3125 20.6641 20.3282 20.6953C20.3438 20.7187 20.3516 20.7422 20.3672 20.7656C20.3672 20.7734 20.375 20.7734 20.375 20.7812C20.4375 20.8906 20.5235 20.9766 20.6172 21.0547C20.7032 21.1172 20.7891 21.1641 20.8907 21.1953C21.2422 21.3125 21.6719 21.2656 22.086 21.1562C22.5079 21.0469 22.9141 20.8828 23.1954 20.7656C23.211 20.7578 23.2266 20.75 23.2344 20.75C23.2422 20.7422 23.25 20.7422 23.2657 20.7344C23.5625 20.5703 24.0079 20.3203 24.3907 20C24.7032 19.7422 24.9688 19.4375 25.0625 19.1094C25.086 19.0312 25.0938 18.9531 25.1016 18.875C25.1016 18.8594 25.1016 18.8359 25.1016 18.8203V18.8125C25.0938 18.7187 25.0782 18.625 25.0391 18.5312C25.0313 18.5078 25.0235 18.4922 25.0157 18.4687C25.0079 18.4609 25.0079 18.4531 25 18.4375C24.9844 18.4062 24.9688 18.375 24.9454 18.3359C24.7344 18.0312 24.5 17.6797 24.2422 17.3281C23.8829 16.8437 23.4922 16.375 23.0313 16.0781C22.461 15.8359 21.461 16.0469 21.0391 16.2266C20.6407 16.4453 19.8516 17.1016 19.6875 17.6953C19.6094 18.625 20.0157 19.7344 20.2813 20.5937Z" fill="#FCA121"/>
<path d="M17.8202 30.3438C17.8515 30.3672 17.8749 30.3906 17.9061 30.4141C17.9061 30.4062 17.9061 30.4063 17.9061 30.3984C17.8124 29.8828 17.7655 29.2891 17.7811 28.6484C17.8046 27.5312 18.0155 26.2734 18.4374 25.0391C18.5858 24.5938 18.7655 24.1562 18.9765 23.7344C18.9843 23.7109 18.9921 23.6953 19.0077 23.6719C19.2733 23.1484 19.578 22.6406 19.9374 22.1641C20.1015 21.9453 20.2811 21.7266 20.4686 21.5234C20.578 21.4063 20.6874 21.2891 20.8046 21.1719C20.7343 21.1406 20.6718 21.1016 20.6171 21.0547C20.5233 20.9844 20.4374 20.8906 20.3749 20.7813C20.3749 20.7813 20.3671 20.7734 20.3671 20.7656C20.3515 20.7422 20.3436 20.7188 20.328 20.6953C20.3124 20.6641 20.2968 20.6328 20.289 20.5938C19.8827 20.5938 19.453 20.6094 19.0155 20.6406C18.953 20.6484 18.8827 20.6484 18.8202 20.6563C18.3749 20.6953 17.9218 20.7422 17.4843 20.8125C17.3593 20.9063 17.2343 21.0078 17.1093 21.1172C16.5233 21.6328 15.7968 22.4609 15.1952 23.3437C14.4608 24.4922 13.9296 25.7813 13.6327 27.0703C13.4061 28.0469 13.3124 29.0234 13.3749 29.9219C13.8905 29.7031 14.539 29.3281 15.1249 28.9219C15.4843 28.6719 15.8124 28.4141 16.0702 28.1719C16.1952 28.4141 16.3749 28.7031 16.5936 29C16.8202 29.3125 17.0858 29.625 17.3436 29.8906C17.4999 30.0625 17.664 30.2188 17.8202 30.3438Z" fill="#E64C3C"/>
<path d="M18.8124 20.6641C18.8749 20.6562 18.9453 20.6562 19.0078 20.6484C19.4453 20.6172 19.8749 20.6016 20.2812 20.6016C20.0234 19.7422 19.6093 18.6328 19.6874 17.7031C18.4062 17.5781 17.0156 17.4922 15.5234 17.4687C14.4453 17.4531 13.4218 17.4766 12.4453 17.5234C11.8281 17.5547 11.2421 17.8203 10.8046 18.25C9.07025 19.7891 8.38275 22.7266 8.63275 24.2422C10.6953 22.8906 13.6953 21.3828 17.4765 20.8281C17.914 20.75 18.3671 20.6953 18.8124 20.6641Z" fill="#E64C3C"/>
<path d="M17.1016 21.1172C17.2344 21 17.3594 20.8984 17.4766 20.8125C13.6875 21.375 10.6953 22.8828 8.625 24.2344C8.625 24.2344 11.1953 26.3047 14.1719 25.2656C14.3828 24.6562 14.7578 23.9844 15.1875 23.3437C15.7891 22.4609 16.5156 21.6328 17.1016 21.1172Z" fill="#C62D37"/>
<path d="M38.7342 25.7344C38.6951 26 38.906 26.2422 39.1717 26.2422C39.3904 26.2422 39.5779 26.086 39.6092 25.8594C39.8826 23.9922 40.5623 22.6328 41.6326 21.8203C43.2967 20.5 45.117 21.4922 46.5545 19.8282C48.1326 17.8985 47.2967 14.1641 47.1951 13.7422C47.0545 13.1719 46.2029 13.3828 46.3279 13.9532C46.3357 13.9922 47.1951 17.6485 45.867 19.2657C45.3748 19.875 44.7342 19.9688 43.9217 20.086C43.0701 20.211 42.1014 20.3516 41.0935 21.1094C39.8357 22.0703 39.0389 23.625 38.7342 25.7344Z" fill="#2F4859"/>
<path d="M45.7578 24.4453C45.7578 25.625 44.8047 26.5781 43.625 26.5781C44.8047 26.5781 45.7578 27.5313 45.7578 28.7109C45.7578 27.5313 46.7109 26.5781 47.8906 26.5781C46.7109 26.5781 45.7578 25.625 45.7578 24.4453Z" fill="#E64C3C"/>
<path d="M41.3047 12.2656C41.3047 11.0859 42.2578 10.1328 43.4375 10.1328C42.2578 10.1328 41.3047 9.17969 41.3047 8C41.3047 9.17969 40.3516 10.1328 39.1719 10.1328C40.3516 10.1328 41.3047 11.0859 41.3047 12.2656Z" fill="#FDB62F"/>
</g>
<defs>
<clipPath id="clip0_14568_9936">
<rect width="40" height="40" fill="white" transform="translate(8 8)"/>
</clipPath>
</defs>
</svg>
