<svg width="56" height="56" viewBox="0 0 56 56" fill="none" xmlns="http://www.w3.org/2000/svg">
<path d="M28.0001 38.2888C33.6823 38.2888 38.2887 33.6824 38.2887 28.0001C38.2887 22.3179 33.6823 17.7115 28.0001 17.7115C22.3178 17.7115 17.7114 22.3179 17.7114 28.0001C17.7114 33.6824 22.3178 38.2888 28.0001 38.2888Z" fill="#64920F"/>
<path d="M27.9998 36.4994C32.6938 36.4994 36.499 32.6941 36.499 28.0001C36.499 23.3061 32.6938 19.5009 27.9998 19.5009C23.3057 19.5009 19.5005 23.3061 19.5005 28.0001C19.5005 32.6941 23.3057 36.4994 27.9998 36.4994Z" fill="#88B337"/>
<path d="M28.7102 27.2926C28.583 27.2439 28.4639 27.1989 28.3612 27.1537C28.2485 27.1039 28.1135 27.0521 27.9645 26.9956C27.1174 26.6739 26.658 26.4197 26.658 25.9988C26.658 25.8129 26.8563 25.5244 27.235 25.3326C27.5034 25.1971 28.4722 24.8252 29.7067 25.7327C29.8013 25.8032 29.9089 25.8542 30.0233 25.883C30.1377 25.9117 30.2567 25.9175 30.3733 25.9001C30.49 25.8826 30.6021 25.8423 30.7031 25.7814C30.8041 25.7205 30.8921 25.6402 30.9619 25.5452C31.0318 25.4501 31.0822 25.3422 31.1102 25.2276C31.1382 25.113 31.1432 24.9941 31.1251 24.8775C31.1069 24.761 31.0659 24.6492 31.0043 24.5485C30.9428 24.4479 30.8619 24.3604 30.7665 24.2912C30.2108 23.8768 29.5723 23.5873 28.8946 23.4423V22.6321C28.8923 22.3963 28.797 22.171 28.6295 22.0051C28.4619 21.8392 28.2357 21.7461 27.9999 21.7461C27.7641 21.7461 27.5379 21.8392 27.3703 22.0051C27.2028 22.171 27.1075 22.3963 27.1053 22.6321V23.4843C26.8714 23.5451 26.6442 23.6294 26.4273 23.7359C25.4658 24.2224 24.8687 25.0895 24.8687 25.9988C24.8687 27.734 26.5305 28.3652 27.3295 28.6683C27.4452 28.7124 27.551 28.7522 27.6388 28.7909C27.7668 28.847 27.914 28.9038 28.0722 28.9643C28.9502 29.2998 29.3421 29.5211 29.3421 29.9457C29.3421 30.1315 29.1437 30.4201 28.765 30.6119C28.4966 30.7473 27.5279 31.1192 26.2933 30.2117C26.1022 30.0712 25.863 30.0123 25.6285 30.0482C25.3939 30.084 25.1832 30.2115 25.0426 30.4026C24.9021 30.5938 24.8433 30.833 24.8791 31.0675C24.9149 31.3021 25.0424 31.5128 25.2336 31.6533C25.7889 32.0696 26.4273 32.3614 27.1055 32.5089V33.3681C27.1078 33.6039 27.2031 33.8292 27.3706 33.9951C27.5381 34.161 27.7644 34.2541 28.0002 34.2541C28.2359 34.2541 28.4622 34.161 28.6297 33.9951C28.7973 33.8292 28.8925 33.6039 28.8948 33.3681V32.4637C29.1288 32.4018 29.356 32.3162 29.5728 32.2084C30.5343 31.722 31.1314 30.8549 31.1314 29.9456C31.1312 28.2177 29.5563 27.6159 28.7102 27.2926Z" fill="#EAFFC4"/>
<path d="M44.8633 25.8724C44.3514 21.8136 42.3928 18.0756 39.3471 15.3444C36.3014 12.6132 32.3728 11.072 28.2824 11.0037L29.4483 9.84733C29.5327 9.76482 29.5999 9.66643 29.6461 9.55783C29.6923 9.44924 29.7165 9.33257 29.7174 9.21457C29.7183 9.09656 29.6959 8.97954 29.6513 8.87025C29.6068 8.76096 29.5411 8.66155 29.458 8.57776C29.3749 8.49397 29.2761 8.42745 29.1671 8.38203C29.0582 8.33661 28.9414 8.31318 28.8234 8.31311C28.7054 8.31304 28.5885 8.33631 28.4795 8.38159C28.3706 8.42688 28.2716 8.49327 28.1884 8.57696L25.3545 11.3879C25.2711 11.4706 25.2048 11.5689 25.1594 11.6773C25.114 11.7856 25.0903 11.9018 25.0899 12.0193C25.0894 12.1368 25.112 12.2532 25.1566 12.3619C25.2011 12.4707 25.2666 12.5695 25.3493 12.6529L28.1831 15.5101C28.2656 15.5945 28.364 15.6617 28.4726 15.7079C28.5812 15.7541 28.6979 15.7783 28.8159 15.7792C28.9339 15.7801 29.0509 15.7577 29.1602 15.7132C29.2695 15.6686 29.3689 15.6029 29.4527 15.5198C29.5365 15.4367 29.603 15.3379 29.6484 15.229C29.6939 15.1201 29.7173 15.0032 29.7173 14.8852C29.7174 14.7672 29.6941 14.6503 29.6489 14.5414C29.6036 14.4324 29.5372 14.3334 29.4535 14.2502L28.0085 12.7936C31.159 12.7957 34.2311 13.776 36.8004 15.5992C39.3697 17.4224 41.3095 19.9985 42.3518 22.9716C43.394 25.9447 43.4873 29.1681 42.6188 32.1965C41.7502 35.2248 39.9627 37.9088 37.5031 39.8776C37.4115 39.9511 37.3352 40.0419 37.2786 40.1448C37.2221 40.2478 37.1864 40.3609 37.1735 40.4777C37.1476 40.7135 37.2164 40.95 37.3648 41.1351C37.5133 41.3201 37.7291 41.4387 37.965 41.4646C38.2008 41.4906 38.4373 41.4217 38.6223 41.2733C43.2758 37.5412 45.609 31.7841 44.8633 25.8724Z" fill="#575B6D"/>
<path d="M27.8171 40.4901C27.7345 40.4058 27.6362 40.3385 27.5276 40.2924C27.419 40.2462 27.3023 40.2219 27.1843 40.221C27.0663 40.2201 26.9493 40.2426 26.84 40.2871C26.7307 40.3316 26.6313 40.3973 26.5475 40.4804C26.4637 40.5635 26.3972 40.6624 26.3518 40.7713C26.3063 40.8802 26.2829 40.997 26.2828 41.115C26.2828 41.2331 26.306 41.3499 26.3513 41.4589C26.3966 41.5679 26.463 41.6668 26.5467 41.75L27.9917 43.2067C24.8417 43.2046 21.7701 42.2244 19.2011 40.4016C16.632 38.5788 14.6923 36.0033 13.6499 33.0308C12.6074 30.0583 12.5136 26.8355 13.3813 23.8074C14.2491 20.7793 16.0357 18.0953 18.4943 16.1261C18.6794 15.9776 18.7979 15.7616 18.8237 15.5257C18.8496 15.2898 18.7807 15.0533 18.6322 14.8682C18.4836 14.6831 18.2676 14.5646 18.0317 14.5388C17.7958 14.5129 17.5593 14.5818 17.3742 14.7304C12.7231 18.4624 10.3912 24.2184 11.1369 30.1279C11.6488 34.1868 13.6073 37.9248 16.6532 40.656C19.699 43.3872 23.6276 44.9282 27.7181 44.9962L26.5522 46.153C26.4679 46.2355 26.4006 46.3339 26.3545 46.4425C26.3083 46.5511 26.284 46.6678 26.2831 46.7858C26.2822 46.9038 26.3047 47.0208 26.3492 47.1301C26.3937 47.2394 26.4594 47.3388 26.5425 47.4226C26.6256 47.5064 26.7245 47.5729 26.8334 47.6183C26.9423 47.6637 27.0591 47.6871 27.1771 47.6872C27.2952 47.6873 27.412 47.664 27.521 47.6187C27.63 47.5735 27.7289 47.5071 27.8121 47.4234L30.6459 44.6125C30.7293 44.5298 30.7957 44.4314 30.8411 44.3231C30.8865 44.2148 30.9101 44.0985 30.9106 43.981C30.9111 43.8636 30.8885 43.7471 30.8439 43.6384C30.7994 43.5297 30.7339 43.4308 30.6512 43.3474L27.8171 40.4901Z" fill="#575B6D"/>
</svg>
