<svg width="56" height="56" viewBox="0 0 56 56" fill="none" xmlns="http://www.w3.org/2000/svg">
<path d="M38.1778 11.1159C38.1703 10.5639 37.9573 10.0288 37.5617 9.58453C37.0266 8.98375 36.2255 8.625 35.4186 8.625H20.5813C19.7739 8.625 18.9727 8.98352 18.438 9.58391C18.0424 10.0282 17.8295 10.5634 17.822 11.1159C15.8114 11.303 14.2192 13.0194 14.2192 15.0679V37.1868C14.2192 39.3755 15.9999 41.1561 18.1885 41.1561H20.3133L16.3029 47.3751H21.1178L21.8185 45.4773H34.1798L34.8798 47.3751H39.697L35.6867 41.1561H37.8092C39.999 41.1561 41.7806 39.3755 41.7806 37.1868V15.0679C41.7806 13.0194 40.1885 11.303 38.1778 11.1159ZM22.6448 43.2395L23.414 41.1561H32.586L33.3544 43.2395H22.6448Z" fill="#D83131"/>
<path d="M37.5619 9.58453C37.0268 8.98375 36.2257 8.625 35.4189 8.625H20.5815C19.7742 8.625 18.9729 8.98352 18.4382 9.58391C17.9742 10.1051 17.7604 10.7513 17.8363 11.4036L19.3393 24.32C19.5223 25.8934 20.6767 27.0355 22.0846 27.0355H33.9157C35.3449 27.0355 36.4728 25.9188 36.6587 24.3201L38.164 11.4036C38.2398 10.7517 38.0259 10.1057 37.5618 9.58453H37.5619Z" fill="#8AC9FE"/>
<path d="M37.5619 9.58453C37.0268 8.98375 36.2257 8.625 35.4189 8.625H20.5815C19.7742 8.625 18.9729 8.98352 18.4382 9.58391C17.9742 10.1051 17.7604 10.7513 17.8363 11.4036L18.114 13.7902H27.4533V27.0355H28.5471V13.7902H37.886L38.1641 11.4036C38.2399 10.7517 38.026 10.1057 37.5619 9.58453Z" fill="#5E5F62"/>
<path d="M22.1647 32.1455C21.9697 31.5478 21.5426 31.1909 21.0224 31.1909L18.4562 31.1864C17.9427 31.1864 17.4957 31.5077 17.3441 31.9855C17.1847 32.4853 17.3768 33.0144 17.8116 33.2725L20.5821 34.9083C20.8278 35.053 21.0869 35.1255 21.3406 35.1255C21.5744 35.1255 21.8037 35.0638 22.0133 34.9404C22.4597 34.6802 22.8283 34.1693 22.6455 33.6148L22.1647 32.1454V32.1455Z" fill="#FF8C8A"/>
<path d="M38.6562 31.9847C38.5019 31.5072 38.0552 31.1865 37.5441 31.1865L34.9765 31.191C34.4559 31.191 34.0287 31.5479 33.8336 32.1458L33.3526 33.6157C33.173 34.1706 33.542 34.6809 33.9863 34.9397C34.1969 35.0638 34.4266 35.1257 34.6604 35.1257C34.9138 35.1257 35.1722 35.053 35.4167 34.9082L38.1867 33.2727C38.623 33.0155 38.8162 32.4862 38.6562 31.9847Z" fill="#FF8C8A"/>
<path d="M34.943 11.755C34.9261 11.755 34.9092 11.7542 34.8922 11.7527H21.0576C20.7556 11.7527 20.5107 11.5078 20.5107 11.2058C20.5107 10.9038 20.7556 10.6589 21.0576 10.6589H34.9662L35.0211 10.667C35.32 10.7105 35.5271 10.9881 35.4835 11.287C35.4439 11.5591 35.2101 11.755 34.943 11.755Z" fill="#9C9C9C"/>
<path d="M36.7919 13.7902L35.5647 24.3201C35.3789 25.9188 34.2509 27.0355 32.8218 27.0355H33.9155C35.3447 27.0355 36.4726 25.9188 36.6585 24.3201L37.8857 13.7902H36.7919Z" fill="#60B7FF"/>
<path d="M35.4185 8.625H34.3247C35.1316 8.625 35.9327 8.98375 36.4678 9.58453C36.9318 10.1057 37.1457 10.7517 37.0699 11.4036L36.7918 13.7902H37.8856L38.1637 11.4036C38.2395 10.7517 38.0256 10.1057 37.5615 9.58453C37.0264 8.98375 36.2253 8.625 35.4185 8.625Z" fill="#51504F"/>
<path d="M25.7735 35.7046C24.4053 35.7046 23.2989 36.7976 23.0829 38.3627L22.6987 41.156H33.3014L32.9171 38.3626C32.7011 36.7976 31.5938 35.7046 30.2243 35.7046H25.7735Z" fill="#5E5F62"/>
<path d="M32.9169 38.3627C32.7009 36.7977 31.5937 35.7047 30.2241 35.7047H29.1304C30.4998 35.7047 31.6072 36.7977 31.8232 38.3627L32.2075 41.1561H33.3012L32.9169 38.3627Z" fill="#51504F"/>
<path d="M38.1778 11.1158C38.1792 11.2114 38.175 11.3074 38.1638 11.4036L38.1558 11.4723C39.5082 12.1094 40.4524 13.4902 40.4524 15.0679V37.1868C40.4524 39.3755 38.6708 41.1561 36.481 41.1561H37.8091C39.9989 41.1561 41.7806 39.3755 41.7806 37.1868V15.0679C41.7806 13.0194 40.1884 11.303 38.1778 11.1158H38.1778Z" fill="#C92D2D"/>
<path d="M23.4138 41.156L21.1177 47.375H16.3027L20.3131 41.156H23.4138ZM32.5858 41.156L34.8796 47.375H39.6969L35.6865 41.156H32.5858Z" fill="#9C9C9C"/>
<path d="M19.7896 47.375H21.1177L23.4138 41.156H22.0857L19.7896 47.375Z" fill="#838383"/>
<path d="M35.6865 41.156H34.3584L38.3689 47.375H39.697L35.6865 41.156Z" fill="#838383"/>
<path d="M33.3543 43.2394H22.6446L21.8184 45.4772H34.1797L33.3543 43.2394Z" fill="#9B5E5E"/>
<path d="M32.8518 45.4772H34.1799L33.3545 43.2394H32.0264L32.8518 45.4772Z" fill="#844E4E"/>
</svg>
