<svg width="56" height="56" viewBox="0 0 56 56" fill="none" xmlns="http://www.w3.org/2000/svg">
<g clip-path="url(#clip0_15082_7608)">
<path d="M9.26984 27.3651H11.1228C12.0066 24.5516 13.843 22.1599 16.254 20.5684V17.2131C16.254 16.2024 17.3795 15.5885 18.2203 16.1493C19.0425 16.6977 19.9817 17.5223 20.7534 18.7093C21.5259 18.5656 22.435 18.4762 23.2382 18.4762H31.4922C40.1984 18.4762 45.182 24.1614 45.182 31.1746C45.182 38.2871 40.3037 43.7736 38.3541 45.6824C37.8768 46.1496 37.2394 46.4126 36.5716 46.4126H35.3016C34.6002 46.4126 34.0317 45.8441 34.0317 45.1428V43.8729L33.4807 43.2397H23.2569L23.2381 45.1428C23.2381 45.8441 22.6696 46.4126 21.9683 46.4126H19.1502C18.4823 46.4126 17.8448 46.1496 17.3677 45.6824C15.7835 44.1315 12.2662 40.2188 11.0028 34.991L9.26992 34.984C8.56852 34.9842 8 34.4157 8 33.7143V28.6349C8 27.9336 8.56852 27.3651 9.26984 27.3651Z" fill="#FD9BAC"/>
<path d="M16.2541 28.6349C15.9031 28.6349 15.6191 28.3509 15.6191 28V27.3651C15.6191 27.0141 15.9031 26.7302 16.2541 26.7302C16.605 26.7302 16.889 27.0141 16.889 27.3651V28C16.889 28.3509 16.605 28.6349 16.2541 28.6349Z" fill="#E6636F"/>
<path d="M33.3967 21.6508H27.0475C26.6966 21.6508 26.4126 21.3668 26.4126 21.0158C26.4126 20.6652 26.6966 20.3809 27.0475 20.3809H33.3967C33.7477 20.3809 34.0317 20.6652 34.0317 21.0158C34.0317 21.3668 33.7477 21.6508 33.3967 21.6508Z" fill="#E6636F"/>
<path d="M48.0001 21.6507C48.0001 19.9004 46.5759 18.4761 44.8255 18.4761C44.4745 18.4761 44.1905 18.7604 44.1905 19.1111C44.1905 19.4617 44.4745 19.746 44.8255 19.746C45.8758 19.746 46.7302 20.6004 46.7302 21.6507C46.7302 22.7009 45.8761 23.5552 44.826 23.5555C42.5093 20.4713 38.8211 18.4761 34.6668 18.4761H31.4922C38.5053 18.4761 44.1905 24.1614 44.1905 31.1745V31.1746C44.1905 40.0634 36.5715 46.4127 36.5715 46.4127H38.7547C39.4226 46.4127 40.06 46.1497 40.5373 45.6825C42.487 43.7737 47.3652 38.2871 47.3652 31.1747C47.3652 28.821 46.7241 26.6174 45.6081 24.7275C46.9812 24.378 48.0001 23.1311 48.0001 21.6507Z" fill="#E6636F"/>
<path d="M33.3968 40.6984C33.0518 40.6984 32.7711 40.9735 32.7621 41.3163C32.7435 42.0234 32.1994 42.6032 31.492 42.6032H23.8729V41.6508C23.8729 41.1248 23.4465 40.6985 22.9206 40.6985C22.3946 40.6985 21.9683 41.1249 21.9683 41.6508V46.4127H22.6032C23.3045 46.4127 23.873 45.8442 23.873 45.1429V43.873H34.0318V41.3333C34.0317 40.9826 33.7475 40.6984 33.3968 40.6984Z" fill="#E6636F"/>
<path fill-rule="evenodd" clip-rule="evenodd" d="M31.7018 14.8734C31.2476 15.3276 30.6689 15.6369 30.0388 15.7622C29.4088 15.8876 28.7557 15.8232 28.1623 15.5774C27.5688 15.3316 27.0615 14.9153 26.7046 14.3812C26.3477 13.847 26.1573 13.2191 26.1573 12.5767C26.1573 11.9343 26.3477 11.3064 26.7046 10.7723C27.0615 10.2381 27.5688 9.82185 28.1623 9.57602C28.7557 9.33019 29.4088 9.26587 30.0388 9.39119C30.6689 9.51651 31.2476 9.82584 31.7018 10.2801C32.3109 10.8892 32.6531 11.7153 32.6531 12.5767C32.6531 13.4381 32.3109 14.2643 31.7018 14.8734ZM26.169 15.8128C26.9519 16.5952 27.9918 17.0673 29.0961 17.1416C30.2004 17.216 31.2942 16.8876 32.175 16.2174C33.0557 15.5471 33.6636 14.5803 33.8862 13.4961C34.1087 12.4119 33.9308 11.2838 33.3853 10.3207C32.8398 9.35769 31.9638 8.62498 30.9195 8.25835C29.8751 7.89172 28.7333 7.91601 27.7056 8.32672C26.6778 8.73743 25.8337 9.50672 25.3297 10.4921C24.8257 11.4775 24.6958 12.6121 24.9643 13.6859C25.1656 14.491 25.582 15.2262 26.169 15.8128Z" fill="#FFD05B"/>
<path d="M31.7018 14.8734C31.2476 15.3276 30.6689 15.6369 30.0388 15.7622C29.4088 15.8876 28.7557 15.8232 28.1623 15.5774C27.5688 15.3316 27.0615 14.9153 26.7046 14.3812C26.3477 13.847 26.1573 13.2191 26.1573 12.5767C26.1573 11.9343 26.3477 11.3064 26.7046 10.7723C27.0615 10.2381 27.5688 9.82185 28.1623 9.57602C28.7557 9.33019 29.4088 9.26587 30.0388 9.39119C30.6689 9.51651 31.2476 9.82584 31.7018 10.2801C32.3109 10.8892 32.6531 11.7153 32.6531 12.5767C32.6531 13.4381 32.3109 14.2643 31.7018 14.8734Z" fill="#FFE077"/>
<path fill-rule="evenodd" clip-rule="evenodd" d="M30.6244 11.7306C30.6381 11.7659 30.6447 11.8035 30.6438 11.8413C30.6429 11.8791 30.6345 11.9164 30.6191 11.9509C30.6037 11.9855 30.5816 12.0166 30.5541 12.0426C30.5266 12.0685 30.4942 12.0887 30.4588 12.1021C30.4234 12.1154 30.3857 12.1216 30.3479 12.1202C30.3101 12.1189 30.2729 12.11 30.2385 12.0942C30.2042 12.0784 30.1733 12.056 30.1477 12.0281C30.122 12.0003 30.1022 11.9677 30.0893 11.9321C30.0255 11.7455 29.8915 11.5911 29.7157 11.5018C29.6301 11.4637 29.5377 11.4434 29.444 11.442C29.3503 11.4406 29.2574 11.4581 29.1707 11.4936C29.0769 11.5265 28.9949 11.5862 28.9349 11.6653C28.8935 11.7201 28.8692 11.7859 28.8649 11.8544C28.8627 11.9186 28.882 11.9817 28.9199 12.0337C28.9854 12.117 29.0732 12.18 29.1731 12.2154C29.2894 12.2528 29.409 12.2788 29.5303 12.293C29.8499 12.3407 30.1476 12.3855 30.4367 12.7327C30.5519 12.8673 30.6261 13.0322 30.6504 13.2077C30.67 13.3589 30.6489 13.5126 30.5892 13.653C30.5292 13.7931 30.4364 13.9167 30.3187 14.0135C30.1426 14.1561 29.9295 14.2456 29.7043 14.2715C29.363 14.3159 29.0042 14.2617 28.7157 14.0946C28.575 14.0153 28.4527 13.9071 28.3569 13.7771C28.261 13.6471 28.1937 13.4982 28.1595 13.3404C28.1433 13.2667 28.1569 13.1897 28.1972 13.1259C28.2376 13.0622 28.3015 13.017 28.375 13.0002C28.4485 12.9834 28.5257 12.9963 28.5898 13.0361C28.6538 13.0759 28.6996 13.1394 28.717 13.2128C28.7346 13.2938 28.7691 13.3701 28.8182 13.4368C28.8674 13.5036 28.9301 13.5591 29.0023 13.5998C29.1788 13.702 29.4074 13.734 29.6305 13.705C29.7484 13.693 29.8605 13.6478 29.9537 13.5747C30.0011 13.5364 30.0387 13.4873 30.0632 13.4315C30.0834 13.3843 30.0906 13.3326 30.0842 13.2817C30.0735 13.2135 30.0437 13.1497 29.998 13.0978C29.8499 12.9199 29.6559 12.8909 29.4477 12.8596C29.2875 12.8405 29.1297 12.8049 28.9768 12.7532C28.9716 12.7514 28.9663 12.7494 28.9609 12.7473C28.7578 12.671 28.581 12.5375 28.4521 12.363C28.3416 12.2086 28.2861 12.0217 28.2944 11.8321C28.3034 11.6505 28.3659 11.4757 28.4741 11.3296C28.6003 11.1587 28.7742 11.0288 28.974 10.9564C29.1317 10.8942 29.3004 10.8646 29.4699 10.8695C29.6393 10.8743 29.806 10.9135 29.9599 10.9847C30.2556 11.1244 30.4931 11.3839 30.6244 11.7306Z" fill="#283B48"/>
<path fill-rule="evenodd" clip-rule="evenodd" d="M29.7114 11.1231C29.7114 11.1991 29.6812 11.272 29.6274 11.3258C29.5737 11.3795 29.5008 11.4097 29.4248 11.4097C29.3488 11.4097 29.2759 11.3795 29.2221 11.3258C29.1684 11.272 29.1382 11.1991 29.1382 11.1231V10.6342C29.1382 10.5582 29.1684 10.4853 29.2221 10.4316C29.2759 10.3778 29.3488 10.3477 29.4248 10.3477C29.5008 10.3477 29.5737 10.3778 29.6274 10.4316C29.6812 10.4853 29.7114 10.5582 29.7114 10.6342V11.1231Z" fill="#283B48"/>
<path fill-rule="evenodd" clip-rule="evenodd" d="M29.7114 14.5191C29.7114 14.5951 29.6812 14.668 29.6274 14.7218C29.5737 14.7755 29.5008 14.8057 29.4248 14.8057C29.3488 14.8057 29.2759 14.7755 29.2221 14.7218C29.1684 14.668 29.1382 14.5951 29.1382 14.5191V14.0239C29.1382 13.9479 29.1684 13.875 29.2221 13.8212C29.2759 13.7675 29.3488 13.7373 29.4248 13.7373C29.5008 13.7373 29.5737 13.7675 29.6274 13.8212C29.6812 13.875 29.7114 13.9479 29.7114 14.0239V14.5191Z" fill="#283B48"/>
</g>
<defs>
<clipPath id="clip0_15082_7608">
<rect width="40" height="40" fill="white" transform="translate(8 8)"/>
</clipPath>
</defs>
</svg>
