<svg width="56" height="56" viewBox="0 0 56 56" fill="none" xmlns="http://www.w3.org/2000/svg">
<path d="M48 43.25H8L13.6666 31.4166H42.3334L48 43.25Z" fill="#EAECF5"/>
<path d="M48 43.25H8C8 44.4166 9 45.4166 10.1666 45.4166H45.8333C47 45.4166 48 44.4166 48 43.25Z" fill="#D5D9EB"/>
<path d="M19.8337 33.0834L20.0004 32.25H18.167L17.917 33.0834H19.8337Z" fill="#415A6B"/>
<path d="M38.8334 33.0834H40.75L40.4166 32.25H38.5L38.8334 33.0834Z" fill="#415A6B"/>
<path d="M39.2504 34.3333H41.2504L40.8337 33.4166H38.917L39.2504 34.3333Z" fill="#415A6B"/>
<path d="M25.0001 33.0834L25.0835 32.25H23.2501L23.0835 33.0834H25.0001Z" fill="#415A6B"/>
<path d="M27.6666 33.0834V32.25H25.8334L25.75 33.0834H27.6666Z" fill="#415A6B"/>
<path d="M22.4166 33.0834L22.5834 32.25H20.75L20.5 33.0834H22.4166Z" fill="#415A6B"/>
<path d="M31.25 36.0834L31.3334 37.1667H33.5L33.3334 36.0834H31.25Z" fill="#415A6B"/>
<path d="M37 36.0834L37.25 37.1667H39.4166L39.0834 36.0834H37Z" fill="#415A6B"/>
<path d="M17.5 32.25H15.5834L15.25 33.0834H17.1666L17.5 32.25Z" fill="#415A6B"/>
<path d="M16.1668 36.0834H14.0835L13.5835 37.1667H15.7501L16.1668 36.0834Z" fill="#415A6B"/>
<path d="M19.75 36.0834L19.5 37.1667H30.5834L30.5 36.0834H19.75Z" fill="#415A6B"/>
<path d="M16.5837 34.6666H14.5837L14.167 35.75H16.2504L16.5837 34.6666Z" fill="#415A6B"/>
<path d="M30.2501 33.0834L30.1668 32.25H28.3335V33.0834H30.2501Z" fill="#415A6B"/>
<path d="M16.9168 36.0834L16.5835 37.1667H18.7501L19.0001 36.0834H16.9168Z" fill="#415A6B"/>
<path d="M22.167 34.3333L22.3337 33.4166H20.417L20.167 34.3333H22.167Z" fill="#415A6B"/>
<path d="M39.7504 35.75H41.8337L41.417 34.6666H39.417L39.7504 35.75Z" fill="#415A6B"/>
<path d="M40.2501 37.1667H42.4168L41.9168 36.0834H39.8335L40.2501 37.1667Z" fill="#415A6B"/>
<path d="M25.5835 34.6666V35.75H27.5835L27.6668 34.6666H25.5835Z" fill="#415A6B"/>
<path d="M22.8334 34.6666L22.75 35.75H24.75L24.9166 34.6666H22.8334Z" fill="#415A6B"/>
<path d="M20.0835 34.6666L19.8335 35.75H21.9168L22.0835 34.6666H20.0835Z" fill="#415A6B"/>
<path d="M33.0834 34.3333L32.9166 33.4166H31L31.0834 34.3333H33.0834Z" fill="#415A6B"/>
<path d="M35.8337 34.3333L35.5837 33.4166H33.667L33.8337 34.3333H35.8337Z" fill="#415A6B"/>
<path d="M30.3335 34.3333L30.2501 33.4166H28.3335V34.3333H30.3335Z" fill="#415A6B"/>
<path d="M27.667 34.3333V33.4166H25.7504L25.667 34.3333H27.667Z" fill="#415A6B"/>
<path d="M24.917 34.3333L25.0004 33.4166H23.0837L22.917 34.3333H24.917Z" fill="#415A6B"/>
<path d="M19.3334 34.6666H17.3334L17 35.75H19.0834L19.3334 34.6666Z" fill="#415A6B"/>
<path d="M28.3335 34.6666L28.4168 35.75H30.4168V34.6666H28.3335Z" fill="#415A6B"/>
<path d="M36.5 34.3333H38.5L38.25 33.4166H36.25L36.5 34.3333Z" fill="#415A6B"/>
<path d="M36.917 35.75H39.0003L38.667 34.6666H36.667L36.917 35.75Z" fill="#415A6B"/>
<path d="M38.0834 33.0834L37.8334 32.25H36L36.1666 33.0834H38.0834Z" fill="#415A6B"/>
<path d="M35.3337 32.25L35.5004 33.0834H31.0004L30.917 32.25H35.3337Z" fill="#415A6B"/>
<path d="M31.0835 34.6666L31.2501 35.75H33.2501L33.1668 34.6666H31.0835Z" fill="#415A6B"/>
<path d="M33.917 34.75L34.3337 37.1666H36.5004L35.917 34.75H33.917Z" fill="#415A6B"/>
<path d="M19.75 33.4166H15.1666L14.75 34.3333H19.5L19.75 33.4166Z" fill="#415A6B"/>
<path d="M32.6668 41.9167H23.3335L25.2501 38.0834H30.7501L32.6668 41.9167Z" fill="#D5D9EB"/>
<path d="M13.6665 12.3334V31.4167H42.3331V12.3334C42.3331 11.4167 41.5831 10.5834 40.5831 10.5834H15.4165C14.4165 10.5834 13.6665 11.4167 13.6665 12.3334Z" fill="#575B6D"/>
<path d="M40.5831 12.3334H15.4165V29.75H40.5831V12.3334Z" fill="#B7CDFC"/>
</svg>
