<svg width="56" height="56" viewBox="0 0 56 56" fill="none" xmlns="http://www.w3.org/2000/svg">
<g clip-path="url(#clip0_15017_6922)">
<path d="M36.4328 11.3318C36.3674 11.3318 36.3009 11.3208 36.2358 11.2976C35.931 11.1889 35.7721 10.8536 35.881 10.5489L36.6517 8.38924C36.7605 8.08448 37.0957 7.92557 37.4005 8.0344C37.7053 8.14315 37.8642 8.47839 37.7553 8.78315L36.9846 10.9428C36.8991 11.1824 36.6735 11.3318 36.4328 11.3318Z" fill="#C6855B"/>
<path d="M26.3414 48C26.2911 48 26.2401 47.9936 26.1893 47.9799C25.8768 47.8962 25.6913 47.5748 25.775 47.2622L31.8668 24.5275C31.9506 24.2148 32.2723 24.0298 32.5844 24.1131C32.897 24.1969 33.0825 24.5182 32.9988 24.8308L26.9071 47.5656C26.8368 47.8274 26.6 48 26.3414 48Z" fill="#C6855B"/>
<path d="M47.0123 25.04C47.104 18.284 42.536 12.3071 36.0366 10.6381C29.6446 8.99668 22.8689 11.9032 19.626 17.7018L47.0123 25.04Z" fill="#EF5261"/>
<path d="M38.0914 25.6484L37.8838 22.5939L47.0126 25.04L45.3056 27.5814C45.1193 27.8587 44.7775 27.9869 44.4549 27.9004L38.6686 26.35C38.3461 26.2635 38.114 25.9816 38.0914 25.6484Z" fill="#FDB62F"/>
<path d="M42.8219 27.1101C42.742 27.2291 42.6332 27.3204 42.5098 27.3793L44.4546 27.9004C44.7772 27.9869 45.1191 27.8587 45.3053 27.5814L47.0123 25.04L44.6637 24.4107L42.8219 27.1101Z" fill="#FFA83D"/>
<path d="M28.9625 23.2023L28.7549 20.1478L37.8837 22.5939L36.1767 25.1353C35.9904 25.4126 35.6486 25.5408 35.326 25.4543L29.5397 23.9039C29.2171 23.8175 28.9852 23.5355 28.9625 23.2023Z" fill="#EF5261"/>
<path d="M19.8336 20.7562L19.626 17.7018L28.7549 20.1479L27.0479 22.6893C26.8616 22.9665 26.5197 23.0948 26.1971 23.0083L20.4109 21.4579C20.0882 21.3715 19.8562 21.0895 19.8336 20.7562Z" fill="#FDB62F"/>
<path d="M38.3464 15.8822C38.2853 14.1523 38.0909 12.5912 37.8435 11.2313C37.2604 10.9964 36.6574 10.7974 36.0367 10.6381C35.6524 10.5394 35.2667 10.4575 34.8805 10.3914C33.8755 11.3945 32.7392 12.6937 31.6524 14.3226C30.2122 16.4811 29.3189 18.5289 28.7549 20.1478L32.4182 21.1294L37.8837 22.5938C38.2054 20.7476 38.4379 18.4747 38.3464 15.8822Z" fill="#FDB62F"/>
<path d="M34.8804 10.3914C34.7338 10.5376 34.5842 10.691 34.4326 10.8499C35.7347 11.2591 36.9514 11.8434 38.0586 12.5734C37.9937 12.1068 37.9212 11.6591 37.8433 11.2313C37.3874 11.0477 36.9226 10.8884 36.45 10.7515C35.9352 10.6024 35.4075 10.4817 34.8804 10.3914Z" fill="#FFA83D"/>
<path d="M14.3443 47.414C14.1819 47.414 14.017 47.38 13.8596 47.3084C13.2705 47.0403 13.0103 46.3455 13.2784 45.7564L15.6222 40.6063C15.8903 40.0172 16.5851 39.757 17.1742 40.0251C17.7633 40.2931 18.0235 40.988 17.7554 41.577L15.4116 46.7272C15.2151 47.1588 14.7895 47.414 14.3443 47.414Z" fill="#C6855B"/>
<path d="M38.4722 47.414C38.6346 47.414 38.7995 47.38 38.9569 47.3084C39.546 47.0403 39.8062 46.3455 39.5381 45.7564L37.1943 40.6063C36.9262 40.0172 36.2314 39.757 35.6423 40.0251C35.0532 40.2931 34.793 40.988 35.0611 41.577L37.4049 46.7272C37.6014 47.1588 38.027 47.414 38.4722 47.414Z" fill="#C6855B"/>
<path d="M12.5478 42.2638H35.5809C36.2052 42.2638 36.8039 42.0147 37.2438 41.5716L45.474 33.2843C45.5965 33.1609 45.5467 32.9518 45.3818 32.8968L43.5883 32.299C42.2125 31.8404 40.6956 32.2065 39.6805 33.2423L35.5507 37.4563C35.2558 37.7573 34.8519 37.9263 34.4306 37.9252L15.727 37.8745C13.8436 37.8682 12.3135 39.3933 12.3135 41.2766V42.0294C12.3135 42.1589 12.4185 42.2638 12.5478 42.2638Z" fill="#2F61F3"/>
<path d="M45.628 47.9999H9.57177C9.24818 47.9999 8.98584 47.7376 8.98584 47.4139C8.98584 47.0903 9.24818 46.828 9.57177 46.828H45.628C45.9516 46.828 46.2139 47.0903 46.2139 47.4139C46.2139 47.7376 45.9516 47.9999 45.628 47.9999Z" fill="#575B6D"/>
</g>
<defs>
<clipPath id="clip0_15017_6922">
<rect width="40" height="40" fill="white" transform="translate(8 8)"/>
</clipPath>
</defs>
</svg>
