<svg width="56" height="56" viewBox="0 0 56 56" fill="none" xmlns="http://www.w3.org/2000/svg">
<path d="M36.7636 32.0382H42.2908C42.4261 32.0382 42.5559 32.092 42.6516 32.1876C42.7473 32.2833 42.801 32.4131 42.8011 32.5484V34.3765C42.8011 34.5118 42.7473 34.6416 42.6516 34.7373C42.5559 34.833 42.4262 34.8867 42.2909 34.8867H36.7636C36.6283 34.8867 36.4985 34.833 36.4028 34.7373C36.3072 34.6416 36.2534 34.5118 36.2534 34.3765V32.5484C36.2534 32.4131 36.3072 32.2833 36.4028 32.1876C36.4985 32.092 36.6283 32.0382 36.7636 32.0382Z" fill="#ECEFF1"/>
<path fill-rule="evenodd" clip-rule="evenodd" d="M36.7639 32.0382H42.2911C42.4263 32.0386 42.5559 32.0925 42.6515 32.1881C42.747 32.2837 42.8009 32.4132 42.8013 32.5484V34.3765C42.8009 34.5117 42.7471 34.6413 42.6515 34.7369C42.5559 34.8325 42.4263 34.8864 42.2911 34.8868H36.7639C36.6287 34.8864 36.4991 34.8325 36.4035 34.7369C36.3079 34.6413 36.254 34.5117 36.2537 34.3765V32.5484C36.254 32.4132 36.3079 32.2836 36.4035 32.188C36.4991 32.0924 36.6287 32.0386 36.7639 32.0382ZM37.8642 37.9508H45.3672V28.8987H37.8642C34.5051 28.8987 31.7568 30.9355 31.7568 33.4248C31.7568 35.914 34.5052 37.9508 37.8642 37.9508Z" fill="#8C5F5F"/>
<path fill-rule="evenodd" clip-rule="evenodd" d="M31.7568 33.4247C31.7568 30.9357 34.5051 28.8987 37.8641 28.8987H45.3672V25.8996C45.3642 24.8955 44.9641 23.9334 44.2541 23.2235C43.5441 22.5135 42.582 22.1133 41.578 22.1104H34.8524C34.4146 23.8607 33.4043 25.4145 31.9821 26.5248C30.5599 27.6351 28.8074 28.2381 27.0032 28.2381C25.1989 28.2381 23.4464 27.6351 22.0243 26.5248C20.6021 25.4145 19.5918 23.8607 19.154 22.1104H14.422C13.4179 22.1134 12.4558 22.5135 11.7459 23.2235C11.0359 23.9334 10.6358 24.8955 10.6328 25.8996V40.9499C10.6357 41.9539 11.0359 42.916 11.7459 43.626C12.4559 44.336 13.418 44.7362 14.422 44.7391H41.578C42.582 44.7362 43.5441 44.336 44.2541 43.626C44.9641 42.916 45.3643 41.9539 45.3672 40.9499V37.9508H37.8641C34.5052 37.9508 31.7568 35.914 31.7568 33.4247Z" fill="#5A4146"/>
<path d="M27.0034 25.8905C30.1738 25.8905 32.744 23.3204 32.744 20.1499C32.744 16.9794 30.1738 14.4092 27.0034 14.4092C23.8329 14.4092 21.2627 16.9794 21.2627 20.1499C21.2627 23.3204 23.8329 25.8905 27.0034 25.8905Z" fill="#FFA83D"/>
<path fill-rule="evenodd" clip-rule="evenodd" d="M29.158 18.6544C29.1823 18.7167 29.194 18.7832 29.1924 18.85C29.1908 18.9169 29.1759 18.9827 29.1487 19.0438C29.1215 19.1049 29.0824 19.1599 29.0337 19.2058C28.9851 19.2516 28.9278 19.2874 28.8652 19.3109C28.8027 19.3345 28.7361 19.3454 28.6692 19.343C28.6024 19.3407 28.5367 19.3251 28.476 19.2971C28.4153 19.2692 28.3607 19.2295 28.3154 19.1803C28.2701 19.1311 28.235 19.0734 28.2122 19.0106C28.0995 18.6807 27.8626 18.4079 27.5518 18.25C27.4005 18.1827 27.2372 18.1467 27.0717 18.1443C26.9061 18.1418 26.7418 18.1728 26.5885 18.2356C26.4228 18.2936 26.2779 18.3992 26.1718 18.539C26.0986 18.6358 26.0556 18.7521 26.0482 18.8732C26.0442 18.9867 26.0784 19.0983 26.1454 19.1901C26.2611 19.3373 26.4163 19.4487 26.5928 19.5113C26.7984 19.5774 27.0098 19.6233 27.2242 19.6484C27.7891 19.7327 28.3152 19.812 28.8262 20.4256C29.0298 20.6635 29.1609 20.9549 29.204 21.2651C29.2386 21.5324 29.2013 21.8041 29.0957 22.0521C28.9897 22.2998 28.8257 22.5183 28.6176 22.6894C28.3064 22.9415 27.9297 23.0996 27.5318 23.1454C26.9285 23.2239 26.2943 23.128 25.7844 22.8328C25.5358 22.6926 25.3196 22.5013 25.1502 22.2715C24.9808 22.0417 24.8619 21.7787 24.8013 21.4997C24.7727 21.3695 24.7967 21.2333 24.868 21.1207C24.9394 21.008 25.0523 20.9282 25.1822 20.8984C25.3122 20.8687 25.4486 20.8915 25.5618 20.9618C25.6751 21.0322 25.7559 21.1444 25.7868 21.2741C25.8178 21.4173 25.8787 21.5523 25.9656 21.6702C26.0525 21.7881 26.1634 21.8863 26.291 21.9583C26.6029 22.1388 27.007 22.1954 27.4012 22.1442C27.6096 22.123 27.8078 22.0431 27.9726 21.9138C28.0564 21.8461 28.1228 21.7593 28.1661 21.6606C28.2018 21.5773 28.2146 21.4859 28.2031 21.396C28.1844 21.2754 28.1315 21.1626 28.0509 21.0709C27.7891 20.7565 27.4462 20.7053 27.0781 20.6499C26.795 20.6162 26.5161 20.5531 26.246 20.4618C26.2366 20.4586 26.2273 20.4552 26.2179 20.4514C25.8587 20.3166 25.5464 20.0806 25.3184 19.7721C25.1232 19.4993 25.0251 19.1689 25.0398 18.8337C25.0557 18.5128 25.1661 18.2038 25.3573 17.9456C25.5805 17.6435 25.8879 17.414 26.241 17.286C26.5197 17.176 26.8179 17.1238 27.1174 17.1324C27.4169 17.141 27.7116 17.2103 27.9835 17.3361C28.5062 17.5829 28.9259 18.0417 29.158 18.6544Z" fill="#FFE177"/>
<path fill-rule="evenodd" clip-rule="evenodd" d="M27.5443 17.5807C27.5443 17.715 27.4909 17.8439 27.396 17.9389C27.301 18.0338 27.1721 18.0872 27.0378 18.0872C26.9034 18.0872 26.7746 18.0338 26.6796 17.9389C26.5846 17.8439 26.5313 17.715 26.5312 17.5807V16.7166C26.5312 16.5823 26.5846 16.4534 26.6796 16.3584C26.7746 16.2634 26.9034 16.2101 27.0378 16.2101C27.1721 16.2101 27.301 16.2634 27.396 16.3584C27.4909 16.4534 27.5443 16.5823 27.5443 16.7166V17.5807Z" fill="#FFE177"/>
<path fill-rule="evenodd" clip-rule="evenodd" d="M27.5443 23.5828C27.5443 23.7172 27.4909 23.846 27.396 23.941C27.301 24.036 27.1721 24.0894 27.0378 24.0894C26.9034 24.0894 26.7746 24.036 26.6796 23.941C26.5846 23.846 26.5313 23.7172 26.5312 23.5828V22.7075C26.5312 22.5732 26.5846 22.4443 26.6796 22.3493C26.7746 22.2544 26.9034 22.201 27.0378 22.201C27.1721 22.201 27.301 22.2544 27.396 22.3493C27.4909 22.4443 27.5443 22.5732 27.5443 22.7075V23.5828Z" fill="#FFE177"/>
<path fill-rule="evenodd" clip-rule="evenodd" d="M31.0626 24.2091C30.2597 25.012 29.2368 25.5587 28.1233 25.7802C27.0097 26.0017 25.8554 25.888 24.8065 25.4535C23.7575 25.019 22.8609 24.2832 22.2301 23.3392C21.5994 22.3951 21.2627 21.2852 21.2627 20.1498C21.2627 19.0144 21.5994 17.9045 22.2301 16.9605C22.8609 16.0165 23.7575 15.2807 24.8065 14.8462C25.8554 14.4117 27.0097 14.298 28.1233 14.5195C29.2368 14.741 30.2597 15.2877 31.0626 16.0906C32.1392 17.1671 32.744 18.6273 32.744 20.1498C32.744 21.6724 32.1392 23.1325 31.0626 24.2091ZM21.2834 25.8695C22.6672 27.2523 24.5052 28.0868 26.457 28.2182C28.4088 28.3497 30.3422 27.7693 31.8988 26.5846C33.4555 25.3998 34.5301 23.6911 34.9234 21.7748C35.3167 19.8585 35.0022 17.8646 34.0381 16.1624C33.0739 14.4603 31.5256 13.1652 29.6798 12.5172C27.834 11.8692 25.8159 11.9121 23.9993 12.6381C22.1827 13.364 20.6908 14.7237 19.8 16.4653C18.9091 18.2069 18.6796 20.2124 19.1541 22.1102C19.5099 23.5332 20.246 24.8327 21.2834 25.8695Z" fill="#FCD89F"/>
<path fill-rule="evenodd" clip-rule="evenodd" d="M34.6768 17.5842C35.1631 19.0457 35.2241 20.6154 34.8525 22.1102H41.5781C41.916 22.11 42.2523 22.1553 42.5781 22.2449V21.373C42.5751 20.369 42.175 19.4069 41.465 18.6969C40.755 17.9869 39.793 17.5868 38.7889 17.5838L34.6768 17.5842Z" fill="#2F4859"/>
<path fill-rule="evenodd" clip-rule="evenodd" d="M19.154 22.1102C18.7824 20.6154 18.8434 19.0457 19.3298 17.5842H14.422C13.4179 17.5872 12.4559 17.9874 11.7459 18.6974C11.0359 19.4073 10.6358 20.3694 10.6328 21.3734V25.8994C10.6358 24.8953 11.0359 23.9333 11.7459 23.2233C12.4559 22.5133 13.418 22.1132 14.422 22.1102H19.154Z" fill="#2F4859"/>
</svg>
