<svg width="56" height="56" viewBox="0 0 56 56" fill="none" xmlns="http://www.w3.org/2000/svg">
<path d="M40.0001 36.3333C42.5775 36.3333 44.6668 34.244 44.6668 31.6666C44.6668 29.0893 42.5775 27 40.0001 27C37.4228 27 35.3335 29.0893 35.3335 31.6666C35.3335 34.244 37.4228 36.3333 40.0001 36.3333Z" fill="#FDB62F"/>
<path d="M28.6669 13H27.3335V25.6666H28.6669V13Z" fill="#2F4859"/>
<path d="M28 13H26.6666C24.0893 13 22 10.9107 22 8.33337H23.3334C25.9107 8.33337 28 10.4227 28 13Z" fill="#88B337"/>
<path d="M31.3334 28.3334H22V31H31.3334V28.3334Z" fill="#FFA83D"/>
<path d="M32.6669 31H23.3335V33.6666H32.6669V31Z" fill="#FDB62F"/>
<path d="M31.3334 33.6666H22V36.3333H31.3334V33.6666Z" fill="#FFA83D"/>
<path d="M32.6669 36.3334H23.3335V39H32.6669V36.3334Z" fill="#FDB62F"/>
<path d="M32.6669 39H23.3335V41.6666H32.6669V39Z" fill="#FFA83D"/>
<path d="M33.9999 41.6666H24.6665V44.3333H33.9999V41.6666Z" fill="#FDB62F"/>
<path d="M32.6669 44.3334H23.3335V47H32.6669V44.3334Z" fill="#FFA83D"/>
<path d="M20 15H21.3334C25.0154 15 28 17.9847 28 21.6666H26.6666C22.9847 21.6666 20 18.682 20 15Z" fill="#88B337"/>
<path d="M34 8.33337H32.6666C30.0893 8.33337 28 10.4227 28 13H29.3334C31.9107 13 34 10.9107 34 8.33337Z" fill="#6B962A"/>
<path d="M29.3334 21.6666H28C28 17.9846 30.9847 15 34.6666 15H36C36 18.682 33.0153 21.6666 29.3334 21.6666Z" fill="#6B962A"/>
<path d="M19.3334 33.6666H10V36.3333H19.3334V33.6666Z" fill="#FDB62F"/>
<path d="M19.3334 36.3334H10V39H19.3334V36.3334Z" fill="#FFA83D"/>
<path d="M20.6669 39H11.3335V41.6666H20.6669V39Z" fill="#FDB62F"/>
<path d="M19.3334 41.6666H10V44.3333H19.3334V41.6666Z" fill="#FFA83D"/>
<path d="M20.6669 44.3333H11.3335V47H20.6669V44.3333Z" fill="#FDB62F"/>
<path d="M44.6669 36.3333H35.3335V39H44.6669V36.3333Z" fill="#FDB62F"/>
<path d="M45.9999 39H36.6665V41.6666H45.9999V39Z" fill="#FFA83D"/>
<path d="M45.9999 41.6666H36.6665V44.3333H45.9999V41.6666Z" fill="#FDB62F"/>
<path d="M45.9999 44.3334H36.6665V47H45.9999V44.3334Z" fill="#FFA83D"/>
<path d="M40.0001 34.3333C41.4729 34.3333 42.6668 33.1394 42.6668 31.6666C42.6668 30.1939 41.4729 29 40.0001 29C38.5274 29 37.3335 30.1939 37.3335 31.6666C37.3335 33.1394 38.5274 34.3333 40.0001 34.3333Z" fill="#FFA83D"/>
<path d="M40 34.3333V33C40.7366 33 41.3334 32.4033 41.3334 31.6666H42.6667C42.6666 33.1393 41.4727 34.3333 40 34.3333Z" fill="#FD7B2F"/>
<path d="M38.6669 31.6666H37.3335C37.3335 30.194 38.5275 29 40.0001 29V30.3334C39.2636 30.3334 38.6669 30.93 38.6669 31.6666Z" fill="#FD7B2F"/>
<path d="M41.3331 14.9999C41.1065 13.6319 40.0345 12.5599 38.6665 12.3332C40.0345 12.1066 41.1065 11.0346 41.3331 9.6666C41.5598 11.0346 42.6318 12.1066 43.9998 12.3332C42.6318 12.5599 41.5598 13.6319 41.3331 14.9999Z" fill="#FDB62F"/>
<path d="M14.6666 29.6665C14.44 28.2985 13.368 27.2265 12 26.9998C13.368 26.7732 14.44 25.7012 14.6666 24.3332C14.8933 25.7012 15.9653 26.7732 17.3333 26.9998C15.9653 27.2265 14.8934 28.2985 14.6666 29.6665Z" fill="#FDB62F"/>
<path d="M32.6669 25.6665H23.3335V28.3331H32.6669V25.6665Z" fill="#FDB62F"/>
<path d="M47.9999 23.6665H45.9999V21.6665H44.6665V23.6665H42.6665V24.9999H44.6665V26.9999H45.9999V24.9999H47.9999V23.6665Z" fill="#FDB62F"/>
<path d="M21.333 23C21.333 23.3682 21.0323 23.6725 20.6691 23.6118C18.7758 23.2956 17.333 21.6498 17.333 19.6666C17.333 19.2985 17.6315 19 17.9997 19C18.3679 19 18.6664 19.2985 18.6664 19.6666C18.6664 20.9115 19.5196 21.9573 20.6731 22.251C21.0299 22.3418 21.333 22.6318 21.333 23Z" fill="#2F4859"/>
</svg>
