<svg width="56" height="56" viewBox="0 0 56 56" fill="none" xmlns="http://www.w3.org/2000/svg">
<g clip-path="url(#clip0_14826_2203)">
<path d="M14 22.5249L24.9215 12.9557C26.384 11.6743 28.625 12.7509 28.625 14.7343V17.4765V22.5249H14Z" fill="#FCD89F"/>
<path d="M18.5 22.5251L30.3446 16.6188C31.8447 15.7998 33.6875 16.8663 33.6875 18.5527V22.5251H18.5Z" fill="#FFA83D"/>
<path d="M36.7636 32.0381H42.2908C42.4261 32.0381 42.5559 32.0919 42.6516 32.1876C42.7473 32.2833 42.801 32.413 42.8011 32.5483V34.3765C42.8011 34.5118 42.7473 34.6415 42.6516 34.7372C42.5559 34.8329 42.4262 34.8866 42.2909 34.8866H36.7636C36.6283 34.8866 36.4985 34.8329 36.4028 34.7372C36.3072 34.6415 36.2534 34.5118 36.2534 34.3765V32.5483C36.2534 32.413 36.3072 32.2833 36.4028 32.1876C36.4985 32.0919 36.6283 32.0381 36.7636 32.0381Z" fill="#ECEFF1"/>
<path fill-rule="evenodd" clip-rule="evenodd" d="M36.7639 32.0381H42.2911C42.4263 32.0385 42.5559 32.0924 42.6515 32.188C42.747 32.2836 42.8009 32.4131 42.8013 32.5483V34.3764C42.8009 34.5117 42.7471 34.6412 42.6515 34.7368C42.5559 34.8324 42.4263 34.8863 42.2911 34.8867H36.7639C36.6287 34.8863 36.4991 34.8324 36.4035 34.7368C36.3079 34.6412 36.254 34.5117 36.2537 34.3764V32.5483C36.254 32.4131 36.3079 32.2836 36.4035 32.1879C36.4991 32.0923 36.6287 32.0385 36.7639 32.0381ZM37.8642 37.9507H45.3672V28.8987H37.8642C34.5051 28.8987 31.7568 30.9354 31.7568 33.4247C31.7568 35.914 34.5052 37.9507 37.8642 37.9507Z" fill="#8C5F5F"/>
<path d="M31.7568 33.4247C31.7568 30.9356 34.5051 28.8987 37.8641 28.8987H45.3672V25.8995C45.3642 24.8954 44.9641 23.9334 44.2541 23.2234C43.5441 22.5134 42.582 22.1133 41.578 22.1104H34.8524H19.154H14.422C13.4179 22.1133 12.4558 22.5135 11.7459 23.2234C11.0359 23.9334 10.6358 24.8955 10.6328 25.8995V40.9498C10.6357 41.9539 11.0359 42.916 11.7459 43.6259C12.4559 44.3359 13.418 44.7361 14.422 44.739H41.578C42.582 44.7361 43.5441 44.3359 44.2541 43.6259C44.9641 42.916 45.3643 41.9539 45.3672 40.9498V37.9507H37.8641C34.5052 37.9507 31.7568 35.914 31.7568 33.4247Z" fill="#5A4146"/>
<path d="M38.2393 14.8951C38.5824 16.5803 37.8259 18.2993 36.351 19.1841L36 19.3951L38.25 21.0826L38.349 21.0167C40.3954 19.6521 41.625 17.3549 41.625 14.8951H42.9081C43.2607 14.8951 43.4374 14.4687 43.1882 14.2189L40.6007 10.7382C40.2654 10.2871 39.5893 10.2871 39.2541 10.7387L36.6823 14.2021C36.4264 14.458 36.6075 14.8951 36.9692 14.8951H38.2393Z" fill="#FFA83D"/>
</g>
<defs>
<clipPath id="clip0_14826_2203">
<rect width="36" height="36" fill="white" transform="translate(10 10.3999)"/>
</clipPath>
</defs>
</svg>
