<svg width="56" height="56" viewBox="0 0 56 56" fill="none" xmlns="http://www.w3.org/2000/svg">
<g clip-path="url(#clip0_14556_1287)">
<path d="M12.7422 7.99991H21.9297C24.5469 7.99991 26.6719 10.1249 26.6719 12.7421V21.953C26.6719 24.5702 24.5469 26.6952 21.9297 26.6952H12.7422C10.125 26.6952 8 24.5702 8 21.953V12.7421C8 10.1249 10.125 7.99991 12.7422 7.99991Z" fill="#2F61F3"/>
<path d="M34.0703 7.99991H43.2578C45.875 7.99991 48 10.1249 48 12.7421V21.953C48 24.5702 45.875 26.6952 43.2578 26.6952H34.0703C31.4531 26.6952 29.3281 24.5702 29.3281 21.953V12.7421C29.3281 10.1249 31.4531 7.99991 34.0703 7.99991Z" fill="#B7CDFC"/>
<path d="M12.7422 29.3046H21.9297C24.5469 29.3046 26.6719 31.4296 26.6719 34.0468V43.2577C26.6719 45.8749 24.5469 47.9999 21.9297 47.9999H12.7422C10.125 47.9999 8 45.8749 8 43.2577V34.0468C8 31.4296 10.125 29.3046 12.7422 29.3046Z" fill="#2F61F3"/>
<path d="M34.0703 29.3046H43.2578C45.875 29.3046 48 31.4296 48 34.0468V43.2577C48 45.8749 45.875 47.9999 43.2578 47.9999H34.0703C31.4531 47.9999 29.3281 45.8749 29.3281 43.2577V34.0468C29.3281 31.4296 31.4531 29.3046 34.0703 29.3046Z" fill="#2F61F3"/>
</g>
<defs>
<clipPath id="clip0_14556_1287">
<rect width="40" height="40" fill="white" transform="translate(8 7.99991)"/>
</clipPath>
</defs>
</svg>
