<svg width="56" height="56" viewBox="0 0 56 56" fill="none" xmlns="http://www.w3.org/2000/svg">
<g clip-path="url(#clip0_15082_6831)">
<path d="M23.4598 45.9985C33.1026 45.9985 40.9196 38.1815 40.9196 28.5387C40.9196 18.8959 33.1026 11.0789 23.4598 11.0789C13.817 11.0789 6 18.8959 6 28.5387C6 38.1815 13.817 45.9985 23.4598 45.9985Z" fill="#EF5261"/>
<path d="M40.9195 28.5391C40.9195 38.1816 33.1022 45.9989 23.4597 45.9989C18.2274 45.9989 13.5319 43.6968 10.3325 40.0496C13.4058 42.747 17.4336 44.3823 21.8431 44.3823C31.4855 44.3823 39.3029 36.565 39.3029 26.9225C39.3029 22.5131 37.6676 18.4852 34.9702 15.4119C38.6174 18.6113 40.9195 23.3068 40.9195 28.5391Z" fill="#D92936"/>
<path d="M23.4599 41.7145C30.7366 41.7145 36.6355 35.8155 36.6355 28.5388C36.6355 21.2621 30.7366 15.3631 23.4599 15.3631C16.1831 15.3631 10.2842 21.2621 10.2842 28.5388C10.2842 35.8155 16.1831 41.7145 23.4599 41.7145Z" fill="#F5F5F5"/>
<path d="M36.6351 28.5389C36.6351 35.8154 30.736 41.7145 23.4594 41.7145C19.4097 41.7145 15.7868 39.8869 13.3691 37.0125C15.6599 38.9379 18.616 40.0979 21.8428 40.0979C29.1193 40.0979 35.0185 34.1987 35.0185 26.9222C35.0185 23.6954 33.8585 20.7393 31.9331 18.4485C34.8075 20.8662 36.6351 24.4892 36.6351 28.5389Z" fill="#E6E6E6"/>
<path d="M23.4599 37.4304C28.3706 37.4304 32.3515 33.4495 32.3515 28.5388C32.3515 23.6282 28.3706 19.6473 23.4599 19.6473C18.5492 19.6473 14.5684 23.6282 14.5684 28.5388C14.5684 33.4495 18.5492 37.4304 23.4599 37.4304Z" fill="#EF5261"/>
<path d="M23.4597 33.0657C25.9597 33.0657 27.9863 31.0391 27.9863 28.5391C27.9863 26.0391 25.9597 24.0125 23.4597 24.0125C20.9597 24.0125 18.9331 26.0391 18.9331 28.5391C18.9331 31.0391 20.9597 33.0657 23.4597 33.0657Z" fill="#F5F5F5"/>
<path d="M39.9795 34.2046C39.6351 35.2085 39.2027 36.1704 38.6902 37.0814L34.7925 35.2635C35.3268 34.3662 35.7568 33.3995 36.0664 32.3802L39.9795 34.2046Z" fill="#D92936"/>
<path d="M36.0664 32.3799C35.7568 33.3992 35.3268 34.366 34.7925 35.2632L30.8794 33.4388C31.4565 32.5683 31.8833 31.591 32.1242 30.5418L36.0664 32.3799Z" fill="#E6E6E6"/>
<path d="M32.124 30.5419C31.8831 31.5911 31.4563 32.5684 30.8792 33.4389L26.8359 31.5539C27.5359 30.7699 27.9676 29.7409 27.9854 28.6116L32.124 30.5419Z" fill="#D92936"/>
<path d="M27.9854 28.6119C27.9676 29.7411 27.5359 30.7701 26.8359 31.5542L23.0489 29.788C22.3085 29.4437 21.9625 28.5966 22.2269 27.8416C22.2446 27.7923 22.264 27.743 22.2867 27.6937C22.471 27.2992 22.7967 27.0171 23.1766 26.8789C23.5549 26.7415 23.9874 26.7471 24.381 26.9314L27.9854 28.6119Z" fill="#E6E6E6"/>
<path d="M45.8644 13.2914C45.9939 13.313 46.045 13.4719 45.9524 13.565L44.2422 15.283L43.193 16.337L40.326 19.2165C40.1418 19.4015 39.8795 19.4861 39.6218 19.4437L35.3457 18.7394L38.5483 15.5627L39.6096 14.5102L41.5617 12.5735L45.8644 13.2914Z" fill="#50758D"/>
<path d="M44.2427 15.2828L43.1935 16.3368L38.5488 15.5624L39.6102 14.51L44.2427 15.2828Z" fill="#2B597F"/>
<path d="M39.5151 10.7073L37.5727 12.6077L36.5163 13.6415L33.325 16.7641L32.6123 12.4332C32.57 12.1763 32.6541 11.9148 32.8381 11.7307L35.7168 8.84896L36.7701 7.79409L38.5127 6.05013C38.606 5.95669 38.7659 6.00858 38.7867 6.13897L39.5151 10.7073Z" fill="#50758D"/>
<path d="M37.5727 12.6075L36.5162 13.6413L35.7168 8.84875L36.77 7.79388L37.5727 12.6075Z" fill="#2B597F"/>
<path d="M43.2101 10.4459C43.2101 10.8484 43.0565 11.2526 42.7485 11.5598L24.8288 29.4795C24.2516 30.0575 23.3374 30.093 22.7182 29.5862C22.6778 29.5531 22.6382 29.5175 22.6002 29.4795C22.2923 29.1715 22.1387 28.769 22.1387 28.3648C22.1387 27.9623 22.2923 27.5581 22.6002 27.251L40.52 9.33122C41.1351 8.71528 42.1334 8.71528 42.7485 9.33122C42.7865 9.36921 42.8221 9.40882 42.8552 9.44924C43.092 9.73862 43.2101 10.0919 43.2101 10.4459Z" fill="#283B48"/>
<path d="M43.2101 10.4455C43.2101 10.8481 43.0565 11.2522 42.7485 11.5594L24.8288 29.4791C24.2517 30.0571 23.3374 30.0926 22.7183 29.5858L42.8552 9.44885C43.0921 9.73823 43.2101 10.0915 43.2101 10.4455Z" fill="#283B48"/>
</g>
<defs>
<clipPath id="clip0_15082_6831">
<rect width="40" height="40" fill="white" transform="translate(6 6)"/>
</clipPath>
</defs>
</svg>
