<svg width="56" height="56" viewBox="0 0 56 56" fill="none" xmlns="http://www.w3.org/2000/svg">
<g clip-path="url(#clip0_14568_10478)">
<path fill-rule="evenodd" clip-rule="evenodd" d="M17.0308 17.2H38.933V20.9156H17.0308V17.2Z" fill="#EAECF5"/>
<path fill-rule="evenodd" clip-rule="evenodd" d="M17.0308 17.2H38.933V18.5778H17.0308V17.2Z" fill="#5877E4"/>
<path fill-rule="evenodd" clip-rule="evenodd" d="M11.875 24.1155H44.1772V46.8978H11.875V24.1155Z" fill="#EAECF5"/>
<path fill-rule="evenodd" clip-rule="evenodd" d="M11.8751 24.1155H44.1773V27.92C44.0173 27.9378 43.8573 27.9467 43.6973 27.9467H43.4929C42.3729 27.9467 41.2973 27.5111 40.4795 26.7466C39.6707 27.52 38.5951 27.9467 37.4662 27.9467H37.2618C36.1418 27.9467 35.0662 27.5111 34.2484 26.7466C33.4395 27.52 32.364 27.9467 31.2351 27.9467H31.0307C29.9107 27.9467 28.8351 27.5111 28.0173 26.7466C27.2084 27.52 26.1329 27.9467 25.004 27.9467H24.7995C23.6795 27.9467 22.604 27.5111 21.7862 26.7466C20.9773 27.52 19.9018 27.9467 18.7729 27.9467H18.5773C17.4484 27.9467 16.3818 27.5111 15.564 26.7466C14.7462 27.52 13.6795 27.9467 12.5507 27.9467H12.3462C12.1862 27.9467 12.0262 27.9378 11.8662 27.92L11.8751 24.1155Z" fill="#5877E4"/>
<path d="M43.2175 17.6711H12.7464C12.4975 17.6711 12.2842 17.4666 12.2842 17.2089V9.32443C12.2842 9.07554 12.4886 8.87109 12.7464 8.87109H43.2175C43.4664 8.87109 43.6708 9.07554 43.6708 9.32443V17.2089C43.6797 17.4666 43.4664 17.6711 43.2175 17.6711Z" fill="#575B6D"/>
<path d="M13.1997 9.77777H42.7553V16.7467H13.1997V9.77777Z" fill="#575B6D"/>
<path d="M40.3553 44.4444C40.3553 44.6933 40.1508 44.8978 39.902 44.8978C39.6531 44.8978 31.7686 44.8978 31.5197 44.8978C31.2709 44.8978 31.0664 44.6933 31.0664 44.4444V34.2311C31.0664 31.6711 33.1553 29.5822 35.7153 29.5822C38.2753 29.5822 40.3642 31.6711 40.3642 34.2311L40.3553 44.4444Z" fill="#575B6D"/>
<path d="M16.5243 29.1644H27.6087C27.9199 29.1644 28.1954 29.2889 28.3999 29.4933C28.6043 29.6978 28.7287 29.9733 28.7287 30.2844V41.2C28.7287 41.5111 28.6043 41.7866 28.3999 41.9911C28.391 42 28.3821 42.0089 28.3643 42.0178C28.1599 42.2044 27.8932 42.32 27.5999 42.32H16.5243C16.2132 42.32 15.9376 42.1955 15.7332 41.9911C15.5287 41.7866 15.4043 41.5111 15.4043 41.2V30.2844C15.4043 29.9733 15.5287 29.6978 15.7332 29.4933C15.9376 29.2889 16.2132 29.1644 16.5243 29.1644Z" fill="#575B6D"/>
<path fill-rule="evenodd" clip-rule="evenodd" d="M16.391 30.1244C16.3821 30.1333 16.3821 30.1333 16.3733 30.1422C16.3377 30.1777 16.311 30.2311 16.311 30.2844V41.2C16.311 41.2444 16.3288 41.2888 16.3555 41.3333C16.3644 41.3333 16.3644 41.3422 16.3733 41.3511C16.4088 41.3866 16.4621 41.4133 16.5155 41.4133H27.5999C27.6533 41.4133 27.6977 41.3955 27.7421 41.36C27.751 41.3511 27.751 41.3511 27.7599 41.3422C27.7955 41.3066 27.8133 41.2533 27.8133 41.2088V30.2844C27.8133 30.2311 27.7866 30.1777 27.751 30.1422C27.7155 30.1066 27.6621 30.08 27.6088 30.08H16.5244C16.471 30.08 16.4266 30.0977 16.391 30.1244Z" fill="#B7CDFC"/>
<path fill-rule="evenodd" clip-rule="evenodd" d="M39.4398 43.9822V34.2311C39.4398 32.1777 37.7598 30.4977 35.7065 30.4977C33.6531 30.4977 31.9731 32.1777 31.9731 34.2311V43.9911C34.4531 43.9822 36.9509 43.9822 39.4398 43.9822Z" fill="#B7CDFC"/>
<path fill-rule="evenodd" clip-rule="evenodd" d="M24.2753 32.8178C24.4797 32.6133 24.8086 32.6133 25.0131 32.8178C25.2175 33.0222 25.2175 33.3511 25.0131 33.5555L19.8486 38.7466C19.6442 38.9511 19.3153 38.9511 19.1109 38.7466C18.9064 38.5422 18.9064 38.2133 19.1109 38.0089L24.2753 32.8178Z" fill="white"/>
<path fill-rule="evenodd" clip-rule="evenodd" d="M20.7818 32.7378C20.9951 32.5422 21.324 32.5511 21.5196 32.7556C21.7151 32.96 21.7062 33.2978 21.5018 33.4933L19.964 34.96C19.7507 35.1556 19.4218 35.1467 19.2262 34.9422C19.0307 34.7378 19.0396 34.4 19.244 34.2044L20.7818 32.7378Z" fill="white"/>
<path d="M10.6664 20.0978H15.5642C15.8131 20.0978 16.0265 20.3022 16.0265 20.5511V23.5644C16.0265 24.5156 15.6353 25.3867 15.0131 26.0178C14.382 26.6489 13.5198 27.0311 12.5687 27.0311H12.3553C11.4042 27.0311 10.5331 26.64 9.91089 26.0178C9.27978 25.3867 8.88867 24.5244 8.88867 23.5644V21.8844C8.88867 21.3956 9.09312 20.9422 9.41312 20.6222C9.73312 20.2933 10.1776 20.0978 10.6664 20.0978Z" fill="#EF5261"/>
<path d="M15.5731 20.0978H21.8042C22.0531 20.0978 22.2575 20.3022 22.2575 20.5511V23.5644C22.2575 24.5156 21.8664 25.3867 21.2442 26.0178C20.6131 26.6489 19.7508 27.0311 18.7908 27.0311H18.5775C17.6264 27.0311 16.7553 26.64 16.1242 26.0178C15.4931 25.3867 15.1108 24.5244 15.1108 23.5644V20.5511C15.1108 20.3022 15.3153 20.0978 15.5731 20.0978Z" fill="#575B6D"/>
<path d="M21.7951 20.0978H28.0262C28.2751 20.0978 28.4796 20.3022 28.4796 20.5511V23.5644C28.4796 24.5156 28.0885 25.3867 27.4662 26.0178C26.8351 26.6489 25.9729 27.0311 25.0129 27.0311H24.8085C23.8574 27.0311 22.9862 26.64 22.3551 26.0178C21.724 25.3867 21.3418 24.5244 21.3418 23.5644V20.5511C21.3418 20.3022 21.5462 20.0978 21.7951 20.0978Z" fill="#6895F8"/>
<path d="M28.0264 20.0978H34.2575C34.5064 20.0978 34.7108 20.3022 34.7108 20.5511V23.5644C34.7108 24.5156 34.3197 25.3867 33.6886 26.0178C33.0575 26.6489 32.1953 27.0311 31.2441 27.0311H31.0397C30.0886 27.0311 29.2175 26.64 28.5864 26.0178C27.9553 25.3867 27.573 24.5244 27.573 23.5644V20.5511C27.5641 20.3022 27.7686 20.0978 28.0264 20.0978Z" fill="#575B6D"/>
<path d="M34.2487 20.0978H40.4799C40.7287 20.0978 40.9332 20.3022 40.9332 20.5511V23.5644C40.9332 24.5156 40.5421 25.3867 39.911 26.0178C39.2799 26.6489 38.4176 27.0311 37.4665 27.0311H37.2621C36.311 27.0311 35.4399 26.64 34.8176 26.0178C34.1865 25.3867 33.7954 24.5244 33.7954 23.5644V20.5511C33.7954 20.3022 33.9999 20.0978 34.2487 20.0978Z" fill="#EF5261"/>
<path d="M40.48 20.0978H45.3778C45.8666 20.0978 46.32 20.3022 46.64 20.6222C46.96 20.9422 47.1644 21.3956 47.1644 21.8844V23.5644C47.1644 24.5156 46.7733 25.3867 46.1422 26.0178C45.5111 26.6489 44.6489 27.0311 43.6978 27.0311H43.4933C42.5422 27.0311 41.6711 26.64 41.0489 26.0178C40.4178 25.3867 40.0266 24.5244 40.0266 23.5644V20.5511C40.0178 20.3022 40.2222 20.0978 40.48 20.0978Z" fill="#575B6D"/>
<path d="M37.3418 35.68C37.3418 35.4311 37.5462 35.2266 37.7951 35.2266C38.044 35.2266 38.2485 35.4311 38.2485 35.68V38.7911C38.2485 39.04 38.044 39.2444 37.7951 39.2444C37.5462 39.2444 37.3418 39.04 37.3418 38.7911V35.68Z" fill="#575B6D"/>
<path d="M44.9244 47.2622C45.4133 47.2622 45.8666 47.0666 46.2133 46.7288C46.56 46.3822 46.7466 45.9288 46.7466 45.44C46.7466 44.9511 46.5511 44.4977 46.2133 44.1511C45.8666 43.8044 45.4133 43.6177 44.9244 43.6177H11.1289C10.64 43.6177 10.1866 43.8133 9.83997 44.1511C9.49331 44.4977 9.30664 44.9511 9.30664 45.44C9.30664 45.9288 9.5022 46.3822 9.83997 46.7288C10.1778 47.0755 10.64 47.2622 11.1289 47.2622H44.9244Z" fill="#575B6D"/>
<path d="M35.9253 14.7913C35.8713 14.7913 35.8211 14.7836 35.7748 14.7682C35.6281 14.7373 35.5238 14.6485 35.4621 14.5018C35.4158 14.3705 35.4273 14.2239 35.4968 14.0617C35.574 13.8996 35.6744 13.7182 35.7979 13.5174C35.8442 13.4479 35.8867 13.3785 35.9253 13.309C35.9716 13.2318 36.0102 13.1623 36.0411 13.1005C36.0566 13.0774 36.0681 13.0581 36.0759 13.0426C36.0836 13.0195 36.0913 13.0002 36.099 12.9847C35.8674 12.9461 35.5972 12.9384 35.2884 12.9616C34.9873 12.977 34.6476 13.0349 34.2693 13.1353C33.9373 13.2202 33.5783 13.3321 33.1922 13.4711C32.8139 13.6024 32.4125 13.7606 31.9879 13.9459C31.9029 13.9768 31.818 13.9768 31.7331 13.9459C31.6481 13.915 31.5864 13.8571 31.5478 13.7722C31.5015 13.6873 31.4976 13.5985 31.5362 13.5058C31.5748 13.4055 31.6366 13.3399 31.7215 13.309C32.1538 13.116 32.5669 12.95 32.9606 12.811C33.3621 12.6643 33.7404 12.5485 34.0955 12.4636C35.0452 12.2242 35.8211 12.1856 36.4233 12.3478C36.6009 12.3941 36.7244 12.5022 36.7939 12.672C36.8633 12.8419 36.8479 13.031 36.7475 13.2395C36.6472 13.4479 36.5275 13.6641 36.3885 13.888C36.3808 13.9035 36.3692 13.9228 36.3538 13.9459C36.3384 13.9691 36.3229 13.9961 36.3075 14.027C36.485 13.9884 36.7475 13.9112 37.095 13.7954C37.4424 13.6796 37.9211 13.5097 38.531 13.2858C38.6159 13.2549 38.7008 13.2627 38.7858 13.309C38.8784 13.3476 38.9402 13.4132 38.971 13.5058C39.0097 13.5908 39.0097 13.6796 38.971 13.7722C38.9324 13.8571 38.863 13.9189 38.7626 13.9575C38.4074 14.081 38.0832 14.193 37.7898 14.2933C37.4964 14.3937 37.2339 14.4786 37.0023 14.5481C36.6935 14.6408 36.458 14.7064 36.2959 14.745C36.1338 14.7759 36.0102 14.7913 35.9253 14.7913Z" fill="white"/>
<path d="M29.9998 14.9073C29.9071 14.9073 29.8299 14.8803 29.7682 14.8263C29.6446 14.7259 29.6099 14.5985 29.6639 14.4441C29.6639 14.4364 29.691 14.3437 29.745 14.1662C29.8068 13.9886 29.8763 13.7879 29.9535 13.564C29.9921 13.4327 30.0268 13.3208 30.0577 13.2281C30.0886 13.1278 30.1156 13.039 30.1387 12.9618C29.9303 13.039 29.6755 13.1355 29.3744 13.2513C29.0733 13.3594 28.7568 13.4752 28.4248 13.5987C28.1005 13.7222 27.784 13.8419 27.4752 13.9577C27.3902 13.9886 27.3053 13.9847 27.2204 13.9461C27.1277 13.8998 27.0621 13.8303 27.0235 13.7377C26.9926 13.6527 27.0004 13.5678 27.0467 13.4829C27.0853 13.3902 27.1509 13.3246 27.2436 13.286C27.591 13.1625 27.95 13.0351 28.3206 12.9039C28.6912 12.7649 29.0347 12.6375 29.3513 12.5217C29.6678 12.3982 29.9264 12.2978 30.1272 12.2206C30.3279 12.1434 30.4283 12.1048 30.4283 12.1048C30.4669 12.0971 30.5055 12.0932 30.5441 12.0932C30.5827 12.0855 30.6174 12.0893 30.6483 12.1048C30.7564 12.1202 30.8336 12.182 30.8799 12.2901C30.9185 12.3518 30.934 12.4329 30.9262 12.5333C30.9262 12.6259 30.9069 12.761 30.8683 12.9386C30.8452 13.039 30.8143 13.1509 30.7757 13.2744C30.7448 13.3902 30.7023 13.5254 30.6483 13.6798C30.6406 13.7107 30.6329 13.7377 30.6251 13.7608C30.6174 13.784 30.6097 13.811 30.602 13.8419C30.9108 13.672 31.2891 13.4945 31.7369 13.3092C31.8218 13.2706 31.9067 13.2706 31.9917 13.3092C32.0843 13.3401 32.1461 13.398 32.177 13.4829C32.2233 13.5678 32.2271 13.6566 32.1885 13.7493C32.1499 13.8419 32.0882 13.9075 32.0032 13.9461C31.6558 14.1005 31.3431 14.2472 31.0652 14.3862C30.795 14.5252 30.5788 14.6371 30.4167 14.722C30.2546 14.807 30.1735 14.8494 30.1735 14.8494C30.1272 14.888 30.0693 14.9073 29.9998 14.9073Z" fill="white"/>
<path d="M25.7104 14.5599C25.6718 14.5599 25.6409 14.556 25.6178 14.5483C25.4943 14.5174 25.4055 14.4711 25.3514 14.4093C25.3051 14.3399 25.2742 14.2858 25.2588 14.2472C25.2047 14.0774 25.224 13.9037 25.3167 13.7261C25.4093 13.5408 25.529 13.3478 25.6757 13.147C25.722 13.0853 25.7645 13.0197 25.8031 12.9502C25.8494 12.873 25.888 12.8073 25.9189 12.7533C25.9266 12.7456 25.9382 12.7301 25.9536 12.707C25.9073 12.7224 25.8494 12.7456 25.7799 12.7765C25.7181 12.8073 25.6448 12.8537 25.5599 12.9154C25.4209 13.0004 25.2742 13.1123 25.1198 13.2513C24.9654 13.3825 24.8071 13.5215 24.645 13.6682C24.6064 13.6991 24.5639 13.7338 24.5176 13.7724C24.479 13.811 24.4404 13.8496 24.4018 13.8882C24.3323 13.95 24.2512 13.9809 24.1586 13.9809C24.0582 13.9731 23.9772 13.9307 23.9154 13.8535C23.8459 13.784 23.815 13.7029 23.8228 13.6103C23.8305 13.5099 23.8691 13.4288 23.9386 13.3671C23.9772 13.3285 24.0196 13.2899 24.066 13.2513C24.1046 13.2127 24.1432 13.1779 24.1818 13.147C24.4288 12.9232 24.672 12.7186 24.9114 12.5333C25.1507 12.3403 25.3862 12.1936 25.6178 12.0932C25.8494 11.9928 26.0733 11.9735 26.2895 12.0353C26.4207 12.0662 26.5134 12.1202 26.5674 12.1974C26.6292 12.2669 26.6639 12.3287 26.6716 12.3827C26.7411 12.5526 26.7257 12.734 26.6253 12.927C26.5249 13.1123 26.3976 13.3169 26.2431 13.5408C26.2277 13.5562 26.2084 13.5833 26.1852 13.6219C26.1698 13.6527 26.1505 13.6836 26.1273 13.7145C26.2431 13.6682 26.3937 13.6103 26.579 13.5408C26.7643 13.4713 26.9882 13.3864 27.2507 13.286C27.351 13.2551 27.4437 13.2629 27.5286 13.3092C27.6135 13.3478 27.6714 13.4134 27.7023 13.5061C27.7409 13.591 27.7371 13.6798 27.6907 13.7724C27.6521 13.8573 27.5904 13.9191 27.5054 13.9577C27.2584 14.0426 27.0345 14.1198 26.8338 14.1893C26.633 14.2588 26.4632 14.3206 26.3242 14.3746C26.247 14.4055 26.1775 14.4325 26.1158 14.4557C26.0617 14.4711 26.0115 14.4866 25.9652 14.502C25.9112 14.5174 25.8648 14.5329 25.8262 14.5483C25.7876 14.556 25.749 14.5599 25.7104 14.5599Z" fill="white"/>
<path d="M21.4154 14.7913C21.3614 14.7913 21.3112 14.7836 21.2649 14.7682C21.1182 14.7373 21.014 14.6485 20.9522 14.5018C20.9059 14.3705 20.9175 14.2239 20.9869 14.0617C21.0641 13.8996 21.1645 13.7182 21.288 13.5174C21.3344 13.4479 21.3768 13.3785 21.4154 13.309C21.4618 13.2318 21.5004 13.1623 21.5312 13.1005C21.5467 13.0774 21.5583 13.0581 21.566 13.0426C21.5737 13.0195 21.5814 13.0002 21.5891 12.9847C21.3575 12.9461 21.0873 12.9384 20.7785 12.9616C20.4774 12.977 20.1377 13.0349 19.7594 13.1353C19.4274 13.2202 19.0684 13.3321 18.6824 13.4711C18.3041 13.6024 17.9026 13.7606 17.478 13.9459C17.393 13.9768 17.3081 13.9768 17.2232 13.9459C17.1383 13.915 17.0765 13.8571 17.0379 13.7722C16.9916 13.6873 16.9877 13.5985 17.0263 13.5058C17.0649 13.4055 17.1267 13.3399 17.2116 13.309C17.644 13.116 18.057 12.95 18.4508 12.811C18.8522 12.6643 19.2305 12.5485 19.5857 12.4636C20.5353 12.2242 21.3112 12.1856 21.9134 12.3478C22.091 12.3941 22.2145 12.5022 22.284 12.672C22.3535 12.8419 22.338 13.031 22.2377 13.2395C22.1373 13.4479 22.0176 13.6641 21.8787 13.888C21.8709 13.9035 21.8594 13.9228 21.8439 13.9459C21.8285 13.9691 21.813 13.9961 21.7976 14.027C21.9752 13.9884 22.2377 13.9112 22.5851 13.7954C22.9325 13.6796 23.4112 13.5097 24.0211 13.2858C24.106 13.2549 24.191 13.2627 24.2759 13.309C24.3685 13.3476 24.4303 13.4132 24.4612 13.5058C24.4998 13.5908 24.4998 13.6796 24.4612 13.7722C24.4226 13.8571 24.3531 13.9189 24.2527 13.9575C23.8976 14.081 23.5733 14.193 23.2799 14.2933C22.9866 14.3937 22.7241 14.4786 22.4924 14.5481C22.1836 14.6408 21.9481 14.7064 21.786 14.745C21.6239 14.7759 21.5004 14.7913 21.4154 14.7913Z" fill="white"/>
</g>
<defs>
<clipPath id="clip0_14568_10478">
<rect width="40" height="40" fill="white" transform="translate(8 8)"/>
</clipPath>
</defs>
</svg>
