<svg width="56" height="56" viewBox="0 0 56 56" fill="none" xmlns="http://www.w3.org/2000/svg">
<g clip-path="url(#clip0_14556_1285)">
<path d="M28 48C39.0457 48 48 39.0457 48 28C48 16.9543 39.0457 8 28 8C16.9543 8 8 16.9543 8 28C8 39.0457 16.9543 48 28 48Z" fill="#3A556A"/>
<path d="M8 28C8 16.95 16.95 8 28 8C39.05 8 48 16.95 48 28H8Z" fill="#2F4859"/>
<path d="M19.8999 33.05C24.7324 33.05 28.6499 29.1325 28.6499 24.3C28.6499 19.4675 24.7324 15.55 19.8999 15.55C15.0674 15.55 11.1499 19.4675 11.1499 24.3C11.1499 29.1325 15.0674 33.05 19.8999 33.05Z" fill="#EBF0F3"/>
<path d="M19.8999 33.05C15.0499 33.05 11.1499 29.15 11.1499 24.3C11.1499 19.45 15.0499 15.55 19.8999 15.55V33.05Z" fill="#E1E6E9"/>
<path d="M19.8999 28.05C21.971 28.05 23.6499 26.3711 23.6499 24.3C23.6499 22.2289 21.971 20.55 19.8999 20.55C17.8288 20.55 16.1499 22.2289 16.1499 24.3C16.1499 26.3711 17.8288 28.05 19.8999 28.05Z" fill="#F6C358"/>
<path d="M19.8999 20.55C17.8499 20.55 16.1499 22.25 16.1499 24.3C16.1499 26.35 17.8499 28.05 19.8999 28.05V20.55Z" fill="#FCD462"/>
<path d="M32.4498 26C32.1498 24.95 31.8998 23.8 32.3998 23.2C33.7998 21.4 38.0498 22.75 41.5498 25.55C45.0998 28.3 46.8498 31.6 45.4498 33.4C44.8998 34.1 43.9498 34.45 42.7998 34.4L36.5498 42.45L26.0498 34.25L32.4498 26Z" fill="#F6C358"/>
<path d="M31.45 38.5L26 34.25L32.45 26C32.15 24.95 31.9 23.8 32.4 23.2C33.8 21.4 38.05 22.75 41.55 25.55L31.45 38.5Z" fill="#FCD462"/>
<path d="M33.95 26.75L33.9 26.7C33.55 26.2 33.5 25.6 33.75 24.95C34 24.3 34.55 23.7 35.3 23.1C35.45 23 35.65 23 35.75 23.15C35.85 23.3 35.85 23.5 35.7 23.6C35.05 24.1 34.6 24.65 34.35 25.15C34.2 25.45 34.15 25.9 34.4 26.25C34.5 26.4 34.5 26.6 34.35 26.7C34.25 26.85 34.05 26.85 33.95 26.75Z" fill="#DC8744"/>
</g>
<defs>
<clipPath id="clip0_14556_1285">
<rect width="40" height="40" fill="white" transform="translate(8 8)"/>
</clipPath>
</defs>
</svg>
