<svg width="56" height="56" viewBox="0 0 56 56" fill="none" xmlns="http://www.w3.org/2000/svg">
<path d="M19.7561 29.334C19.7561 29.334 17.8904 29.8683 16.9048 27.8826C16.9048 27.8826 17.9441 27.5021 18.8053 28.0888C19.6666 28.6756 19.7561 29.334 19.7561 29.334Z" fill="#88B337"/>
<path d="M19.922 28.6684C19.922 28.6684 18.7025 27.1586 20.1468 25.4769C20.1468 25.4769 20.9024 26.2855 20.6979 27.3074C20.4934 28.3293 19.922 28.6684 19.922 28.6684Z" fill="#88B337"/>
<path d="M19.1007 27.6673C19.1007 27.6673 17.1735 27.8956 16.519 25.7775C16.519 25.7775 17.6059 25.5684 18.3619 26.2858C19.1181 27.0031 19.1007 27.6673 19.1007 27.6673Z" fill="#88B337"/>
<path d="M22.9575 22.7627C22.9575 22.7627 23.7654 20.9982 21.95 19.7261C21.95 19.7261 21.4179 20.6966 21.8689 21.6361C22.32 22.5755 22.9575 22.7627 22.9575 22.7627Z" fill="#88B337"/>
<path d="M22.2746 22.827C22.2746 22.827 20.9647 21.395 19.0854 22.5708C19.0854 22.5708 19.7717 23.4391 20.8126 23.3902C21.8537 23.3411 22.2746 22.827 22.2746 22.827Z" fill="#88B337"/>
<path d="M21.4082 21.8649C21.4082 21.8649 21.9228 19.9936 19.9268 19.0291C19.9268 19.0291 19.5572 20.0723 20.153 20.9274C20.7489 21.7824 21.4082 21.8649 21.4082 21.8649Z" fill="#88B337"/>
<path d="M27.0556 13.4517C27.0556 13.4517 25.2212 12.9228 25.4365 10.7528C25.4365 10.7528 26.5016 10.9782 26.9132 11.9172C27.3248 12.8561 27.0556 13.4517 27.0556 13.4517Z" fill="#88B337"/>
<path d="M27.5416 12.9834C27.5416 12.9834 27.3133 11.0881 29.3956 10.4402C29.3956 10.4402 29.6033 11.509 28.8992 12.2541C28.195 12.9992 27.5416 12.9834 27.5416 12.9834Z" fill="#88B337"/>
<path d="M27.3794 11.72C27.3794 11.72 25.6535 10.9038 26.214 8.79639C26.214 8.79639 27.2292 9.18967 27.4849 10.1825C27.7407 11.1753 27.3794 11.72 27.3794 11.72Z" fill="#88B337"/>
<path d="M27.6949 29.5566C27.4586 29.5566 27.2358 29.4463 27.0925 29.2585L23.2248 24.1904C22.9709 23.8577 23.0347 23.3821 23.3675 23.1282C23.7003 22.8742 24.1758 22.9381 24.4297 23.2709L27.6949 27.5494L30.9601 23.2709C31.214 22.9382 31.6896 22.8742 32.0223 23.1282C32.355 23.3821 32.4189 23.8577 32.165 24.1904L28.2974 29.2585C28.1541 29.4463 27.9313 29.5566 27.6949 29.5566Z" fill="#575B6D"/>
<path d="M27.6952 36.7516C27.4589 36.7516 27.2361 36.6414 27.0927 36.4536L20.7902 30.7607C20.5363 30.428 20.6002 29.9524 20.9329 29.6984C21.2656 29.4445 21.7412 29.5084 21.9951 29.8412L27.6952 34.7446L33.807 29.5021C34.0609 29.1694 34.5365 29.1055 34.8692 29.3594C35.2019 29.6133 35.2659 30.0889 35.0119 30.4216L28.2976 36.4536C28.1543 36.6414 27.9315 36.7516 27.6952 36.7516Z" fill="#575B6D"/>
<path d="M27.6949 39.5322C27.2764 39.5322 26.937 39.1929 26.937 38.7743V20.8512C26.937 20.4327 27.2763 20.0933 27.6949 20.0933C28.1136 20.0933 28.4529 20.4327 28.4529 20.8512V38.7743C28.4528 39.1928 28.1135 39.5322 27.6949 39.5322Z" fill="#575B6D"/>
<path d="M22.6693 47.2109H32.7206L34.55 39.6749H20.8398L22.6693 47.2109Z" fill="#E64C3C"/>
<path d="M21.0032 39.675H34.387C34.9443 39.675 35.3961 39.2232 35.3961 38.6659V38.3612C35.3961 37.8039 34.9443 37.3522 34.387 37.3522H21.0032C20.4459 37.3522 19.9941 37.8039 19.9941 38.3612V38.6659C19.9941 39.2232 20.4459 39.675 21.0032 39.675Z" fill="#5A4146"/>
<path d="M35.0118 28.8841C35.0118 28.8841 33.0534 28.4993 33.0814 26.2197C33.0814 26.2197 34.2111 26.3581 34.7247 27.2988C35.2383 28.2395 35.0118 28.8841 35.0118 28.8841Z" fill="#88B337"/>
<path d="M39.4127 31.456C39.4127 31.456 37.606 32.3039 36.2803 30.4492C36.2803 30.4492 37.2731 29.8927 38.2436 30.3475C39.2141 30.8022 39.4127 31.456 39.4127 31.456Z" fill="#88B337"/>
<path d="M35.4753 28.3526C35.4753 28.3526 35.0662 26.3991 37.1763 25.5361C37.1763 25.5361 37.4892 26.6304 36.8233 27.4701C36.1573 28.3098 35.4753 28.3526 35.4753 28.3526Z" fill="#88B337"/>
<path d="M38.4899 28.013C38.4899 28.013 37.8921 29.9171 35.6294 29.6388C35.6294 29.6388 35.8912 28.5311 36.8826 28.124C37.874 27.7169 38.4899 28.013 38.4899 28.013Z" fill="#88B337"/>
<path d="M36.5973 33.4585C36.5973 33.4585 34.8195 32.5516 35.4713 30.367C35.4713 30.367 36.5197 30.8098 36.7558 31.8552C36.992 32.9006 36.5973 33.4585 36.5973 33.4585Z" fill="#88B337"/>
<path d="M35.1926 27.0513C35.1926 27.0513 33.3213 26.3574 33.7144 24.1118C33.7144 24.1118 34.8073 24.4297 35.1635 25.4405C35.5196 26.4513 35.1926 27.0513 35.1926 27.0513Z" fill="#88B337"/>
<path d="M27.5678 22.2432C29.9166 22.2432 31.8207 20.3391 31.8207 17.9903C31.8207 15.6415 29.9166 13.7374 27.5678 13.7374C25.219 13.7374 23.3149 15.6415 23.3149 17.9903C23.3149 20.3391 25.219 22.2432 27.5678 22.2432Z" fill="#FFB22A"/>
<path d="M28.6417 17.8533C28.5254 17.7676 28.3836 17.7087 28.2442 17.6726C28.1051 17.6369 27.9122 17.6016 27.6742 17.5665L27.5342 16.4093C27.7738 16.458 27.9476 16.5931 28.035 16.8173C28.1112 17.0079 28.2446 17.0914 28.4218 17.07C28.5158 17.0586 28.5951 17.0145 28.653 16.9388C28.7106 16.8632 28.7358 16.7789 28.7246 16.686C28.7145 16.6026 28.6821 16.5138 28.6258 16.4183C28.5691 16.3237 28.4951 16.2343 28.4022 16.1492C28.2844 16.0374 28.1386 15.961 27.993 15.9166C27.8478 15.8724 27.6747 15.8518 27.4674 15.8563L27.4427 15.6525C27.4243 15.5003 27.3758 15.4288 27.2602 15.4427C27.1466 15.4564 27.1175 15.5394 27.1363 15.6948L27.1603 15.8933C26.7548 15.9763 26.5142 16.1254 26.341 16.3535C26.1678 16.5811 26.0982 16.8552 26.1368 17.1742C26.1664 17.4189 26.2399 17.6132 26.3599 17.7564C26.4798 17.9 26.6304 18.004 26.8032 18.0687C26.9761 18.1332 27.1778 18.1864 27.442 18.2238L27.5984 19.5176C27.4662 19.4979 27.3651 19.4581 27.284 19.4004C27.2027 19.3424 27.1366 19.2755 27.091 19.199C27.0451 19.1228 26.9874 19.0119 26.9203 18.8656C26.89 18.7978 26.8441 18.7478 26.7832 18.7156C26.7225 18.6834 26.6514 18.6722 26.57 18.682C26.4688 18.6943 26.3887 18.7404 26.3294 18.8196C26.2702 18.8997 26.246 18.9835 26.2568 19.0728C26.2714 19.1933 26.3114 19.3131 26.3774 19.4322C26.443 19.5513 26.5357 19.6621 26.6552 19.7656C26.7752 19.8684 26.9233 19.9488 27.0906 20.0075C27.2583 20.0667 27.4347 20.097 27.6679 20.0931L27.6937 20.3058C27.7039 20.3908 27.7199 20.4525 27.7514 20.4904C27.7822 20.528 27.8283 20.5434 27.8932 20.5356C27.9636 20.5271 27.9912 20.498 28.0057 20.4456C28.0206 20.3928 28.0062 20.314 27.993 20.2044L27.9744 20.0506C28.2532 19.9939 28.4586 19.8991 28.6325 19.7591C28.8062 19.6196 28.9376 19.4513 29.0119 19.2549C29.0861 19.0589 29.1138 18.8542 29.0882 18.6428C29.0678 18.4742 29.0207 18.3225 28.943 18.1878C28.8658 18.0534 28.7665 17.9417 28.6417 17.8533ZM27.3549 17.5011C27.1682 17.4612 27.051 17.4062 26.9625 17.3408C26.8738 17.2751 26.8185 17.17 26.8008 17.0231C26.7822 16.8694 26.8142 16.7484 26.8899 16.6624C26.9654 16.5765 27.0526 16.5037 27.2261 16.4358L27.3549 17.5011ZM28.3186 19.23C28.2328 19.3552 28.1094 19.4464 27.909 19.508L27.7618 18.29C27.9741 18.3264 28.1224 18.3844 28.2296 18.4604C28.337 18.5369 28.4003 18.6558 28.4198 18.8168C28.4379 18.9672 28.4041 19.1052 28.3186 19.23Z" fill="#575B6D"/>
<path d="M21.2518 31.4491C21.9717 31.4491 22.5553 30.8655 22.5553 30.1456C22.5553 29.4257 21.9717 28.8421 21.2518 28.8421C20.5318 28.8421 19.9482 29.4257 19.9482 30.1456C19.9482 30.8655 20.5318 31.4491 21.2518 31.4491Z" fill="#FFB22A"/>
<path d="M18.9173 31.1146C19.3171 31.1146 19.6412 30.7905 19.6412 30.3907C19.6412 29.9909 19.3171 29.6667 18.9173 29.6667C18.5175 29.6667 18.1934 29.9909 18.1934 30.3907C18.1934 30.7905 18.5175 31.1146 18.9173 31.1146Z" fill="#FFB22A"/>
<path d="M19.8134 33.2852C20.3519 33.2852 20.7885 32.8487 20.7885 32.3102C20.7885 31.7717 20.3519 31.3351 19.8134 31.3351C19.2749 31.3351 18.8384 31.7717 18.8384 32.3102C18.8384 32.8487 19.2749 33.2852 19.8134 33.2852Z" fill="#FFB22A"/>
<path d="M31.637 24.5368C32.2687 24.5368 32.7808 24.0247 32.7808 23.393C32.7808 22.7613 32.2687 22.2491 31.637 22.2491C31.0053 22.2491 30.4932 22.7613 30.4932 23.393C30.4932 24.0247 31.0053 24.5368 31.637 24.5368Z" fill="#FFB22A"/>
<path d="M33.8177 23.9132C34.2175 23.9132 34.5416 23.5891 34.5416 23.1893C34.5416 22.7895 34.2175 22.4654 33.8177 22.4654C33.4179 22.4654 33.0938 22.7895 33.0938 23.1893C33.0938 23.5891 33.4179 23.9132 33.8177 23.9132Z" fill="#FFB22A"/>
<path d="M32.9047 22.2958C33.4432 22.2958 33.8798 21.8593 33.8798 21.3208C33.8798 20.7823 33.4432 20.3458 32.9047 20.3458C32.3662 20.3458 31.9297 20.7823 31.9297 21.3208C31.9297 21.8593 32.3662 22.2958 32.9047 22.2958Z" fill="#FFB22A"/>
<path d="M38.227 19.6856C38.227 19.6856 37.4664 21.5308 35.2363 21.0574C35.2363 21.0574 35.5931 19.9766 36.6161 19.6569C37.6391 19.3373 38.227 19.6856 38.227 19.6856Z" fill="#88B337"/>
<path d="M35.2218 17.7684C35.2218 17.7684 36.0662 19.5768 34.209 20.8989C34.209 20.8989 33.6544 19.9049 34.111 18.9353C34.5676 17.9657 35.2218 17.7684 35.2218 17.7684Z" fill="#88B337"/>
<path d="M37.5017 23.0638C37.5017 23.0638 35.5779 23.5947 34.584 21.543C34.584 21.543 35.6565 21.1619 36.5364 21.7738C37.4162 22.3858 37.5017 23.0638 37.5017 23.0638Z" fill="#88B337"/>
</svg>
