<svg width="56" height="56" viewBox="0 0 56 56" fill="none" xmlns="http://www.w3.org/2000/svg">
<path d="M42.7377 47.9999H14L14.0487 47.1184L14.2378 43.8352L14.3243 42.3314V42.3232L14.5368 38.6543L14.5922 37.7306L14.6943 35.92L14.7498 34.9438L14.9623 31.2974L15.0474 29.7712L15.2365 26.5137L15.3309 24.7659L15.5117 21.6246L15.6143 19.8451L15.7719 17.1127H40.9746L41.1399 20.0337L41.2264 21.4825L41.415 24.8052L41.5122 26.5215L41.6931 29.6633L41.7957 31.4505L41.9765 34.6156L42.0714 36.3002L42.1579 37.7413L42.2065 38.6466L42.2697 39.686L42.348 41.0401L42.419 42.3314L42.5054 43.8274L42.5764 45.0477V45.0633L42.6002 45.4964L42.6946 47.1183L42.7377 47.9999Z" fill="#E43E54"/>
<path d="M16.7105 17.5765C16.214 17.5765 15.8115 17.979 15.8115 18.4755C15.8115 18.972 16.214 19.3745 16.7105 19.3745C17.207 19.3745 17.6095 18.972 17.6095 18.4755C17.6095 17.979 17.207 17.5765 16.7105 17.5765Z" fill="#F183BC"/>
<path d="M19.626 17.5765C19.1296 17.5765 18.7271 17.979 18.7271 18.4755C18.7271 18.972 19.1296 19.3745 19.626 19.3745C20.1225 19.3745 20.525 18.972 20.525 18.4755C20.525 17.979 20.1226 17.5765 19.626 17.5765Z" fill="#F183BC"/>
<path d="M22.5416 17.5765C22.0451 17.5765 21.6426 17.979 21.6426 18.4755C21.6426 18.972 22.0451 19.3745 22.5416 19.3745C23.038 19.3745 23.4405 18.972 23.4405 18.4755C23.4405 17.979 23.038 17.5765 22.5416 17.5765Z" fill="#F183BC"/>
<path d="M25.4571 17.5765C24.9606 17.5765 24.5581 17.979 24.5581 18.4755C24.5581 18.972 24.9606 19.3745 25.4571 19.3745C25.9536 19.3745 26.3561 18.972 26.3561 18.4755C26.356 17.979 25.9536 17.5765 25.4571 17.5765Z" fill="#F183BC"/>
<path d="M28.3721 17.5765C27.8756 17.5765 27.4731 17.979 27.4731 18.4755C27.4731 18.972 27.8756 19.3745 28.3721 19.3745C28.8686 19.3745 29.2711 18.972 29.2711 18.4755C29.2711 17.979 28.8686 17.5765 28.3721 17.5765Z" fill="#F183BC"/>
<path d="M31.2862 17.5765C30.7897 17.5765 30.3872 17.979 30.3872 18.4755C30.3872 18.972 30.7897 19.3745 31.2862 19.3745C31.7827 19.3745 32.1852 18.972 32.1852 18.4755C32.1852 17.979 31.7827 17.5765 31.2862 17.5765Z" fill="#F183BC"/>
<path d="M34.2032 17.5765C33.7067 17.5765 33.3042 17.979 33.3042 18.4755C33.3042 18.972 33.7067 19.3745 34.2032 19.3745C34.6996 19.3745 35.1022 18.972 35.1022 18.4755C35.1022 17.979 34.6996 17.5765 34.2032 17.5765Z" fill="#F183BC"/>
<path d="M37.1202 17.5765C36.6237 17.5765 36.2212 17.979 36.2212 18.4755C36.2212 18.972 36.6237 19.3745 37.1202 19.3745C37.6166 19.3745 38.0191 18.972 38.0191 18.4755C38.0191 17.979 37.6166 17.5765 37.1202 17.5765Z" fill="#F183BC"/>
<path d="M40.0342 17.5765C39.5378 17.5765 39.1353 17.979 39.1353 18.4755C39.1353 18.972 39.5378 19.3745 40.0342 19.3745C40.5307 19.3745 40.9332 18.972 40.9332 18.4755C40.9332 17.979 40.5308 17.5765 40.0342 17.5765Z" fill="#F183BC"/>
<path d="M16.3698 20.7281C16.369 21.2084 15.9915 21.6035 15.5117 21.6261L15.6143 19.8466C16.0495 19.9133 16.3706 20.2879 16.3698 20.7281Z" fill="#F183BC"/>
<path d="M18.3887 19.8296C17.8923 19.8296 17.4897 20.2321 17.4897 20.7286C17.4897 21.225 17.8923 21.6275 18.3887 21.6275C18.8852 21.6275 19.2877 21.225 19.2877 20.7286C19.2877 20.7284 19.2877 20.7283 19.2877 20.7281C19.2874 20.2318 18.885 19.8296 18.3887 19.8296Z" fill="#F183BC"/>
<path d="M21.3043 19.8296C20.8078 19.8296 20.4053 20.2321 20.4053 20.7286C20.4053 21.225 20.8078 21.6275 21.3043 21.6275C21.8007 21.6275 22.2032 21.225 22.2032 20.7286C22.2032 20.7284 22.2032 20.7283 22.2032 20.7281C22.203 20.2318 21.8006 19.8296 21.3043 19.8296Z" fill="#F183BC"/>
<path d="M24.2198 19.8296C23.7233 19.8296 23.3208 20.2321 23.3208 20.7286C23.3208 21.225 23.7233 21.6275 24.2198 21.6275C24.7163 21.6275 25.1188 21.225 25.1188 20.7286C25.1188 20.7284 25.1188 20.7283 25.1188 20.7281C25.1185 20.2318 24.7161 19.8296 24.2198 19.8296Z" fill="#F183BC"/>
<path d="M27.1353 19.8296C26.6388 19.8296 26.2363 20.2321 26.2363 20.7286C26.2363 21.225 26.6388 21.6275 27.1353 21.6275C27.6318 21.6275 28.0343 21.225 28.0343 20.7286C28.0343 20.7284 28.0343 20.7283 28.0343 20.7281C28.034 20.2318 27.6316 19.8296 27.1353 19.8296Z" fill="#F183BC"/>
<path d="M30.0503 19.8296C29.5539 19.8296 29.1514 20.2321 29.1514 20.7286C29.1514 21.225 29.5539 21.6275 30.0503 21.6275C30.5468 21.6275 30.9493 21.225 30.9493 20.7286C30.9493 20.7284 30.9493 20.7283 30.9493 20.7281C30.949 20.2318 30.5466 19.8296 30.0503 19.8296Z" fill="#F183BC"/>
<path d="M32.9664 19.8296C32.4699 19.8296 32.0674 20.2321 32.0674 20.7286C32.0674 21.225 32.4699 21.6275 32.9664 21.6275C33.4628 21.6275 33.8653 21.225 33.8653 20.7286C33.8653 20.7284 33.8653 20.7283 33.8653 20.7281C33.865 20.2318 33.4626 19.8296 32.9664 19.8296Z" fill="#F183BC"/>
<path d="M35.8814 19.8296C35.3849 19.8293 34.9822 20.2316 34.9819 20.7281C34.9816 21.2245 35.3839 21.6273 35.8804 21.6275C36.3769 21.6278 36.7796 21.2255 36.7799 20.7291C36.7799 20.7288 36.7799 20.7284 36.7799 20.7281C36.7797 20.232 36.3776 19.8299 35.8814 19.8296Z" fill="#F183BC"/>
<path d="M38.7974 19.8296C38.3009 19.8301 37.8989 20.2331 37.8994 20.7296C37.8999 21.226 38.3029 21.628 38.7994 21.6275C39.2957 21.6271 39.6977 21.2244 39.6974 20.7281C39.6971 20.2316 39.2944 19.8293 38.7979 19.8296C38.7977 19.8296 38.7976 19.8296 38.7974 19.8296Z" fill="#F183BC"/>
<path d="M41.2263 21.4826C40.8085 21.2095 40.6912 20.6494 40.9643 20.2316C41.0127 20.1574 41.0719 20.0907 41.1397 20.0338L41.2263 21.4826Z" fill="#F183BC"/>
<path d="M16.7105 22.4929C16.214 22.4929 15.8115 22.8954 15.8115 23.3919C15.8115 23.8884 16.214 24.2909 16.7105 24.2909C17.207 24.2909 17.6095 23.8884 17.6095 23.3919C17.6095 22.8954 17.207 22.4929 16.7105 22.4929Z" fill="#F183BC"/>
<path d="M19.626 22.4929C19.1296 22.4929 18.7271 22.8954 18.7271 23.3919C18.7271 23.8884 19.1296 24.2909 19.626 24.2909C20.1225 24.2909 20.525 23.8884 20.525 23.3919C20.525 22.8954 20.1226 22.4929 19.626 22.4929Z" fill="#F183BC"/>
<path d="M22.5416 22.4929C22.0451 22.4929 21.6426 22.8954 21.6426 23.3919C21.6426 23.8884 22.0451 24.2909 22.5416 24.2909C23.038 24.2909 23.4405 23.8884 23.4405 23.3919C23.4405 22.8954 23.038 22.4929 22.5416 22.4929Z" fill="#F183BC"/>
<path d="M25.4571 22.4929C24.9606 22.4929 24.5581 22.8954 24.5581 23.3919C24.5581 23.8884 24.9606 24.2909 25.4571 24.2909C25.9536 24.2909 26.3561 23.8884 26.3561 23.3919C26.356 22.8954 25.9536 22.4929 25.4571 22.4929Z" fill="#F183BC"/>
<path d="M28.3721 22.4929C27.8756 22.4929 27.4731 22.8954 27.4731 23.3919C27.4731 23.8884 27.8756 24.2909 28.3721 24.2909C28.8686 24.2909 29.2711 23.8884 29.2711 23.3919C29.2711 22.8954 28.8686 22.4929 28.3721 22.4929Z" fill="#F183BC"/>
<path d="M31.2862 22.4929C30.7897 22.4929 30.3872 22.8954 30.3872 23.3919C30.3872 23.8884 30.7897 24.2909 31.2862 24.2909C31.7827 24.2909 32.1852 23.8884 32.1852 23.3919C32.1852 22.8954 31.7827 22.4929 31.2862 22.4929Z" fill="#F183BC"/>
<path d="M34.2032 22.4929C33.7067 22.4929 33.3042 22.8954 33.3042 23.3919C33.3042 23.8884 33.7067 24.2909 34.2032 24.2909C34.6996 24.2909 35.1022 23.8884 35.1022 23.3919C35.1022 22.8954 34.6996 22.4929 34.2032 22.4929Z" fill="#F183BC"/>
<path d="M37.1202 22.4929C36.6237 22.4929 36.2212 22.8954 36.2212 23.3919C36.2212 23.8884 36.6237 24.2909 37.1202 24.2909C37.6166 24.2909 38.0191 23.8884 38.0191 23.3919C38.0191 22.8954 37.6166 22.4929 37.1202 22.4929Z" fill="#F183BC"/>
<path d="M40.0342 22.4929C39.5378 22.4929 39.1353 22.8954 39.1353 23.3919C39.1353 23.8884 39.5378 24.2909 40.0342 24.2909C40.5307 24.2909 40.9332 23.8884 40.9332 23.3919C40.9332 22.8954 40.5308 22.4929 40.0342 22.4929Z" fill="#F183BC"/>
<path d="M16.3696 25.6478C16.3699 26.1432 15.9685 26.545 15.4731 26.5453C15.4729 26.5453 15.4728 26.5453 15.4726 26.5453C15.3927 26.5476 15.3129 26.5369 15.2363 26.5136L15.3307 24.7658C15.3769 24.7529 15.4248 24.7477 15.4726 24.7503C15.9677 24.75 16.3693 25.1512 16.3696 25.6463V25.6478Z" fill="#F183BC"/>
<path d="M18.3887 24.7465C17.8923 24.7465 17.4897 25.149 17.4897 25.6454C17.4897 26.1419 17.8923 26.5444 18.3887 26.5444C18.8852 26.5444 19.2877 26.1419 19.2877 25.6454C19.2877 25.149 18.8852 24.7465 18.3887 24.7465Z" fill="#F183BC"/>
<path d="M21.3043 24.7465C20.8078 24.7465 20.4053 25.149 20.4053 25.6454C20.4053 26.1419 20.8078 26.5444 21.3043 26.5444C21.8007 26.5444 22.2032 26.1419 22.2032 25.6454C22.2032 25.149 21.8008 24.7465 21.3043 24.7465Z" fill="#F183BC"/>
<path d="M24.2198 24.7465C23.7233 24.7465 23.3208 25.149 23.3208 25.6454C23.3208 26.1419 23.7233 26.5444 24.2198 26.5444C24.7163 26.5444 25.1188 26.1419 25.1188 25.6454C25.1188 25.149 24.7163 24.7465 24.2198 24.7465Z" fill="#F183BC"/>
<path d="M27.1353 24.7465C26.6388 24.7465 26.2363 25.149 26.2363 25.6454C26.2363 26.1419 26.6388 26.5444 27.1353 26.5444C27.6318 26.5444 28.0343 26.1419 28.0343 25.6454C28.0342 25.149 27.6318 24.7465 27.1353 24.7465Z" fill="#F183BC"/>
<path d="M30.0503 24.7465C29.5539 24.7465 29.1514 25.149 29.1514 25.6454C29.1514 26.1419 29.5539 26.5444 30.0503 26.5444C30.5468 26.5444 30.9493 26.1419 30.9493 25.6454C30.9493 25.149 30.5468 24.7465 30.0503 24.7465Z" fill="#F183BC"/>
<path d="M32.9664 24.7465C32.4699 24.7465 32.0674 25.149 32.0674 25.6454C32.0674 26.1419 32.4699 26.5444 32.9664 26.5444C33.4628 26.5444 33.8653 26.1419 33.8653 25.6454C33.8653 25.149 33.4628 24.7465 32.9664 24.7465Z" fill="#F183BC"/>
<path d="M35.8814 24.7465C35.3849 24.7462 34.9822 25.1485 34.9819 25.6449C34.9816 26.1414 35.3839 26.5441 35.8804 26.5444C36.3769 26.5447 36.7796 26.1424 36.7799 25.6459C36.7799 25.6457 36.7799 25.6456 36.7799 25.6454C36.7799 25.1492 36.3778 24.7468 35.8814 24.7465Z" fill="#F183BC"/>
<path d="M38.7974 24.7465C38.3009 24.747 37.8989 25.1499 37.8994 25.6464C37.8999 26.1429 38.3029 26.5449 38.7994 26.5444C39.2955 26.5439 39.6974 26.1415 39.6974 25.6454C39.6974 25.149 39.2949 24.7465 38.7984 24.7465C38.798 24.7465 38.7977 24.7465 38.7974 24.7465Z" fill="#F183BC"/>
<path d="M41.5098 26.5215C41.1029 26.4274 40.8153 26.0641 40.817 25.6463C40.8124 25.2655 41.054 24.9252 41.415 24.8038L41.5098 26.5215Z" fill="#F183BC"/>
<path d="M16.7105 27.4092C16.214 27.4092 15.8115 27.8117 15.8115 28.3082C15.8115 28.8047 16.214 29.2072 16.7105 29.2072C17.207 29.2072 17.6095 28.8047 17.6095 28.3082C17.6095 27.8117 17.207 27.4092 16.7105 27.4092Z" fill="#F183BC"/>
<path d="M19.626 27.4092C19.1296 27.4092 18.7271 27.8117 18.7271 28.3082C18.7271 28.8047 19.1296 29.2072 19.626 29.2072C20.1225 29.2072 20.525 28.8047 20.525 28.3082C20.525 27.8117 20.1226 27.4092 19.626 27.4092Z" fill="#F183BC"/>
<path d="M22.5416 27.4092C22.0451 27.4092 21.6426 27.8117 21.6426 28.3082C21.6426 28.8047 22.0451 29.2072 22.5416 29.2072C23.038 29.2072 23.4405 28.8047 23.4405 28.3082C23.4405 27.8117 23.038 27.4092 22.5416 27.4092Z" fill="#F183BC"/>
<path d="M25.4571 27.4092C24.9606 27.4092 24.5581 27.8117 24.5581 28.3082C24.5581 28.8047 24.9606 29.2072 25.4571 29.2072C25.9536 29.2072 26.3561 28.8047 26.3561 28.3082C26.356 27.8117 25.9536 27.4092 25.4571 27.4092Z" fill="#F183BC"/>
<path d="M28.3721 27.4092C27.8756 27.4092 27.4731 27.8117 27.4731 28.3082C27.4731 28.8047 27.8756 29.2072 28.3721 29.2072C28.8686 29.2072 29.2711 28.8047 29.2711 28.3082C29.2711 27.8117 28.8686 27.4092 28.3721 27.4092Z" fill="#F183BC"/>
<path d="M31.2862 27.4092C30.7897 27.4092 30.3872 27.8117 30.3872 28.3082C30.3872 28.8047 30.7897 29.2072 31.2862 29.2072C31.7827 29.2072 32.1852 28.8047 32.1852 28.3082C32.1852 27.8117 31.7827 27.4092 31.2862 27.4092Z" fill="#F183BC"/>
<path d="M34.2032 27.4092C33.7067 27.4092 33.3042 27.8117 33.3042 28.3082C33.3042 28.8047 33.7067 29.2072 34.2032 29.2072C34.6996 29.2072 35.1022 28.8047 35.1022 28.3082C35.1022 27.8117 34.6996 27.4092 34.2032 27.4092Z" fill="#F183BC"/>
<path d="M37.1202 27.4092C36.6237 27.4092 36.2212 27.8117 36.2212 28.3082C36.2212 28.8047 36.6237 29.2072 37.1202 29.2072C37.6166 29.2072 38.0191 28.8047 38.0191 28.3082C38.0191 27.8117 37.6166 27.4092 37.1202 27.4092Z" fill="#F183BC"/>
<path d="M40.0342 27.4092C39.5378 27.4092 39.1353 27.8117 39.1353 28.3082C39.1353 28.8047 39.5378 29.2072 40.0342 29.2072C40.5307 29.2072 40.9332 28.8047 40.9332 28.3082C40.9332 27.8117 40.5308 27.4092 40.0342 27.4092Z" fill="#F183BC"/>
<path d="M16.3699 30.5608C16.3685 31.0581 15.9643 31.4602 15.467 31.4588C15.286 31.4583 15.1093 31.4033 14.96 31.3007L15.0474 29.7712C15.1773 29.6983 15.3239 29.6604 15.4728 29.6613C15.9679 29.661 16.3696 30.0623 16.3699 30.5574C16.37 30.5585 16.37 30.5596 16.3699 30.5608Z" fill="#F183BC"/>
<path d="M18.3887 29.6628C17.8923 29.6628 17.4897 30.0653 17.4897 30.5618C17.4897 31.0582 17.8923 31.4607 18.3887 31.4607C18.8852 31.4607 19.2877 31.0582 19.2877 30.5618C19.2877 30.0653 18.8852 29.6628 18.3887 29.6628Z" fill="#F183BC"/>
<path d="M21.3043 29.6628C20.8078 29.6628 20.4053 30.0653 20.4053 30.5618C20.4053 31.0582 20.8078 31.4607 21.3043 31.4607C21.8007 31.4607 22.2032 31.0582 22.2032 30.5618C22.2032 30.0653 21.8008 29.6628 21.3043 29.6628Z" fill="#F183BC"/>
<path d="M24.2198 29.6628C23.7233 29.6628 23.3208 30.0653 23.3208 30.5618C23.3208 31.0582 23.7233 31.4607 24.2198 31.4607C24.7163 31.4607 25.1188 31.0582 25.1188 30.5618C25.1188 30.0653 24.7163 29.6628 24.2198 29.6628Z" fill="#F183BC"/>
<path d="M27.1353 29.6628C26.6388 29.6628 26.2363 30.0653 26.2363 30.5618C26.2363 31.0582 26.6388 31.4607 27.1353 31.4607C27.6318 31.4607 28.0343 31.0582 28.0343 30.5618C28.0342 30.0653 27.6318 29.6628 27.1353 29.6628Z" fill="#F183BC"/>
<path d="M30.0503 29.6628C29.5539 29.6628 29.1514 30.0653 29.1514 30.5618C29.1514 31.0582 29.5539 31.4607 30.0503 31.4607C30.5468 31.4607 30.9493 31.0582 30.9493 30.5618C30.9493 30.0653 30.5468 29.6628 30.0503 29.6628Z" fill="#F183BC"/>
<path d="M32.9664 29.6628C32.4699 29.6628 32.0674 30.0653 32.0674 30.5618C32.0674 31.0582 32.4699 31.4607 32.9664 31.4607C33.4628 31.4607 33.8653 31.0582 33.8653 30.5618C33.8653 30.0653 33.4628 29.6628 32.9664 29.6628Z" fill="#F183BC"/>
<path d="M35.8814 29.6628C35.3849 29.6625 34.9822 30.0648 34.9819 30.5613C34.9816 31.0577 35.3839 31.4604 35.8804 31.4607C36.3769 31.461 36.7796 31.0587 36.7799 30.5623C36.7799 30.5621 36.7799 30.562 36.7799 30.5618C36.7799 30.0655 36.3778 29.6631 35.8814 29.6628Z" fill="#F183BC"/>
<path d="M38.7974 29.6628C38.3009 29.6633 37.8989 30.0663 37.8994 30.5627C37.8999 31.0592 38.3029 31.4612 38.7994 31.4607C39.2955 31.4602 39.6974 31.0578 39.6974 30.5618C39.6974 30.0653 39.2949 29.6628 38.7984 29.6628C38.798 29.6628 38.7977 29.6628 38.7974 29.6628Z" fill="#F183BC"/>
<path d="M41.7929 31.4506C41.7671 31.457 41.7406 31.4596 41.7142 31.4583C41.2185 31.4649 40.8114 31.0684 40.8048 30.5727C40.7982 30.077 41.1947 29.6699 41.6904 29.6633L41.7929 31.4506Z" fill="#F183BC"/>
<path d="M16.7105 32.3261C16.214 32.3261 15.8115 32.7286 15.8115 33.2251C15.8115 33.7216 16.214 34.1241 16.7105 34.1241C17.207 34.1241 17.6095 33.7216 17.6095 33.2251C17.6095 33.2244 17.6095 33.2238 17.6095 33.2231C17.6084 32.7274 17.2062 32.3261 16.7105 32.3261Z" fill="#F183BC"/>
<path d="M19.626 32.3261C19.1296 32.3261 18.7271 32.7286 18.7271 33.2251C18.7271 33.7216 19.1296 34.1241 19.626 34.1241C20.1225 34.1241 20.525 33.7216 20.525 33.2251C20.525 33.2244 20.525 33.2238 20.525 33.2231C20.5239 32.7274 20.1218 32.3261 19.626 32.3261Z" fill="#F183BC"/>
<path d="M22.5416 32.3261C22.0451 32.3261 21.6426 32.7286 21.6426 33.2251C21.6426 33.7216 22.0451 34.1241 22.5416 34.1241C23.038 34.1241 23.4405 33.7216 23.4405 33.2251C23.4405 33.2244 23.4405 33.2238 23.4405 33.2231C23.4395 32.7274 23.0372 32.3261 22.5416 32.3261Z" fill="#F183BC"/>
<path d="M25.4571 32.3261C24.9606 32.3261 24.5581 32.7286 24.5581 33.2251C24.5581 33.7216 24.9606 34.1241 25.4571 34.1241C25.9536 34.1241 26.3561 33.7216 26.3561 33.2251C26.3561 33.2244 26.3561 33.2238 26.3561 33.2231C26.355 32.7274 25.9528 32.3261 25.4571 32.3261Z" fill="#F183BC"/>
<path d="M28.3721 32.3261C27.8756 32.3261 27.4731 32.7286 27.4731 33.2251C27.4731 33.7216 27.8756 34.1241 28.3721 34.1241C28.8686 34.1241 29.2711 33.7216 29.2711 33.2251C29.2711 33.2244 29.2711 33.2238 29.2711 33.2231C29.27 32.7274 28.8679 32.3261 28.3721 32.3261Z" fill="#F183BC"/>
<path d="M31.2862 32.3261C30.7897 32.3272 30.3881 32.7306 30.3892 33.2271C30.3902 33.7235 30.7936 34.1252 31.2901 34.1241C31.7866 34.123 32.1882 33.7197 32.1871 33.2231C32.186 32.7267 31.7826 32.325 31.2862 32.3261Z" fill="#F183BC"/>
<path d="M34.2032 32.3261C33.7067 32.3261 33.3042 32.7286 33.3042 33.2251C33.3042 33.7216 33.7067 34.1241 34.2032 34.1241C34.6996 34.1241 35.1022 33.7216 35.1022 33.2251C35.1022 33.2244 35.1022 33.2238 35.1022 33.2231C35.1011 32.7274 34.699 32.3261 34.2032 32.3261Z" fill="#F183BC"/>
<path d="M37.1202 32.3261C36.6237 32.3253 36.2205 32.7271 36.2197 33.2236C36.2189 33.7201 36.6208 34.1233 37.1172 34.1241C37.6137 34.1249 38.0168 33.723 38.0177 33.2266C38.0177 33.2254 38.0177 33.2243 38.0177 33.2231C38.0166 32.728 37.6153 32.3269 37.1202 32.3261Z" fill="#F183BC"/>
<path d="M40.0342 32.3261C39.5378 32.3261 39.1353 32.7286 39.1353 33.2251C39.1353 33.7216 39.5378 34.1241 40.0342 34.1241C40.5307 34.1241 40.9332 33.7216 40.9332 33.2251C40.9332 33.2244 40.9332 33.2238 40.9332 33.2231C40.9321 32.7274 40.53 32.3261 40.0342 32.3261Z" fill="#F183BC"/>
<path d="M16.3697 35.4815C16.37 35.9769 15.9686 36.3787 15.4732 36.379C15.473 36.379 15.4729 36.379 15.4727 36.379C15.1491 36.3817 14.8502 36.2063 14.6948 35.9225L14.7503 34.9462C14.9173 34.7125 15.1875 34.5745 15.4747 34.5762C15.9711 34.5808 16.3709 34.9851 16.3697 35.4815Z" fill="#F183BC"/>
<path d="M18.3887 34.5797C17.8923 34.5797 17.4897 34.9822 17.4897 35.4786C17.4897 35.9751 17.8923 36.3776 18.3887 36.3776C18.8852 36.3776 19.2877 35.9751 19.2877 35.4786C19.2877 34.9821 18.8852 34.5797 18.3887 34.5797Z" fill="#F183BC"/>
<path d="M21.3043 34.5797C20.8078 34.5797 20.4053 34.9822 20.4053 35.4786C20.4053 35.9751 20.8078 36.3776 21.3043 36.3776C21.8007 36.3776 22.2032 35.9751 22.2032 35.4786C22.2032 34.9821 21.8008 34.5797 21.3043 34.5797Z" fill="#F183BC"/>
<path d="M24.2198 34.5797C23.7233 34.5797 23.3208 34.9822 23.3208 35.4786C23.3208 35.9751 23.7233 36.3776 24.2198 36.3776C24.7163 36.3776 25.1188 35.9751 25.1188 35.4786C25.1188 34.9821 24.7163 34.5797 24.2198 34.5797Z" fill="#F183BC"/>
<path d="M27.1353 34.5797C26.6388 34.5797 26.2363 34.9822 26.2363 35.4786C26.2363 35.9751 26.6388 36.3776 27.1353 36.3776C27.6318 36.3776 28.0343 35.9751 28.0343 35.4786C28.0342 34.9821 27.6318 34.5797 27.1353 34.5797Z" fill="#F183BC"/>
<path d="M30.0503 34.5797C29.5539 34.5797 29.1514 34.9822 29.1514 35.4786C29.1514 35.9751 29.5539 36.3776 30.0503 36.3776C30.5468 36.3776 30.9493 35.9751 30.9493 35.4786C30.9493 34.9821 30.5468 34.5797 30.0503 34.5797Z" fill="#F183BC"/>
<path d="M32.9664 34.5797C32.4699 34.5797 32.0674 34.9822 32.0674 35.4786C32.0674 35.9751 32.4699 36.3776 32.9664 36.3776C33.4628 36.3776 33.8653 35.9751 33.8653 35.4786C33.8653 34.9821 33.4628 34.5797 32.9664 34.5797Z" fill="#F183BC"/>
<path d="M35.8814 34.5797C35.3849 34.5794 34.9822 34.9817 34.9819 35.4781C34.9816 35.9746 35.3839 36.3773 35.8804 36.3776C36.3769 36.3779 36.7796 35.9756 36.7799 35.4791C36.7799 35.4789 36.7799 35.4788 36.7799 35.4786C36.7799 34.9823 36.3778 34.5798 35.8814 34.5797Z" fill="#F183BC"/>
<path d="M38.7974 34.5797C38.3009 34.5801 37.8989 34.9831 37.8994 35.4796C37.8999 35.9761 38.3029 36.3781 38.7994 36.3776C39.2955 36.3771 39.6974 35.9747 39.6974 35.4786C39.6977 34.9825 39.2956 34.5799 38.7994 34.5797C38.7987 34.5797 38.798 34.5797 38.7974 34.5797Z" fill="#F183BC"/>
<path d="M42.0688 36.3003C41.9585 36.354 41.837 36.381 41.7144 36.379C41.2165 36.3812 40.8113 35.9794 40.8091 35.4815C40.8069 34.9837 41.2087 34.5784 41.7066 34.5762C41.7972 34.5758 41.8874 34.5891 41.9739 34.6156L42.0688 36.3003Z" fill="#F183BC"/>
<path d="M14.6927 38.1429C14.6938 38.3256 14.6388 38.5041 14.5352 38.6545L14.5906 37.7307C14.6578 37.8577 14.6929 37.9992 14.6927 38.1429Z" fill="#F183BC"/>
<path d="M16.7105 37.2425C16.214 37.2425 15.8115 37.645 15.8115 38.1415C15.8115 38.6379 16.214 39.0405 16.7105 39.0405C17.207 39.0405 17.6095 38.6379 17.6095 38.1415C17.6095 37.645 17.207 37.2425 16.7105 37.2425Z" fill="#F183BC"/>
<path d="M19.626 37.2425C19.1296 37.2425 18.7271 37.645 18.7271 38.1415C18.7271 38.6379 19.1296 39.0405 19.626 39.0405C20.1225 39.0405 20.525 38.6379 20.525 38.1415C20.525 37.645 20.1226 37.2425 19.626 37.2425Z" fill="#F183BC"/>
<path d="M22.5416 37.2425C22.0451 37.2425 21.6426 37.645 21.6426 38.1415C21.6426 38.6379 22.0451 39.0405 22.5416 39.0405C23.038 39.0405 23.4405 38.6379 23.4405 38.1415C23.4405 37.645 23.038 37.2425 22.5416 37.2425Z" fill="#F183BC"/>
<path d="M25.4571 37.2425C24.9606 37.2425 24.5581 37.645 24.5581 38.1415C24.5581 38.6379 24.9606 39.0405 25.4571 39.0405C25.9536 39.0405 26.3561 38.6379 26.3561 38.1415C26.356 37.645 25.9536 37.2425 25.4571 37.2425Z" fill="#F183BC"/>
<path d="M28.3721 37.2425C27.8756 37.2425 27.4731 37.645 27.4731 38.1415C27.4731 38.6379 27.8756 39.0405 28.3721 39.0405C28.8686 39.0405 29.2711 38.6379 29.2711 38.1415C29.2711 37.645 28.8686 37.2425 28.3721 37.2425Z" fill="#F183BC"/>
<path d="M31.2862 37.2425C30.7897 37.2425 30.3872 37.645 30.3872 38.1415C30.3872 38.6379 30.7897 39.0405 31.2862 39.0405C31.7827 39.0405 32.1852 38.6379 32.1852 38.1415C32.1852 37.645 31.7827 37.2425 31.2862 37.2425Z" fill="#F183BC"/>
<path d="M34.2032 37.2425C33.7067 37.2425 33.3042 37.645 33.3042 38.1415C33.3042 38.6379 33.7067 39.0405 34.2032 39.0405C34.6996 39.0405 35.1022 38.6379 35.1022 38.1415C35.1022 37.645 34.6996 37.2425 34.2032 37.2425Z" fill="#F183BC"/>
<path d="M37.1202 37.2425C36.6237 37.2425 36.2212 37.645 36.2212 38.1415C36.2212 38.6379 36.6237 39.0405 37.1202 39.0405C37.6166 39.0405 38.0191 38.6379 38.0191 38.1415C38.0191 37.645 37.6166 37.2425 37.1202 37.2425Z" fill="#F183BC"/>
<path d="M40.0342 37.2425C39.5378 37.2425 39.1353 37.645 39.1353 38.1415C39.1353 38.6379 39.5378 39.0405 40.0342 39.0405C40.5307 39.0405 40.9332 38.6379 40.9332 38.1415C40.9332 37.645 40.5308 37.2425 40.0342 37.2425Z" fill="#F183BC"/>
<path d="M42.2022 38.6466C42.1036 38.4972 42.0515 38.3219 42.0525 38.143C42.0489 38.0022 42.0844 37.8631 42.1551 37.7413L42.2022 38.6466Z" fill="#F183BC"/>
<path d="M15.4737 39.4951C14.9772 39.4951 14.5747 39.8976 14.5747 40.394C14.5747 40.8905 14.9772 41.293 15.4737 41.293C15.9702 41.293 16.3727 40.8905 16.3727 40.394C16.3727 39.8976 15.9702 39.4951 15.4737 39.4951Z" fill="#F183BC"/>
<path d="M18.3887 39.4951C17.8923 39.4951 17.4897 39.8976 17.4897 40.394C17.4897 40.8905 17.8923 41.293 18.3887 41.293C18.8852 41.293 19.2877 40.8905 19.2877 40.394C19.2877 39.8976 18.8852 39.4951 18.3887 39.4951Z" fill="#F183BC"/>
<path d="M21.3043 39.4951C20.8078 39.4951 20.4053 39.8976 20.4053 40.394C20.4053 40.8905 20.8078 41.293 21.3043 41.293C21.8007 41.293 22.2032 40.8905 22.2032 40.394C22.2032 39.8976 21.8008 39.4951 21.3043 39.4951Z" fill="#F183BC"/>
<path d="M24.2198 39.4951C23.7233 39.4951 23.3208 39.8976 23.3208 40.394C23.3208 40.8905 23.7233 41.293 24.2198 41.293C24.7163 41.293 25.1188 40.8905 25.1188 40.394C25.1188 39.8976 24.7163 39.4951 24.2198 39.4951Z" fill="#F183BC"/>
<path d="M27.1353 39.4951C26.6388 39.4951 26.2363 39.8976 26.2363 40.394C26.2363 40.8905 26.6388 41.293 27.1353 41.293C27.6318 41.293 28.0343 40.8905 28.0343 40.394C28.0342 39.8976 27.6318 39.4951 27.1353 39.4951Z" fill="#F183BC"/>
<path d="M30.0503 39.4951C29.5539 39.4951 29.1514 39.8976 29.1514 40.394C29.1514 40.8905 29.5539 41.293 30.0503 41.293C30.5468 41.293 30.9493 40.8905 30.9493 40.394C30.9493 39.8976 30.5468 39.4951 30.0503 39.4951Z" fill="#F183BC"/>
<path d="M32.9664 39.4951C32.4699 39.4951 32.0674 39.8976 32.0674 40.394C32.0674 40.8905 32.4699 41.293 32.9664 41.293C33.4628 41.293 33.8653 40.8905 33.8653 40.394C33.8653 39.8976 33.4628 39.4951 32.9664 39.4951Z" fill="#F183BC"/>
<path d="M35.8814 39.4951C35.3849 39.4948 34.9822 39.8971 34.9819 40.3935C34.9816 40.89 35.3839 41.2927 35.8804 41.293C36.3767 41.2933 36.7793 40.8913 36.7799 40.395C36.7804 39.8985 36.3784 39.4956 35.8819 39.4951C35.8819 39.4951 35.8816 39.4951 35.8814 39.4951Z" fill="#F183BC"/>
<path d="M38.7974 39.4951C38.3009 39.4955 37.8989 39.8985 37.8994 40.395C37.8999 40.8915 38.3029 41.2935 38.7994 41.293C39.2951 41.2925 39.6968 40.8907 39.6974 40.395C39.6979 39.8985 39.2958 39.4956 38.7994 39.4951C38.7987 39.4951 38.798 39.4951 38.7974 39.4951Z" fill="#F183BC"/>
<path d="M42.3439 41.0401C41.9889 41.3883 41.4188 41.3827 41.0706 41.0278C40.7223 40.6728 40.7279 40.1027 41.083 39.7544C41.4046 39.439 41.9099 39.4097 42.2657 39.686L42.3439 41.0401Z" fill="#F183BC"/>
<path d="M14.6929 43.0558C14.6955 43.3794 14.5202 43.6783 14.2363 43.8337L14.3228 42.33C14.5559 42.4983 14.6936 42.7684 14.6929 43.0558Z" fill="#F183BC"/>
<path d="M16.7105 42.1594C16.214 42.1594 15.8115 42.5619 15.8115 43.0583C15.8115 43.5548 16.214 43.9573 16.7105 43.9573C17.207 43.9573 17.6095 43.5548 17.6095 43.0583C17.6095 42.5619 17.207 42.1594 16.7105 42.1594Z" fill="#F183BC"/>
<path d="M19.626 42.1594C19.1296 42.1594 18.7271 42.5619 18.7271 43.0583C18.7271 43.5548 19.1296 43.9573 19.626 43.9573C20.1225 43.9573 20.525 43.5548 20.525 43.0583C20.525 42.5619 20.1226 42.1594 19.626 42.1594Z" fill="#F183BC"/>
<path d="M22.5416 42.1594C22.0451 42.1594 21.6426 42.5619 21.6426 43.0583C21.6426 43.5548 22.0451 43.9573 22.5416 43.9573C23.038 43.9573 23.4405 43.5548 23.4405 43.0583C23.4405 42.5619 23.038 42.1594 22.5416 42.1594Z" fill="#F183BC"/>
<path d="M25.4571 42.1594C24.9606 42.1594 24.5581 42.5619 24.5581 43.0583C24.5581 43.5548 24.9606 43.9573 25.4571 43.9573C25.9536 43.9573 26.3561 43.5548 26.3561 43.0583C26.356 42.5619 25.9536 42.1594 25.4571 42.1594Z" fill="#F183BC"/>
<path d="M28.3721 42.1594C27.8756 42.1594 27.4731 42.5619 27.4731 43.0583C27.4731 43.5548 27.8756 43.9573 28.3721 43.9573C28.8686 43.9573 29.2711 43.5548 29.2711 43.0583C29.2711 42.5619 28.8686 42.1594 28.3721 42.1594Z" fill="#F183BC"/>
<path d="M31.2862 42.1594C30.7897 42.1594 30.3872 42.5619 30.3872 43.0583C30.3872 43.5548 30.7897 43.9573 31.2862 43.9573C31.7827 43.9573 32.1852 43.5548 32.1852 43.0583C32.1852 42.5619 31.7827 42.1594 31.2862 42.1594Z" fill="#F183BC"/>
<path d="M34.2032 42.1594C33.7067 42.1594 33.3042 42.5619 33.3042 43.0583C33.3042 43.5548 33.7067 43.9573 34.2032 43.9573C34.6996 43.9573 35.1022 43.5548 35.1022 43.0583C35.1022 42.5619 34.6996 42.1594 34.2032 42.1594Z" fill="#F183BC"/>
<path d="M37.1202 42.1594C36.6237 42.1594 36.2212 42.5619 36.2212 43.0583C36.2212 43.5548 36.6237 43.9573 37.1202 43.9573C37.6166 43.9573 38.0191 43.5548 38.0191 43.0583C38.0191 42.5619 37.6166 42.1594 37.1202 42.1594Z" fill="#F183BC"/>
<path d="M40.0342 42.1594C39.5378 42.1594 39.1353 42.5619 39.1353 43.0583C39.1353 43.5548 39.5378 43.9573 40.0342 43.9573C40.5307 43.9573 40.9332 43.5548 40.9332 43.0583C40.9332 42.5619 40.5308 42.1594 40.0342 42.1594Z" fill="#F183BC"/>
<path d="M42.5014 43.8275C42.2236 43.6701 42.0521 43.3752 42.0527 43.0559C42.0517 42.7706 42.186 42.5017 42.4149 42.3315L42.5014 43.8275Z" fill="#F183BC"/>
<path d="M15.4737 44.4124C14.9772 44.4124 14.5747 44.8149 14.5747 45.3114C14.5747 45.8079 14.9772 46.2104 15.4737 46.2104C15.9702 46.2104 16.3727 45.8079 16.3727 45.3114C16.3727 44.8148 15.9702 44.4124 15.4737 44.4124Z" fill="#F183BC"/>
<path d="M18.3887 44.4124C17.8923 44.4124 17.4897 44.8149 17.4897 45.3114C17.4897 45.8079 17.8923 46.2104 18.3887 46.2104C18.8852 46.2104 19.2877 45.8079 19.2877 45.3114C19.2877 44.8148 18.8852 44.4124 18.3887 44.4124Z" fill="#F183BC"/>
<path d="M21.3043 44.4124C20.8078 44.4124 20.4053 44.8149 20.4053 45.3114C20.4053 45.8079 20.8078 46.2104 21.3043 46.2104C21.8007 46.2104 22.2032 45.8079 22.2032 45.3114C22.2032 44.8148 21.8008 44.4124 21.3043 44.4124Z" fill="#F183BC"/>
<path d="M24.2198 44.4124C23.7233 44.4124 23.3208 44.8149 23.3208 45.3114C23.3208 45.8079 23.7233 46.2104 24.2198 46.2104C24.7163 46.2104 25.1188 45.8079 25.1188 45.3114C25.1188 44.8148 24.7163 44.4124 24.2198 44.4124Z" fill="#F183BC"/>
<path d="M27.1353 44.4124C26.6388 44.4124 26.2363 44.8149 26.2363 45.3114C26.2363 45.8079 26.6388 46.2104 27.1353 46.2104C27.6318 46.2104 28.0343 45.8079 28.0343 45.3114C28.0342 44.8148 27.6318 44.4124 27.1353 44.4124Z" fill="#F183BC"/>
<path d="M30.0503 44.4124C29.5539 44.4124 29.1514 44.8149 29.1514 45.3114C29.1514 45.8079 29.5539 46.2104 30.0503 46.2104C30.5468 46.2104 30.9493 45.8079 30.9493 45.3114C30.9493 44.8148 30.5468 44.4124 30.0503 44.4124Z" fill="#F183BC"/>
<path d="M32.9664 44.4124C32.4699 44.4124 32.0674 44.8149 32.0674 45.3114C32.0674 45.8079 32.4699 46.2104 32.9664 46.2104C33.4628 46.2104 33.8653 45.8079 33.8653 45.3114C33.8653 44.8148 33.4628 44.4124 32.9664 44.4124Z" fill="#F183BC"/>
<path d="M35.8814 44.4124C35.3849 44.4121 34.9822 44.8144 34.9819 45.3109C34.9816 45.8074 35.3839 46.2101 35.8804 46.2104C36.3769 46.2107 36.7796 45.8084 36.7799 45.3119C36.7799 45.3117 36.7799 45.3116 36.7799 45.3114C36.7799 44.815 36.3778 44.4126 35.8814 44.4124Z" fill="#F183BC"/>
<path d="M38.7974 44.4124C38.3009 44.4129 37.8989 44.8159 37.8994 45.3124C37.8999 45.8088 38.3029 46.2109 38.7994 46.2104C39.2955 46.2099 39.6974 45.8075 39.6974 45.3114C39.6974 44.8149 39.2949 44.4124 38.7984 44.4124C38.798 44.4124 38.7977 44.4124 38.7974 44.4124Z" fill="#F183BC"/>
<path d="M41.7125 44.4124C41.216 44.4124 40.8135 44.8149 40.8135 45.3114C40.8135 45.8079 41.216 46.2104 41.7125 46.2104C42.2089 46.2104 42.6114 45.8079 42.6114 45.3114C42.6114 44.8148 42.209 44.4124 41.7125 44.4124Z" fill="#F183BC"/>
<path d="M14.6928 47.9767V48H14L14.0487 47.1185C14.4316 47.2276 14.6949 47.5785 14.6928 47.9767Z" fill="#F183BC"/>
<path d="M17.606 47.9767V48H15.811V47.9767C15.811 47.481 16.2129 47.0792 16.7085 47.0792C17.2042 47.0792 17.606 47.481 17.606 47.9767Z" fill="#F183BC"/>
<path d="M20.5269 47.9766V47.9999H18.7236V47.9766C18.7352 47.4787 19.1483 47.0844 19.6462 47.096C20.1279 47.1071 20.5157 47.4949 20.5269 47.9766Z" fill="#F183BC"/>
<path d="M23.4405 47.9767V48H21.6455V47.9767C21.6455 47.481 22.0473 47.0792 22.543 47.0792C23.0387 47.0792 23.4405 47.481 23.4405 47.9767Z" fill="#F183BC"/>
<path d="M26.3531 47.9767V48H24.5581V47.9767C24.5581 47.481 24.9599 47.0792 25.4556 47.0792C25.9513 47.0792 26.3531 47.481 26.3531 47.9767Z" fill="#F183BC"/>
<path d="M29.2745 47.9766V47.9999H27.4712V47.9766C27.4828 47.4787 27.8958 47.0844 28.3938 47.096C28.8754 47.1071 29.2632 47.4949 29.2745 47.9766Z" fill="#F183BC"/>
<path d="M32.1876 47.9767V48H30.3926V47.9767C30.3926 47.481 30.7944 47.0792 31.2901 47.0792C31.7857 47.0792 32.1876 47.481 32.1876 47.9767Z" fill="#F183BC"/>
<path d="M35.1007 47.9767V48H33.3057V47.9767C33.3057 47.481 33.7075 47.0792 34.2032 47.0792C34.6989 47.0792 35.1007 47.481 35.1007 47.9767Z" fill="#F183BC"/>
<path d="M38.0138 47.9767V48H36.2188V47.9767C36.2188 47.481 36.6206 47.0792 37.1163 47.0792C37.6119 47.0792 38.0138 47.481 38.0138 47.9767Z" fill="#F183BC"/>
<path d="M40.9351 47.9766V47.9999H39.1318V47.9766C39.1434 47.4787 39.5565 47.0844 40.0544 47.096C40.5361 47.1071 40.9239 47.4949 40.9351 47.9766Z" fill="#F183BC"/>
<path d="M42.7377 48H42.0527V47.9767C42.0532 47.5813 42.3122 47.2329 42.6907 47.1186L42.7377 48Z" fill="#F183BC"/>
<path d="M34.7552 24.1917H33.3769V14.3274C33.3496 11.5631 31.0867 9.34439 28.3224 9.37162C25.5966 9.39845 23.3935 11.6016 23.3666 14.3274V24.1917H21.9893V14.3274C22.0201 10.8022 24.9028 7.96939 28.4281 8.00025C31.9098 8.03072 34.7247 10.8457 34.7552 14.3274V24.1917Z" fill="#3A556A"/>
</svg>
