<svg width="56" height="56" viewBox="0 0 56 56" fill="none" xmlns="http://www.w3.org/2000/svg">
<g clip-path="url(#clip0_14568_9843)">
<path d="M34.9839 16.254H33.7141V14.9841C33.7141 11.8334 31.1508 9.26984 27.9998 9.26984C24.8488 9.26984 22.2855 11.8334 22.2855 14.9841V16.254H21.0156V14.9841C21.0156 11.133 24.1487 8 27.9998 8C31.8509 8 34.9839 11.133 34.9839 14.9841V16.254Z" fill="#575B6D"/>
<path d="M9.5874 29.5873V45.4603C9.5874 46.8629 10.7244 48 12.1271 48H43.8731C45.2758 48 46.4128 46.8629 46.4128 45.4603V29.5873H9.5874Z" fill="#694B4B"/>
<path d="M17.2065 36.5714H38.7937C41.8288 36.5714 44.5497 35.2266 46.4128 33.1095V29.5873H9.5874V45.4603C9.5874 46.863 10.7244 48 12.1271 48H43.8731C45.2758 48 46.4128 46.8629 46.4128 45.4603H19.1112C16.306 45.4603 14.0319 43.1862 14.0319 40.381V37.6745C14.0319 36.8908 14.7341 36.2933 15.5064 36.4262C16.059 36.5213 16.6268 36.5714 17.2065 36.5714Z" fill="#5A4146"/>
<path d="M38.7936 35.3016H17.2063C12.2971 35.3016 8.31738 31.3219 8.31738 26.4126V18.7936C8.31738 18.0923 8.8859 17.5237 9.58723 17.5237H46.4126C47.1139 17.5237 47.6825 18.0923 47.6825 18.7936V26.4126C47.6825 31.3219 43.7028 35.3016 38.7936 35.3016Z" fill="#785550"/>
<path d="M22.2856 14.9841H21.0158C20.6651 14.9841 20.3809 15.2683 20.3809 15.6191V17.5238H22.9205V15.6191C22.9205 15.2683 22.6363 14.9841 22.2856 14.9841Z" fill="#5A4146"/>
<path d="M34.9839 14.9841H33.714C33.3633 14.9841 33.0791 15.2683 33.0791 15.6191V17.5238H35.6188V15.6191C35.6188 15.2683 35.3345 14.9841 34.9839 14.9841Z" fill="#5A4146"/>
<path d="M40.0637 22.6032H15.3017C13.1978 22.6032 11.4922 20.8976 11.4922 18.7936V17.5238H43.8731V18.7936C43.8732 20.8976 42.1676 22.6032 40.0637 22.6032Z" fill="#8C5F5F"/>
<path d="M36.5716 38.4762H35.9367C35.5861 38.4762 35.3018 38.1919 35.3018 37.8413V31.492C35.3018 31.1414 35.5861 30.8571 35.9367 30.8571H36.5716C36.9222 30.8571 37.2065 31.1414 37.2065 31.492V37.8413C37.2065 38.192 36.9223 38.4762 36.5716 38.4762Z" fill="#5A4146"/>
<path d="M37.5239 37.2063H34.9842C34.2829 37.2063 33.7144 36.6378 33.7144 35.9365V34.9841H38.7937V35.9365C38.7937 36.6378 38.2252 37.2063 37.5239 37.2063Z" fill="#E1A546"/>
<path d="M37.8413 35.9365H34.6667C34.1407 35.9365 33.7144 35.5101 33.7144 34.9841C33.7144 34.4581 34.1408 34.0318 34.6667 34.0318H37.8413C38.3673 34.0318 38.7937 34.4582 38.7937 34.9841C38.7937 35.5101 38.3673 35.9365 37.8413 35.9365Z" fill="#FFC850"/>
<path d="M20.0633 38.4762H19.4284C19.0778 38.4762 18.7935 38.1919 18.7935 37.8413V31.492C18.7935 31.1414 19.0778 30.8571 19.4284 30.8571H20.0633C20.4139 30.8571 20.6982 31.1414 20.6982 31.492V37.8413C20.6982 38.192 20.4139 38.4762 20.0633 38.4762Z" fill="#5A4146"/>
<path d="M21.0161 37.2063H18.4764C17.7751 37.2063 17.2065 36.6378 17.2065 35.9365V34.9841H22.2859V35.9365C22.2859 36.6378 21.7175 37.2063 21.0161 37.2063Z" fill="#E1A546"/>
<path d="M21.3335 35.9365H18.1589C17.6329 35.9365 17.2065 35.5101 17.2065 34.9841C17.2065 34.4581 17.6329 34.0318 18.1589 34.0318H21.3335C21.8595 34.0318 22.2858 34.4582 22.2858 34.9841C22.2858 35.5101 21.8594 35.9365 21.3335 35.9365Z" fill="#FFC850"/>
</g>
<defs>
<clipPath id="clip0_14568_9843">
<rect width="40" height="40" fill="white" transform="translate(8 8)"/>
</clipPath>
</defs>
</svg>
